<mxfile host="app.diagrams.net" agent="Mozilla/5.0 (Windows NT 10.0; Win64; x64) AppleWebKit/537.36 (KHTML, like Gecko) Chrome/136.0.0.0 Safari/537.36" version="26.3.0">
  <diagram name="Page-1" id="tywT5yEwLKg3EzKb8VBJ">
    <mxGraphModel dx="8771" dy="3260" grid="1" gridSize="10" guides="1" tooltips="1" connect="1" arrows="1" fold="1" page="1" pageScale="1" pageWidth="827" pageHeight="1169" math="0" shadow="0">
      <root>
        <mxCell id="0" />
        <mxCell id="1" parent="0" />
        <mxCell id="bMqEkU54IpqbucLzSi6T-1" value="" style="endArrow=open;endFill=1;endSize=12;html=1;rounded=0;entryX=1;entryY=0.5;entryDx=0;entryDy=0;exitX=0.5;exitY=0;exitDx=0;exitDy=0;" edge="1" parent="1" source="bMqEkU54IpqbucLzSi6T-217" target="bMqEkU54IpqbucLzSi6T-168">
          <mxGeometry width="160" relative="1" as="geometry">
            <mxPoint x="-5440" y="-1780" as="sourcePoint" />
            <mxPoint x="-5290" y="-1734" as="targetPoint" />
          </mxGeometry>
        </mxCell>
        <mxCell id="bMqEkU54IpqbucLzSi6T-2" value="" style="endArrow=open;endFill=1;endSize=12;html=1;rounded=0;exitX=0.5;exitY=0;exitDx=0;exitDy=0;entryX=0.5;entryY=1;entryDx=0;entryDy=0;" edge="1" parent="1" source="bMqEkU54IpqbucLzSi6T-355" target="bMqEkU54IpqbucLzSi6T-291">
          <mxGeometry width="160" relative="1" as="geometry">
            <mxPoint x="-5231" y="-1187" as="sourcePoint" />
            <mxPoint x="-5990" y="-1630" as="targetPoint" />
            <Array as="points" />
          </mxGeometry>
        </mxCell>
        <mxCell id="bMqEkU54IpqbucLzSi6T-3" value="" style="endArrow=open;endFill=1;endSize=12;html=1;rounded=0;exitX=1;exitY=0.5;exitDx=0;exitDy=0;entryX=0;entryY=0.5;entryDx=0;entryDy=0;" edge="1" parent="1" source="bMqEkU54IpqbucLzSi6T-44" target="bMqEkU54IpqbucLzSi6T-7">
          <mxGeometry width="160" relative="1" as="geometry">
            <mxPoint x="-6130" y="-2120" as="sourcePoint" />
            <mxPoint x="-6220" y="-1810" as="targetPoint" />
          </mxGeometry>
        </mxCell>
        <mxCell id="bMqEkU54IpqbucLzSi6T-4" value="" style="endArrow=open;endFill=1;endSize=12;html=1;rounded=0;exitX=0.5;exitY=1;exitDx=0;exitDy=0;entryX=0;entryY=0.5;entryDx=0;entryDy=0;" edge="1" parent="1" source="bMqEkU54IpqbucLzSi6T-148" target="bMqEkU54IpqbucLzSi6T-174">
          <mxGeometry width="160" relative="1" as="geometry">
            <mxPoint x="-4958" y="-1855" as="sourcePoint" />
            <mxPoint x="-4952" y="-1682" as="targetPoint" />
            <Array as="points" />
          </mxGeometry>
        </mxCell>
        <mxCell id="bMqEkU54IpqbucLzSi6T-5" value="&amp;lt;&amp;lt;Controller&amp;gt;&amp;gt;&lt;div&gt;RiddleController&lt;/div&gt;" style="swimlane;fontStyle=1;align=center;verticalAlign=top;childLayout=stackLayout;horizontal=1;startSize=39;horizontalStack=0;resizeParent=1;resizeParentMax=0;resizeLast=0;collapsible=1;marginBottom=0;whiteSpace=wrap;html=1;fillColor=#FF6666;" vertex="1" collapsed="1" parent="1">
          <mxGeometry x="-6220" y="-1950" width="130" height="40" as="geometry">
            <mxRectangle x="-6080" y="-1841" width="303" height="333" as="alternateBounds" />
          </mxGeometry>
        </mxCell>
        <mxCell id="bMqEkU54IpqbucLzSi6T-6" value="" style="line;strokeWidth=1;fillColor=none;align=left;verticalAlign=middle;spacingTop=-1;spacingLeft=3;spacingRight=3;rotatable=0;labelPosition=right;points=[];portConstraint=eastwest;strokeColor=inherit;" vertex="1" parent="bMqEkU54IpqbucLzSi6T-5">
          <mxGeometry y="39" width="303" height="8" as="geometry" />
        </mxCell>
        <mxCell id="bMqEkU54IpqbucLzSi6T-7" value="+ answer_riddle() :&amp;nbsp; Answer" style="text;strokeColor=none;fillColor=none;align=left;verticalAlign=top;spacingLeft=4;spacingRight=4;overflow=hidden;rotatable=0;points=[[0,0.5],[1,0.5]];portConstraint=eastwest;whiteSpace=wrap;html=1;" vertex="1" parent="bMqEkU54IpqbucLzSi6T-5">
          <mxGeometry y="47" width="303" height="26" as="geometry" />
        </mxCell>
        <mxCell id="bMqEkU54IpqbucLzSi6T-8" value="+choose_riddle _option() : RiddleType" style="text;strokeColor=none;fillColor=none;align=left;verticalAlign=top;spacingLeft=4;spacingRight=4;overflow=hidden;rotatable=0;points=[[0,0.5],[1,0.5]];portConstraint=eastwest;whiteSpace=wrap;html=1;" vertex="1" parent="bMqEkU54IpqbucLzSi6T-5">
          <mxGeometry y="73" width="303" height="26" as="geometry" />
        </mxCell>
        <mxCell id="bMqEkU54IpqbucLzSi6T-9" value="+show_fail_message() : void" style="text;strokeColor=none;fillColor=none;align=left;verticalAlign=top;spacingLeft=4;spacingRight=4;overflow=hidden;rotatable=0;points=[[0,0.5],[1,0.5]];portConstraint=eastwest;whiteSpace=wrap;html=1;" vertex="1" parent="bMqEkU54IpqbucLzSi6T-5">
          <mxGeometry y="99" width="303" height="26" as="geometry" />
        </mxCell>
        <mxCell id="bMqEkU54IpqbucLzSi6T-10" value="+show_success_message() : void" style="text;strokeColor=none;fillColor=none;align=left;verticalAlign=top;spacingLeft=4;spacingRight=4;overflow=hidden;rotatable=0;points=[[0,0.5],[1,0.5]];portConstraint=eastwest;whiteSpace=wrap;html=1;" vertex="1" parent="bMqEkU54IpqbucLzSi6T-5">
          <mxGeometry y="125" width="303" height="26" as="geometry" />
        </mxCell>
        <mxCell id="bMqEkU54IpqbucLzSi6T-11" value="+show_final_message(): void" style="text;strokeColor=none;fillColor=none;align=left;verticalAlign=top;spacingLeft=4;spacingRight=4;overflow=hidden;rotatable=0;points=[[0,0.5],[1,0.5]];portConstraint=eastwest;whiteSpace=wrap;html=1;" vertex="1" parent="bMqEkU54IpqbucLzSi6T-5">
          <mxGeometry y="151" width="303" height="26" as="geometry" />
        </mxCell>
        <mxCell id="bMqEkU54IpqbucLzSi6T-12" value="+create_custom_riddle() : Riddle" style="text;strokeColor=none;fillColor=none;align=left;verticalAlign=top;spacingLeft=4;spacingRight=4;overflow=hidden;rotatable=0;points=[[0,0.5],[1,0.5]];portConstraint=eastwest;whiteSpace=wrap;html=1;" vertex="1" parent="bMqEkU54IpqbucLzSi6T-5">
          <mxGeometry y="177" width="303" height="26" as="geometry" />
        </mxCell>
        <mxCell id="bMqEkU54IpqbucLzSi6T-13" value="+request_riddles_from_database() : List&amp;lt;Riddle&amp;gt;" style="text;strokeColor=none;fillColor=none;align=left;verticalAlign=top;spacingLeft=4;spacingRight=4;overflow=hidden;rotatable=0;points=[[0,0.5],[1,0.5]];portConstraint=eastwest;whiteSpace=wrap;html=1;" vertex="1" parent="bMqEkU54IpqbucLzSi6T-5">
          <mxGeometry y="203" width="303" height="26" as="geometry" />
        </mxCell>
        <mxCell id="bMqEkU54IpqbucLzSi6T-14" value="+show_riddles(): void" style="text;strokeColor=none;fillColor=none;align=left;verticalAlign=top;spacingLeft=4;spacingRight=4;overflow=hidden;rotatable=0;points=[[0,0.5],[1,0.5]];portConstraint=eastwest;whiteSpace=wrap;html=1;" vertex="1" parent="bMqEkU54IpqbucLzSi6T-5">
          <mxGeometry y="229" width="303" height="26" as="geometry" />
        </mxCell>
        <mxCell id="bMqEkU54IpqbucLzSi6T-15" value="&lt;p style=&quot;margin: 0in; font-size: 9pt;&quot;&gt;+&lt;span style=&quot;font-size: 9pt; background-color: transparent; color: light-dark(rgb(0, 0, 0), rgb(255, 255, 255));&quot;&gt;is_final_riddle(): boolean&lt;/span&gt;&lt;/p&gt;" style="text;strokeColor=none;fillColor=none;align=left;verticalAlign=top;spacingLeft=4;spacingRight=4;overflow=hidden;rotatable=0;points=[[0,0.5],[1,0.5]];portConstraint=eastwest;whiteSpace=wrap;html=1;" vertex="1" parent="bMqEkU54IpqbucLzSi6T-5">
          <mxGeometry y="255" width="303" height="26" as="geometry" />
        </mxCell>
        <mxCell id="bMqEkU54IpqbucLzSi6T-16" value="&lt;p style=&quot;margin: 0in; font-size: 9pt;&quot;&gt;+upload_image(): void&lt;/p&gt;" style="text;strokeColor=none;fillColor=none;align=left;verticalAlign=top;spacingLeft=4;spacingRight=4;overflow=hidden;rotatable=0;points=[[0,0.5],[1,0.5]];portConstraint=eastwest;whiteSpace=wrap;html=1;" vertex="1" parent="bMqEkU54IpqbucLzSi6T-5">
          <mxGeometry y="281" width="303" height="26" as="geometry" />
        </mxCell>
        <mxCell id="bMqEkU54IpqbucLzSi6T-17" value="&lt;p style=&quot;margin: 0in; font-size: 9pt;&quot;&gt;+set_story()&lt;/p&gt;" style="text;strokeColor=none;fillColor=none;align=left;verticalAlign=top;spacingLeft=4;spacingRight=4;overflow=hidden;rotatable=0;points=[[0,0.5],[1,0.5]];portConstraint=eastwest;whiteSpace=wrap;html=1;" vertex="1" parent="bMqEkU54IpqbucLzSi6T-5">
          <mxGeometry y="307" width="303" height="26" as="geometry" />
        </mxCell>
        <mxCell id="bMqEkU54IpqbucLzSi6T-18" value="&amp;lt;&amp;lt;Boundary&amp;gt;&amp;gt;&lt;div&gt;CreateRiddlesDialog&lt;/div&gt;" style="swimlane;fontStyle=1;align=center;verticalAlign=top;childLayout=stackLayout;horizontal=1;startSize=41;horizontalStack=0;resizeParent=1;resizeParentMax=0;resizeLast=0;collapsible=1;marginBottom=0;whiteSpace=wrap;html=1;fillColor=#CCCCFF;" vertex="1" collapsed="1" parent="1">
          <mxGeometry x="-6490" y="-2050" width="150" height="41" as="geometry">
            <mxRectangle x="-6870" y="-2440" width="210" height="647" as="alternateBounds" />
          </mxGeometry>
        </mxCell>
        <mxCell id="bMqEkU54IpqbucLzSi6T-19" value="+btnReturnHome: button" style="text;strokeColor=none;fillColor=none;align=left;verticalAlign=top;spacingLeft=4;spacingRight=4;overflow=hidden;rotatable=0;points=[[0,0.5],[1,0.5]];portConstraint=eastwest;whiteSpace=wrap;html=1;" vertex="1" parent="bMqEkU54IpqbucLzSi6T-18">
          <mxGeometry y="41" width="210" height="26" as="geometry" />
        </mxCell>
        <mxCell id="bMqEkU54IpqbucLzSi6T-20" value="+btnLogout: button" style="text;strokeColor=none;fillColor=none;align=left;verticalAlign=top;spacingLeft=4;spacingRight=4;overflow=hidden;rotatable=0;points=[[0,0.5],[1,0.5]];portConstraint=eastwest;whiteSpace=wrap;html=1;" vertex="1" parent="bMqEkU54IpqbucLzSi6T-18">
          <mxGeometry y="67" width="210" height="26" as="geometry" />
        </mxCell>
        <mxCell id="bMqEkU54IpqbucLzSi6T-21" value="+btnSettings: button" style="text;strokeColor=none;fillColor=none;align=left;verticalAlign=top;spacingLeft=4;spacingRight=4;overflow=hidden;rotatable=0;points=[[0,0.5],[1,0.5]];portConstraint=eastwest;whiteSpace=wrap;html=1;" vertex="1" parent="bMqEkU54IpqbucLzSi6T-18">
          <mxGeometry y="93" width="210" height="26" as="geometry" />
        </mxCell>
        <mxCell id="bMqEkU54IpqbucLzSi6T-22" value="&lt;div&gt;+btnSubmit: button&lt;/div&gt;" style="text;strokeColor=none;fillColor=none;align=left;verticalAlign=top;spacingLeft=4;spacingRight=4;overflow=hidden;rotatable=0;points=[[0,0.5],[1,0.5]];portConstraint=eastwest;whiteSpace=wrap;html=1;" vertex="1" parent="bMqEkU54IpqbucLzSi6T-18">
          <mxGeometry y="119" width="210" height="26" as="geometry" />
        </mxCell>
        <mxCell id="bMqEkU54IpqbucLzSi6T-23" value="&lt;div&gt;+lblRiddleTitle1: label&lt;/div&gt;" style="text;strokeColor=none;fillColor=none;align=left;verticalAlign=top;spacingLeft=4;spacingRight=4;overflow=hidden;rotatable=0;points=[[0,0.5],[1,0.5]];portConstraint=eastwest;whiteSpace=wrap;html=1;" vertex="1" parent="bMqEkU54IpqbucLzSi6T-18">
          <mxGeometry y="145" width="210" height="26" as="geometry" />
        </mxCell>
        <mxCell id="bMqEkU54IpqbucLzSi6T-24" value="&lt;div&gt;+lblRiddleTitle2: label&lt;/div&gt;" style="text;strokeColor=none;fillColor=none;align=left;verticalAlign=top;spacingLeft=4;spacingRight=4;overflow=hidden;rotatable=0;points=[[0,0.5],[1,0.5]];portConstraint=eastwest;whiteSpace=wrap;html=1;" vertex="1" parent="bMqEkU54IpqbucLzSi6T-18">
          <mxGeometry y="171" width="210" height="26" as="geometry" />
        </mxCell>
        <mxCell id="bMqEkU54IpqbucLzSi6T-25" value="&lt;div&gt;+lblRiddleTitle3: label&lt;/div&gt;" style="text;strokeColor=none;fillColor=none;align=left;verticalAlign=top;spacingLeft=4;spacingRight=4;overflow=hidden;rotatable=0;points=[[0,0.5],[1,0.5]];portConstraint=eastwest;whiteSpace=wrap;html=1;" vertex="1" parent="bMqEkU54IpqbucLzSi6T-18">
          <mxGeometry y="197" width="210" height="26" as="geometry" />
        </mxCell>
        <mxCell id="bMqEkU54IpqbucLzSi6T-26" value="&lt;div&gt;+btnRiddleInput1: button&lt;/div&gt;" style="text;strokeColor=none;fillColor=none;align=left;verticalAlign=top;spacingLeft=4;spacingRight=4;overflow=hidden;rotatable=0;points=[[0,0.5],[1,0.5]];portConstraint=eastwest;whiteSpace=wrap;html=1;" vertex="1" parent="bMqEkU54IpqbucLzSi6T-18">
          <mxGeometry y="223" width="210" height="26" as="geometry" />
        </mxCell>
        <mxCell id="bMqEkU54IpqbucLzSi6T-27" value="&lt;div&gt;+btnRiddleInput2: button&lt;/div&gt;" style="text;strokeColor=none;fillColor=none;align=left;verticalAlign=top;spacingLeft=4;spacingRight=4;overflow=hidden;rotatable=0;points=[[0,0.5],[1,0.5]];portConstraint=eastwest;whiteSpace=wrap;html=1;" vertex="1" parent="bMqEkU54IpqbucLzSi6T-18">
          <mxGeometry y="249" width="210" height="26" as="geometry" />
        </mxCell>
        <mxCell id="bMqEkU54IpqbucLzSi6T-28" value="&lt;div&gt;+btnRiddleInput3: button&lt;/div&gt;" style="text;strokeColor=none;fillColor=none;align=left;verticalAlign=top;spacingLeft=4;spacingRight=4;overflow=hidden;rotatable=0;points=[[0,0.5],[1,0.5]];portConstraint=eastwest;whiteSpace=wrap;html=1;" vertex="1" parent="bMqEkU54IpqbucLzSi6T-18">
          <mxGeometry y="275" width="210" height="26" as="geometry" />
        </mxCell>
        <mxCell id="bMqEkU54IpqbucLzSi6T-29" value="&lt;div&gt;+btnRiddleImageInput1: button&lt;/div&gt;" style="text;strokeColor=none;fillColor=none;align=left;verticalAlign=top;spacingLeft=4;spacingRight=4;overflow=hidden;rotatable=0;points=[[0,0.5],[1,0.5]];portConstraint=eastwest;whiteSpace=wrap;html=1;" vertex="1" parent="bMqEkU54IpqbucLzSi6T-18">
          <mxGeometry y="301" width="210" height="26" as="geometry" />
        </mxCell>
        <mxCell id="bMqEkU54IpqbucLzSi6T-30" value="&lt;div&gt;+btnRiddleImageInput2: button&lt;/div&gt;" style="text;strokeColor=none;fillColor=none;align=left;verticalAlign=top;spacingLeft=4;spacingRight=4;overflow=hidden;rotatable=0;points=[[0,0.5],[1,0.5]];portConstraint=eastwest;whiteSpace=wrap;html=1;" vertex="1" parent="bMqEkU54IpqbucLzSi6T-18">
          <mxGeometry y="327" width="210" height="26" as="geometry" />
        </mxCell>
        <mxCell id="bMqEkU54IpqbucLzSi6T-31" value="&lt;div&gt;+btnRiddleImageInput3: button&lt;/div&gt;" style="text;strokeColor=none;fillColor=none;align=left;verticalAlign=top;spacingLeft=4;spacingRight=4;overflow=hidden;rotatable=0;points=[[0,0.5],[1,0.5]];portConstraint=eastwest;whiteSpace=wrap;html=1;" vertex="1" parent="bMqEkU54IpqbucLzSi6T-18">
          <mxGeometry y="353" width="210" height="26" as="geometry" />
        </mxCell>
        <mxCell id="bMqEkU54IpqbucLzSi6T-32" value="" style="line;strokeWidth=1;fillColor=none;align=left;verticalAlign=middle;spacingTop=-1;spacingLeft=3;spacingRight=3;rotatable=0;labelPosition=right;points=[];portConstraint=eastwest;strokeColor=inherit;" vertex="1" parent="bMqEkU54IpqbucLzSi6T-18">
          <mxGeometry y="379" width="210" height="8" as="geometry" />
        </mxCell>
        <mxCell id="bMqEkU54IpqbucLzSi6T-33" value="+btnReturnHomePress(): void" style="text;strokeColor=none;fillColor=none;align=left;verticalAlign=top;spacingLeft=4;spacingRight=4;overflow=hidden;rotatable=0;points=[[0,0.5],[1,0.5]];portConstraint=eastwest;whiteSpace=wrap;html=1;" vertex="1" parent="bMqEkU54IpqbucLzSi6T-18">
          <mxGeometry y="387" width="210" height="26" as="geometry" />
        </mxCell>
        <mxCell id="bMqEkU54IpqbucLzSi6T-34" value="+btnLogoutPress(): void" style="text;strokeColor=none;fillColor=none;align=left;verticalAlign=top;spacingLeft=4;spacingRight=4;overflow=hidden;rotatable=0;points=[[0,0.5],[1,0.5]];portConstraint=eastwest;whiteSpace=wrap;html=1;" vertex="1" parent="bMqEkU54IpqbucLzSi6T-18">
          <mxGeometry y="413" width="210" height="26" as="geometry" />
        </mxCell>
        <mxCell id="bMqEkU54IpqbucLzSi6T-35" value="+btnSettingsPress(): void" style="text;strokeColor=none;fillColor=none;align=left;verticalAlign=top;spacingLeft=4;spacingRight=4;overflow=hidden;rotatable=0;points=[[0,0.5],[1,0.5]];portConstraint=eastwest;whiteSpace=wrap;html=1;" vertex="1" parent="bMqEkU54IpqbucLzSi6T-18">
          <mxGeometry y="439" width="210" height="26" as="geometry" />
        </mxCell>
        <mxCell id="bMqEkU54IpqbucLzSi6T-36" value="+btnSubmitPress(): void" style="text;strokeColor=none;fillColor=none;align=left;verticalAlign=top;spacingLeft=4;spacingRight=4;overflow=hidden;rotatable=0;points=[[0,0.5],[1,0.5]];portConstraint=eastwest;whiteSpace=wrap;html=1;" vertex="1" parent="bMqEkU54IpqbucLzSi6T-18">
          <mxGeometry y="465" width="210" height="26" as="geometry" />
        </mxCell>
        <mxCell id="bMqEkU54IpqbucLzSi6T-37" value="+btnRiddleInput1Press(): void" style="text;strokeColor=none;fillColor=none;align=left;verticalAlign=top;spacingLeft=4;spacingRight=4;overflow=hidden;rotatable=0;points=[[0,0.5],[1,0.5]];portConstraint=eastwest;whiteSpace=wrap;html=1;" vertex="1" parent="bMqEkU54IpqbucLzSi6T-18">
          <mxGeometry y="491" width="210" height="26" as="geometry" />
        </mxCell>
        <mxCell id="bMqEkU54IpqbucLzSi6T-38" value="+btnRiddleInput2Press(): void" style="text;strokeColor=none;fillColor=none;align=left;verticalAlign=top;spacingLeft=4;spacingRight=4;overflow=hidden;rotatable=0;points=[[0,0.5],[1,0.5]];portConstraint=eastwest;whiteSpace=wrap;html=1;" vertex="1" parent="bMqEkU54IpqbucLzSi6T-18">
          <mxGeometry y="517" width="210" height="26" as="geometry" />
        </mxCell>
        <mxCell id="bMqEkU54IpqbucLzSi6T-39" value="+btnRiddleInput3Press(): void" style="text;strokeColor=none;fillColor=none;align=left;verticalAlign=top;spacingLeft=4;spacingRight=4;overflow=hidden;rotatable=0;points=[[0,0.5],[1,0.5]];portConstraint=eastwest;whiteSpace=wrap;html=1;" vertex="1" parent="bMqEkU54IpqbucLzSi6T-18">
          <mxGeometry y="543" width="210" height="26" as="geometry" />
        </mxCell>
        <mxCell id="bMqEkU54IpqbucLzSi6T-40" value="&lt;div&gt;+btnUploadImage1Press(): void&lt;/div&gt;" style="text;strokeColor=none;fillColor=#FFFFFF;align=left;verticalAlign=top;spacingLeft=4;spacingRight=4;overflow=hidden;rotatable=0;points=[[0,0.5],[1,0.5]];portConstraint=eastwest;whiteSpace=wrap;html=1;" vertex="1" parent="bMqEkU54IpqbucLzSi6T-18">
          <mxGeometry y="569" width="210" height="26" as="geometry" />
        </mxCell>
        <mxCell id="bMqEkU54IpqbucLzSi6T-41" value="&lt;div&gt;+btnUploadImage2Press(): void&lt;/div&gt;" style="text;strokeColor=none;fillColor=none;align=left;verticalAlign=top;spacingLeft=4;spacingRight=4;overflow=hidden;rotatable=0;points=[[0,0.5],[1,0.5]];portConstraint=eastwest;whiteSpace=wrap;html=1;" vertex="1" parent="bMqEkU54IpqbucLzSi6T-18">
          <mxGeometry y="595" width="210" height="26" as="geometry" />
        </mxCell>
        <mxCell id="bMqEkU54IpqbucLzSi6T-42" value="&lt;div&gt;+btnUploadImage3Press(): void&lt;/div&gt;" style="text;strokeColor=none;fillColor=none;align=left;verticalAlign=top;spacingLeft=4;spacingRight=4;overflow=hidden;rotatable=0;points=[[0,0.5],[1,0.5]];portConstraint=eastwest;whiteSpace=wrap;html=1;" vertex="1" parent="bMqEkU54IpqbucLzSi6T-18">
          <mxGeometry y="621" width="210" height="26" as="geometry" />
        </mxCell>
        <mxCell id="bMqEkU54IpqbucLzSi6T-43" value="&amp;lt;&amp;lt;Boundary&amp;gt;&amp;gt;&lt;div&gt;RiddleOptionsDialog&lt;/div&gt;" style="swimlane;fontStyle=1;align=center;verticalAlign=top;childLayout=stackLayout;horizontal=1;startSize=41;horizontalStack=0;resizeParent=1;resizeParentMax=0;resizeLast=0;collapsible=1;marginBottom=0;whiteSpace=wrap;html=1;fillColor=#CCCCFF;" vertex="1" collapsed="1" parent="1">
          <mxGeometry x="-6490" y="-1900" width="150" height="41" as="geometry">
            <mxRectangle x="-6900" y="-1556" width="210" height="387" as="alternateBounds" />
          </mxGeometry>
        </mxCell>
        <mxCell id="bMqEkU54IpqbucLzSi6T-44" value="+btnReturnHome: button" style="text;strokeColor=none;fillColor=none;align=left;verticalAlign=top;spacingLeft=4;spacingRight=4;overflow=hidden;rotatable=0;points=[[0,0.5],[1,0.5]];portConstraint=eastwest;whiteSpace=wrap;html=1;" vertex="1" parent="bMqEkU54IpqbucLzSi6T-43">
          <mxGeometry y="41" width="210" height="26" as="geometry" />
        </mxCell>
        <mxCell id="bMqEkU54IpqbucLzSi6T-45" value="+btnLogout: button" style="text;strokeColor=none;fillColor=none;align=left;verticalAlign=top;spacingLeft=4;spacingRight=4;overflow=hidden;rotatable=0;points=[[0,0.5],[1,0.5]];portConstraint=eastwest;whiteSpace=wrap;html=1;" vertex="1" parent="bMqEkU54IpqbucLzSi6T-43">
          <mxGeometry y="67" width="210" height="26" as="geometry" />
        </mxCell>
        <mxCell id="bMqEkU54IpqbucLzSi6T-46" value="+btnSettings: button" style="text;strokeColor=none;fillColor=none;align=left;verticalAlign=top;spacingLeft=4;spacingRight=4;overflow=hidden;rotatable=0;points=[[0,0.5],[1,0.5]];portConstraint=eastwest;whiteSpace=wrap;html=1;" vertex="1" parent="bMqEkU54IpqbucLzSi6T-43">
          <mxGeometry y="93" width="210" height="26" as="geometry" />
        </mxCell>
        <mxCell id="bMqEkU54IpqbucLzSi6T-47" value="&lt;div&gt;+lblRiddleOptions: label&lt;/div&gt;" style="text;strokeColor=none;fillColor=none;align=left;verticalAlign=top;spacingLeft=4;spacingRight=4;overflow=hidden;rotatable=0;points=[[0,0.5],[1,0.5]];portConstraint=eastwest;whiteSpace=wrap;html=1;" vertex="1" parent="bMqEkU54IpqbucLzSi6T-43">
          <mxGeometry y="119" width="210" height="26" as="geometry" />
        </mxCell>
        <mxCell id="bMqEkU54IpqbucLzSi6T-48" value="&lt;div&gt;+btnChooseDefault: button&lt;/div&gt;" style="text;strokeColor=none;fillColor=none;align=left;verticalAlign=top;spacingLeft=4;spacingRight=4;overflow=hidden;rotatable=0;points=[[0,0.5],[1,0.5]];portConstraint=eastwest;whiteSpace=wrap;html=1;" vertex="1" parent="bMqEkU54IpqbucLzSi6T-43">
          <mxGeometry y="145" width="210" height="26" as="geometry" />
        </mxCell>
        <mxCell id="bMqEkU54IpqbucLzSi6T-49" value="&lt;div&gt;+btnCreateRiddles: button&lt;/div&gt;" style="text;strokeColor=none;fillColor=none;align=left;verticalAlign=top;spacingLeft=4;spacingRight=4;overflow=hidden;rotatable=0;points=[[0,0.5],[1,0.5]];portConstraint=eastwest;whiteSpace=wrap;html=1;" vertex="1" parent="bMqEkU54IpqbucLzSi6T-43">
          <mxGeometry y="171" width="210" height="26" as="geometry" />
        </mxCell>
        <mxCell id="bMqEkU54IpqbucLzSi6T-50" value="&lt;div&gt;+btnChooseDatabase: button&lt;/div&gt;" style="text;strokeColor=none;fillColor=none;align=left;verticalAlign=top;spacingLeft=4;spacingRight=4;overflow=hidden;rotatable=0;points=[[0,0.5],[1,0.5]];portConstraint=eastwest;whiteSpace=wrap;html=1;" vertex="1" parent="bMqEkU54IpqbucLzSi6T-43">
          <mxGeometry y="197" width="210" height="26" as="geometry" />
        </mxCell>
        <mxCell id="bMqEkU54IpqbucLzSi6T-51" value="" style="line;strokeWidth=1;fillColor=none;align=left;verticalAlign=middle;spacingTop=-1;spacingLeft=3;spacingRight=3;rotatable=0;labelPosition=right;points=[];portConstraint=eastwest;strokeColor=inherit;" vertex="1" parent="bMqEkU54IpqbucLzSi6T-43">
          <mxGeometry y="223" width="210" height="8" as="geometry" />
        </mxCell>
        <mxCell id="bMqEkU54IpqbucLzSi6T-52" value="+btnReturnHomePress(): void" style="text;strokeColor=none;fillColor=none;align=left;verticalAlign=top;spacingLeft=4;spacingRight=4;overflow=hidden;rotatable=0;points=[[0,0.5],[1,0.5]];portConstraint=eastwest;whiteSpace=wrap;html=1;" vertex="1" parent="bMqEkU54IpqbucLzSi6T-43">
          <mxGeometry y="231" width="210" height="26" as="geometry" />
        </mxCell>
        <mxCell id="bMqEkU54IpqbucLzSi6T-53" value="+btnLogoutPress(): void" style="text;strokeColor=none;fillColor=none;align=left;verticalAlign=top;spacingLeft=4;spacingRight=4;overflow=hidden;rotatable=0;points=[[0,0.5],[1,0.5]];portConstraint=eastwest;whiteSpace=wrap;html=1;" vertex="1" parent="bMqEkU54IpqbucLzSi6T-43">
          <mxGeometry y="257" width="210" height="26" as="geometry" />
        </mxCell>
        <mxCell id="bMqEkU54IpqbucLzSi6T-54" value="+btnSettingsPress(): void" style="text;strokeColor=none;fillColor=none;align=left;verticalAlign=top;spacingLeft=4;spacingRight=4;overflow=hidden;rotatable=0;points=[[0,0.5],[1,0.5]];portConstraint=eastwest;whiteSpace=wrap;html=1;" vertex="1" parent="bMqEkU54IpqbucLzSi6T-43">
          <mxGeometry y="283" width="210" height="26" as="geometry" />
        </mxCell>
        <mxCell id="bMqEkU54IpqbucLzSi6T-55" value="+btnChooseDefaultPress(): void" style="text;strokeColor=none;fillColor=none;align=left;verticalAlign=top;spacingLeft=4;spacingRight=4;overflow=hidden;rotatable=0;points=[[0,0.5],[1,0.5]];portConstraint=eastwest;whiteSpace=wrap;html=1;" vertex="1" parent="bMqEkU54IpqbucLzSi6T-43">
          <mxGeometry y="309" width="210" height="26" as="geometry" />
        </mxCell>
        <mxCell id="bMqEkU54IpqbucLzSi6T-56" value="+btnCreateRiddlePress(): void" style="text;strokeColor=none;fillColor=none;align=left;verticalAlign=top;spacingLeft=4;spacingRight=4;overflow=hidden;rotatable=0;points=[[0,0.5],[1,0.5]];portConstraint=eastwest;whiteSpace=wrap;html=1;" vertex="1" parent="bMqEkU54IpqbucLzSi6T-43">
          <mxGeometry y="335" width="210" height="26" as="geometry" />
        </mxCell>
        <mxCell id="bMqEkU54IpqbucLzSi6T-57" value="+btnChooseDatabasePress(): void" style="text;strokeColor=none;fillColor=none;align=left;verticalAlign=top;spacingLeft=4;spacingRight=4;overflow=hidden;rotatable=0;points=[[0,0.5],[1,0.5]];portConstraint=eastwest;whiteSpace=wrap;html=1;" vertex="1" parent="bMqEkU54IpqbucLzSi6T-43">
          <mxGeometry y="361" width="210" height="26" as="geometry" />
        </mxCell>
        <mxCell id="bMqEkU54IpqbucLzSi6T-58" value="&amp;lt;&amp;lt;Boundary&amp;gt;&amp;gt;&lt;div&gt;AnwerRiddleDialog&lt;/div&gt;" style="swimlane;fontStyle=1;align=center;verticalAlign=top;childLayout=stackLayout;horizontal=1;startSize=41;horizontalStack=0;resizeParent=1;resizeParentMax=0;resizeLast=0;collapsible=1;marginBottom=0;whiteSpace=wrap;html=1;fillColor=#CCCCFF;" vertex="1" collapsed="1" parent="1">
          <mxGeometry x="-6480" y="-1850" width="140" height="41" as="geometry">
            <mxRectangle x="-6616" y="-1462" width="210" height="307" as="alternateBounds" />
          </mxGeometry>
        </mxCell>
        <mxCell id="bMqEkU54IpqbucLzSi6T-59" value="&lt;div&gt;+btnReturnHome: button&lt;/div&gt;" style="text;strokeColor=none;fillColor=none;align=left;verticalAlign=top;spacingLeft=4;spacingRight=4;overflow=hidden;rotatable=0;points=[[0,0.5],[1,0.5]];portConstraint=eastwest;whiteSpace=wrap;html=1;" vertex="1" parent="bMqEkU54IpqbucLzSi6T-58">
          <mxGeometry y="41" width="210" height="24" as="geometry" />
        </mxCell>
        <mxCell id="bMqEkU54IpqbucLzSi6T-60" value="&lt;div&gt;+txtRiddleContent: text&lt;/div&gt;" style="text;strokeColor=none;fillColor=none;align=left;verticalAlign=top;spacingLeft=4;spacingRight=4;overflow=hidden;rotatable=0;points=[[0,0.5],[1,0.5]];portConstraint=eastwest;whiteSpace=wrap;html=1;" vertex="1" parent="bMqEkU54IpqbucLzSi6T-58">
          <mxGeometry y="65" width="210" height="26" as="geometry" />
        </mxCell>
        <mxCell id="bMqEkU54IpqbucLzSi6T-61" value="&lt;div&gt;+lblRiddleName: label&lt;/div&gt;" style="text;strokeColor=none;fillColor=none;align=left;verticalAlign=top;spacingLeft=4;spacingRight=4;overflow=hidden;rotatable=0;points=[[0,0.5],[1,0.5]];portConstraint=eastwest;whiteSpace=wrap;html=1;" vertex="1" parent="bMqEkU54IpqbucLzSi6T-58">
          <mxGeometry y="91" width="210" height="26" as="geometry" />
        </mxCell>
        <mxCell id="bMqEkU54IpqbucLzSi6T-62" value="&lt;div&gt;+imgRiddleImage: image&lt;/div&gt;" style="text;strokeColor=none;fillColor=none;align=left;verticalAlign=top;spacingLeft=4;spacingRight=4;overflow=hidden;rotatable=0;points=[[0,0.5],[1,0.5]];portConstraint=eastwest;whiteSpace=wrap;html=1;" vertex="1" parent="bMqEkU54IpqbucLzSi6T-58">
          <mxGeometry y="117" width="210" height="26" as="geometry" />
        </mxCell>
        <mxCell id="bMqEkU54IpqbucLzSi6T-63" value="&lt;div&gt;+btnRiddleAnswerInput: button&lt;/div&gt;" style="text;strokeColor=none;fillColor=none;align=left;verticalAlign=top;spacingLeft=4;spacingRight=4;overflow=hidden;rotatable=0;points=[[0,0.5],[1,0.5]];portConstraint=eastwest;whiteSpace=wrap;html=1;" vertex="1" parent="bMqEkU54IpqbucLzSi6T-58">
          <mxGeometry y="143" width="210" height="26" as="geometry" />
        </mxCell>
        <mxCell id="bMqEkU54IpqbucLzSi6T-64" value="&lt;div&gt;+btnEnter: button&lt;/div&gt;" style="text;strokeColor=none;fillColor=none;align=left;verticalAlign=top;spacingLeft=4;spacingRight=4;overflow=hidden;rotatable=0;points=[[0,0.5],[1,0.5]];portConstraint=eastwest;whiteSpace=wrap;html=1;" vertex="1" parent="bMqEkU54IpqbucLzSi6T-58">
          <mxGeometry y="169" width="210" height="26" as="geometry" />
        </mxCell>
        <mxCell id="bMqEkU54IpqbucLzSi6T-65" value="&lt;div&gt;+lblSubmitAnswer: label&lt;/div&gt;" style="text;strokeColor=none;fillColor=none;align=left;verticalAlign=top;spacingLeft=4;spacingRight=4;overflow=hidden;rotatable=0;points=[[0,0.5],[1,0.5]];portConstraint=eastwest;whiteSpace=wrap;html=1;" vertex="1" parent="bMqEkU54IpqbucLzSi6T-58">
          <mxGeometry y="195" width="210" height="26" as="geometry" />
        </mxCell>
        <mxCell id="bMqEkU54IpqbucLzSi6T-66" value="" style="line;strokeWidth=1;fillColor=none;align=left;verticalAlign=middle;spacingTop=-1;spacingLeft=3;spacingRight=3;rotatable=0;labelPosition=right;points=[];portConstraint=eastwest;strokeColor=inherit;" vertex="1" parent="bMqEkU54IpqbucLzSi6T-58">
          <mxGeometry y="221" width="210" height="8" as="geometry" />
        </mxCell>
        <mxCell id="bMqEkU54IpqbucLzSi6T-67" value="+btnReturnHomePress(): void" style="text;strokeColor=none;fillColor=none;align=left;verticalAlign=top;spacingLeft=4;spacingRight=4;overflow=hidden;rotatable=0;points=[[0,0.5],[1,0.5]];portConstraint=eastwest;whiteSpace=wrap;html=1;" vertex="1" parent="bMqEkU54IpqbucLzSi6T-58">
          <mxGeometry y="229" width="210" height="26" as="geometry" />
        </mxCell>
        <mxCell id="bMqEkU54IpqbucLzSi6T-68" value="+btnRiddleAnswerInputPress(): void" style="text;strokeColor=none;fillColor=none;align=left;verticalAlign=top;spacingLeft=4;spacingRight=4;overflow=hidden;rotatable=0;points=[[0,0.5],[1,0.5]];portConstraint=eastwest;whiteSpace=wrap;html=1;" vertex="1" parent="bMqEkU54IpqbucLzSi6T-58">
          <mxGeometry y="255" width="210" height="26" as="geometry" />
        </mxCell>
        <mxCell id="bMqEkU54IpqbucLzSi6T-69" value="+btnEnterPress(): void" style="text;strokeColor=none;fillColor=none;align=left;verticalAlign=top;spacingLeft=4;spacingRight=4;overflow=hidden;rotatable=0;points=[[0,0.5],[1,0.5]];portConstraint=eastwest;whiteSpace=wrap;html=1;" vertex="1" parent="bMqEkU54IpqbucLzSi6T-58">
          <mxGeometry y="281" width="210" height="26" as="geometry" />
        </mxCell>
        <mxCell id="bMqEkU54IpqbucLzSi6T-70" value="&amp;lt;&amp;lt;Boundary&amp;gt;&amp;gt;&lt;div&gt;FinalCongratulationsUI&lt;/div&gt;" style="swimlane;fontStyle=1;align=center;verticalAlign=top;childLayout=stackLayout;horizontal=1;startSize=41;horizontalStack=0;resizeParent=1;resizeParentMax=0;resizeLast=0;collapsible=1;marginBottom=0;whiteSpace=wrap;html=1;fillColor=#CCCCFF;" vertex="1" collapsed="1" parent="1">
          <mxGeometry x="-6500" y="-1950" width="160" height="41" as="geometry">
            <mxRectangle x="-6880" y="-1764" width="270" height="151" as="alternateBounds" />
          </mxGeometry>
        </mxCell>
        <mxCell id="bMqEkU54IpqbucLzSi6T-71" value="&lt;div&gt;+btnReturnHome: button&lt;/div&gt;" style="text;strokeColor=none;fillColor=none;align=left;verticalAlign=top;spacingLeft=4;spacingRight=4;overflow=hidden;rotatable=0;points=[[0,0.5],[1,0.5]];portConstraint=eastwest;whiteSpace=wrap;html=1;" vertex="1" parent="bMqEkU54IpqbucLzSi6T-70">
          <mxGeometry y="41" width="270" height="24" as="geometry" />
        </mxCell>
        <mxCell id="bMqEkU54IpqbucLzSi6T-72" value="&lt;div&gt;+lblCongratulations: label&lt;/div&gt;" style="text;strokeColor=none;fillColor=none;align=left;verticalAlign=top;spacingLeft=4;spacingRight=4;overflow=hidden;rotatable=0;points=[[0,0.5],[1,0.5]];portConstraint=eastwest;whiteSpace=wrap;html=1;" vertex="1" parent="bMqEkU54IpqbucLzSi6T-70">
          <mxGeometry y="65" width="270" height="26" as="geometry" />
        </mxCell>
        <mxCell id="bMqEkU54IpqbucLzSi6T-73" value="&lt;div&gt;+lblYouHaveReachedTheEndOfTheStory: label&lt;/div&gt;" style="text;strokeColor=none;fillColor=none;align=left;verticalAlign=top;spacingLeft=4;spacingRight=4;overflow=hidden;rotatable=0;points=[[0,0.5],[1,0.5]];portConstraint=eastwest;whiteSpace=wrap;html=1;" vertex="1" parent="bMqEkU54IpqbucLzSi6T-70">
          <mxGeometry y="91" width="270" height="26" as="geometry" />
        </mxCell>
        <mxCell id="bMqEkU54IpqbucLzSi6T-74" value="" style="line;strokeWidth=1;fillColor=none;align=left;verticalAlign=middle;spacingTop=-1;spacingLeft=3;spacingRight=3;rotatable=0;labelPosition=right;points=[];portConstraint=eastwest;strokeColor=inherit;" vertex="1" parent="bMqEkU54IpqbucLzSi6T-70">
          <mxGeometry y="117" width="270" height="8" as="geometry" />
        </mxCell>
        <mxCell id="bMqEkU54IpqbucLzSi6T-75" value="+btnReturnHomePress(): void" style="text;strokeColor=none;fillColor=none;align=left;verticalAlign=top;spacingLeft=4;spacingRight=4;overflow=hidden;rotatable=0;points=[[0,0.5],[1,0.5]];portConstraint=eastwest;whiteSpace=wrap;html=1;" vertex="1" parent="bMqEkU54IpqbucLzSi6T-70">
          <mxGeometry y="125" width="270" height="26" as="geometry" />
        </mxCell>
        <mxCell id="bMqEkU54IpqbucLzSi6T-76" value="&amp;lt;&amp;lt;Boundary&amp;gt;&amp;gt;&lt;div&gt;ChooseDatabaseRiddleDialog&lt;/div&gt;" style="swimlane;fontStyle=1;align=center;verticalAlign=top;childLayout=stackLayout;horizontal=1;startSize=41;horizontalStack=0;resizeParent=1;resizeParentMax=0;resizeLast=0;collapsible=1;marginBottom=0;whiteSpace=wrap;html=1;fillColor=#CCCCFF;" vertex="1" collapsed="1" parent="1">
          <mxGeometry x="-6540" y="-2000" width="200" height="41" as="geometry">
            <mxRectangle x="-7170" y="-2040" width="210" height="517" as="alternateBounds" />
          </mxGeometry>
        </mxCell>
        <mxCell id="bMqEkU54IpqbucLzSi6T-77" value="+btnReturnHome: button" style="text;strokeColor=none;fillColor=none;align=left;verticalAlign=top;spacingLeft=4;spacingRight=4;overflow=hidden;rotatable=0;points=[[0,0.5],[1,0.5]];portConstraint=eastwest;whiteSpace=wrap;html=1;" vertex="1" parent="bMqEkU54IpqbucLzSi6T-76">
          <mxGeometry y="41" width="210" height="26" as="geometry" />
        </mxCell>
        <mxCell id="bMqEkU54IpqbucLzSi6T-78" value="+btnLogout: button" style="text;strokeColor=none;fillColor=none;align=left;verticalAlign=top;spacingLeft=4;spacingRight=4;overflow=hidden;rotatable=0;points=[[0,0.5],[1,0.5]];portConstraint=eastwest;whiteSpace=wrap;html=1;" vertex="1" parent="bMqEkU54IpqbucLzSi6T-76">
          <mxGeometry y="67" width="210" height="26" as="geometry" />
        </mxCell>
        <mxCell id="bMqEkU54IpqbucLzSi6T-79" value="+btnSettings: button" style="text;strokeColor=none;fillColor=none;align=left;verticalAlign=top;spacingLeft=4;spacingRight=4;overflow=hidden;rotatable=0;points=[[0,0.5],[1,0.5]];portConstraint=eastwest;whiteSpace=wrap;html=1;" vertex="1" parent="bMqEkU54IpqbucLzSi6T-76">
          <mxGeometry y="93" width="210" height="26" as="geometry" />
        </mxCell>
        <mxCell id="bMqEkU54IpqbucLzSi6T-80" value="&lt;div&gt;+btnSubmit: button&lt;/div&gt;" style="text;strokeColor=none;fillColor=none;align=left;verticalAlign=top;spacingLeft=4;spacingRight=4;overflow=hidden;rotatable=0;points=[[0,0.5],[1,0.5]];portConstraint=eastwest;whiteSpace=wrap;html=1;" vertex="1" parent="bMqEkU54IpqbucLzSi6T-76">
          <mxGeometry y="119" width="210" height="26" as="geometry" />
        </mxCell>
        <mxCell id="bMqEkU54IpqbucLzSi6T-81" value="&lt;div&gt;+btnDownArrow: button&lt;/div&gt;" style="text;strokeColor=none;fillColor=none;align=left;verticalAlign=top;spacingLeft=4;spacingRight=4;overflow=hidden;rotatable=0;points=[[0,0.5],[1,0.5]];portConstraint=eastwest;whiteSpace=wrap;html=1;" vertex="1" parent="bMqEkU54IpqbucLzSi6T-76">
          <mxGeometry y="145" width="210" height="26" as="geometry" />
        </mxCell>
        <mxCell id="bMqEkU54IpqbucLzSi6T-82" value="&lt;div&gt;+lblRiddleTitle1: label&lt;/div&gt;" style="text;strokeColor=none;fillColor=none;align=left;verticalAlign=top;spacingLeft=4;spacingRight=4;overflow=hidden;rotatable=0;points=[[0,0.5],[1,0.5]];portConstraint=eastwest;whiteSpace=wrap;html=1;" vertex="1" parent="bMqEkU54IpqbucLzSi6T-76">
          <mxGeometry y="171" width="210" height="26" as="geometry" />
        </mxCell>
        <mxCell id="bMqEkU54IpqbucLzSi6T-83" value="&lt;div&gt;+lblRiddleTitle2: label&lt;/div&gt;" style="text;strokeColor=none;fillColor=none;align=left;verticalAlign=top;spacingLeft=4;spacingRight=4;overflow=hidden;rotatable=0;points=[[0,0.5],[1,0.5]];portConstraint=eastwest;whiteSpace=wrap;html=1;" vertex="1" parent="bMqEkU54IpqbucLzSi6T-76">
          <mxGeometry y="197" width="210" height="26" as="geometry" />
        </mxCell>
        <mxCell id="bMqEkU54IpqbucLzSi6T-84" value="&lt;div&gt;+lblRiddleTitle3: label&lt;/div&gt;" style="text;strokeColor=none;fillColor=none;align=left;verticalAlign=top;spacingLeft=4;spacingRight=4;overflow=hidden;rotatable=0;points=[[0,0.5],[1,0.5]];portConstraint=eastwest;whiteSpace=wrap;html=1;" vertex="1" parent="bMqEkU54IpqbucLzSi6T-76">
          <mxGeometry y="223" width="210" height="26" as="geometry" />
        </mxCell>
        <mxCell id="bMqEkU54IpqbucLzSi6T-85" value="&lt;div&gt;+txtRiddleContent1: text&lt;/div&gt;" style="text;strokeColor=none;fillColor=none;align=left;verticalAlign=top;spacingLeft=4;spacingRight=4;overflow=hidden;rotatable=0;points=[[0,0.5],[1,0.5]];portConstraint=eastwest;whiteSpace=wrap;html=1;" vertex="1" parent="bMqEkU54IpqbucLzSi6T-76">
          <mxGeometry y="249" width="210" height="26" as="geometry" />
        </mxCell>
        <mxCell id="bMqEkU54IpqbucLzSi6T-86" value="&lt;div&gt;+txtRiddleContent2: text&lt;/div&gt;" style="text;strokeColor=none;fillColor=none;align=left;verticalAlign=top;spacingLeft=4;spacingRight=4;overflow=hidden;rotatable=0;points=[[0,0.5],[1,0.5]];portConstraint=eastwest;whiteSpace=wrap;html=1;" vertex="1" parent="bMqEkU54IpqbucLzSi6T-76">
          <mxGeometry y="275" width="210" height="26" as="geometry" />
        </mxCell>
        <mxCell id="bMqEkU54IpqbucLzSi6T-87" value="&lt;div&gt;+txtRiddleContent3: text&lt;/div&gt;" style="text;strokeColor=none;fillColor=none;align=left;verticalAlign=top;spacingLeft=4;spacingRight=4;overflow=hidden;rotatable=0;points=[[0,0.5],[1,0.5]];portConstraint=eastwest;whiteSpace=wrap;html=1;" vertex="1" parent="bMqEkU54IpqbucLzSi6T-76">
          <mxGeometry y="301" width="210" height="26" as="geometry" />
        </mxCell>
        <mxCell id="bMqEkU54IpqbucLzSi6T-88" value="&lt;div&gt;+btnExpand: button&lt;/div&gt;" style="text;strokeColor=none;fillColor=none;align=left;verticalAlign=top;spacingLeft=4;spacingRight=4;overflow=hidden;rotatable=0;points=[[0,0.5],[1,0.5]];portConstraint=eastwest;whiteSpace=wrap;html=1;" vertex="1" parent="bMqEkU54IpqbucLzSi6T-76">
          <mxGeometry y="327" width="210" height="26" as="geometry" />
        </mxCell>
        <mxCell id="bMqEkU54IpqbucLzSi6T-89" value="" style="line;strokeWidth=1;fillColor=none;align=left;verticalAlign=middle;spacingTop=-1;spacingLeft=3;spacingRight=3;rotatable=0;labelPosition=right;points=[];portConstraint=eastwest;strokeColor=inherit;" vertex="1" parent="bMqEkU54IpqbucLzSi6T-76">
          <mxGeometry y="353" width="210" height="8" as="geometry" />
        </mxCell>
        <mxCell id="bMqEkU54IpqbucLzSi6T-90" value="+btnReturnHomePress(): void" style="text;strokeColor=none;fillColor=none;align=left;verticalAlign=top;spacingLeft=4;spacingRight=4;overflow=hidden;rotatable=0;points=[[0,0.5],[1,0.5]];portConstraint=eastwest;whiteSpace=wrap;html=1;" vertex="1" parent="bMqEkU54IpqbucLzSi6T-76">
          <mxGeometry y="361" width="210" height="26" as="geometry" />
        </mxCell>
        <mxCell id="bMqEkU54IpqbucLzSi6T-91" value="+btnLogoutPress(): void" style="text;strokeColor=none;fillColor=none;align=left;verticalAlign=top;spacingLeft=4;spacingRight=4;overflow=hidden;rotatable=0;points=[[0,0.5],[1,0.5]];portConstraint=eastwest;whiteSpace=wrap;html=1;" vertex="1" parent="bMqEkU54IpqbucLzSi6T-76">
          <mxGeometry y="387" width="210" height="26" as="geometry" />
        </mxCell>
        <mxCell id="bMqEkU54IpqbucLzSi6T-92" value="+btnSettingsPress(): void" style="text;strokeColor=none;fillColor=none;align=left;verticalAlign=top;spacingLeft=4;spacingRight=4;overflow=hidden;rotatable=0;points=[[0,0.5],[1,0.5]];portConstraint=eastwest;whiteSpace=wrap;html=1;" vertex="1" parent="bMqEkU54IpqbucLzSi6T-76">
          <mxGeometry y="413" width="210" height="26" as="geometry" />
        </mxCell>
        <mxCell id="bMqEkU54IpqbucLzSi6T-93" value="+btnSubmitPress(): void" style="text;strokeColor=none;fillColor=none;align=left;verticalAlign=top;spacingLeft=4;spacingRight=4;overflow=hidden;rotatable=0;points=[[0,0.5],[1,0.5]];portConstraint=eastwest;whiteSpace=wrap;html=1;" vertex="1" parent="bMqEkU54IpqbucLzSi6T-76">
          <mxGeometry y="439" width="210" height="26" as="geometry" />
        </mxCell>
        <mxCell id="bMqEkU54IpqbucLzSi6T-94" value="+btnDownArrowPress(): void" style="text;strokeColor=none;fillColor=none;align=left;verticalAlign=top;spacingLeft=4;spacingRight=4;overflow=hidden;rotatable=0;points=[[0,0.5],[1,0.5]];portConstraint=eastwest;whiteSpace=wrap;html=1;" vertex="1" parent="bMqEkU54IpqbucLzSi6T-76">
          <mxGeometry y="465" width="210" height="26" as="geometry" />
        </mxCell>
        <mxCell id="bMqEkU54IpqbucLzSi6T-95" value="+btnExpandPress(): void" style="text;strokeColor=none;fillColor=none;align=left;verticalAlign=top;spacingLeft=4;spacingRight=4;overflow=hidden;rotatable=0;points=[[0,0.5],[1,0.5]];portConstraint=eastwest;whiteSpace=wrap;html=1;" vertex="1" parent="bMqEkU54IpqbucLzSi6T-76">
          <mxGeometry y="491" width="210" height="26" as="geometry" />
        </mxCell>
        <mxCell id="bMqEkU54IpqbucLzSi6T-96" value="" style="endArrow=open;endFill=1;endSize=12;html=1;rounded=0;exitX=1;exitY=0.5;exitDx=0;exitDy=0;entryX=0;entryY=0.5;entryDx=0;entryDy=0;" edge="1" parent="1" source="bMqEkU54IpqbucLzSi6T-72" target="bMqEkU54IpqbucLzSi6T-7">
          <mxGeometry width="160" relative="1" as="geometry">
            <mxPoint x="-6090" y="-2350" as="sourcePoint" />
            <mxPoint x="-6011" y="-2178" as="targetPoint" />
          </mxGeometry>
        </mxCell>
        <mxCell id="bMqEkU54IpqbucLzSi6T-97" value="" style="endArrow=open;endFill=1;endSize=12;html=1;rounded=0;exitX=1;exitY=0.5;exitDx=0;exitDy=0;entryX=0;entryY=0.5;entryDx=0;entryDy=0;" edge="1" parent="1" source="bMqEkU54IpqbucLzSi6T-85" target="bMqEkU54IpqbucLzSi6T-7">
          <mxGeometry width="160" relative="1" as="geometry">
            <mxPoint x="-6080" y="-2340" as="sourcePoint" />
            <mxPoint x="-6001" y="-2168" as="targetPoint" />
          </mxGeometry>
        </mxCell>
        <mxCell id="bMqEkU54IpqbucLzSi6T-98" value="" style="endArrow=open;endFill=1;endSize=12;html=1;rounded=0;exitX=1;exitY=0.5;exitDx=0;exitDy=0;entryX=0;entryY=0.5;entryDx=0;entryDy=0;" edge="1" parent="1" source="bMqEkU54IpqbucLzSi6T-60" target="bMqEkU54IpqbucLzSi6T-7">
          <mxGeometry width="160" relative="1" as="geometry">
            <mxPoint x="-6070" y="-2330" as="sourcePoint" />
            <mxPoint x="-6220" y="-1800" as="targetPoint" />
          </mxGeometry>
        </mxCell>
        <mxCell id="bMqEkU54IpqbucLzSi6T-99" value="" style="endArrow=open;endFill=1;endSize=12;html=1;rounded=0;exitX=1;exitY=0.5;exitDx=0;exitDy=0;entryX=0;entryY=0.5;entryDx=0;entryDy=0;" edge="1" parent="1" source="bMqEkU54IpqbucLzSi6T-29" target="bMqEkU54IpqbucLzSi6T-7">
          <mxGeometry width="160" relative="1" as="geometry">
            <mxPoint x="-6050" y="-2310" as="sourcePoint" />
            <mxPoint x="-6180" y="-1900" as="targetPoint" />
          </mxGeometry>
        </mxCell>
        <mxCell id="bMqEkU54IpqbucLzSi6T-100" value="&amp;lt;&amp;lt;Entity&amp;gt;&amp;gt;&lt;div&gt;Riddle&lt;/div&gt;" style="swimlane;fontStyle=1;align=center;verticalAlign=top;childLayout=stackLayout;horizontal=1;startSize=41;horizontalStack=0;resizeParent=1;resizeParentMax=0;resizeLast=0;collapsible=1;marginBottom=0;whiteSpace=wrap;html=1;fillColor=#9AC7BF;" vertex="1" collapsed="1" parent="1">
          <mxGeometry x="-6205" y="-1830.5" width="100" height="41" as="geometry">
            <mxRectangle x="-6091.5" y="-1320" width="314.5" height="463" as="alternateBounds" />
          </mxGeometry>
        </mxCell>
        <mxCell id="bMqEkU54IpqbucLzSi6T-101" value="+correct_answer: String&lt;div&gt;&lt;br&gt;&lt;/div&gt;" style="text;strokeColor=none;fillColor=none;align=left;verticalAlign=top;spacingLeft=4;spacingRight=4;overflow=hidden;rotatable=0;points=[[0,0.5],[1,0.5]];portConstraint=eastwest;whiteSpace=wrap;html=1;" vertex="1" parent="bMqEkU54IpqbucLzSi6T-100">
          <mxGeometry y="41" width="314.5" height="24" as="geometry" />
        </mxCell>
        <mxCell id="bMqEkU54IpqbucLzSi6T-102" value="+riddle_type: RiddleType&amp;nbsp;&lt;div&gt;&lt;br&gt;&lt;/div&gt;&lt;div&gt;&lt;br&gt;&lt;/div&gt;" style="text;strokeColor=none;fillColor=none;align=left;verticalAlign=top;spacingLeft=4;spacingRight=4;overflow=hidden;rotatable=0;points=[[0,0.5],[1,0.5]];portConstraint=eastwest;whiteSpace=wrap;html=1;" vertex="1" parent="bMqEkU54IpqbucLzSi6T-100">
          <mxGeometry y="65" width="314.5" height="26" as="geometry" />
        </mxCell>
        <mxCell id="bMqEkU54IpqbucLzSi6T-103" value="+answered : boolean&lt;div&gt;&lt;br&gt;&lt;/div&gt;&lt;div&gt;&lt;br&gt;&lt;/div&gt;" style="text;strokeColor=none;fillColor=none;align=left;verticalAlign=top;spacingLeft=4;spacingRight=4;overflow=hidden;rotatable=0;points=[[0,0.5],[1,0.5]];portConstraint=eastwest;whiteSpace=wrap;html=1;" vertex="1" parent="bMqEkU54IpqbucLzSi6T-100">
          <mxGeometry y="91" width="314.5" height="26" as="geometry" />
        </mxCell>
        <mxCell id="bMqEkU54IpqbucLzSi6T-104" value="+riddle_content : String&lt;div&gt;&lt;br&gt;&lt;/div&gt;" style="text;strokeColor=none;fillColor=none;align=left;verticalAlign=top;spacingLeft=4;spacingRight=4;overflow=hidden;rotatable=0;points=[[0,0.5],[1,0.5]];portConstraint=eastwest;whiteSpace=wrap;html=1;" vertex="1" parent="bMqEkU54IpqbucLzSi6T-100">
          <mxGeometry y="117" width="314.5" height="26" as="geometry" />
        </mxCell>
        <mxCell id="bMqEkU54IpqbucLzSi6T-105" value="+id: Integer&lt;div&gt;&lt;br&gt;&lt;/div&gt;" style="text;strokeColor=none;fillColor=none;align=left;verticalAlign=top;spacingLeft=4;spacingRight=4;overflow=hidden;rotatable=0;points=[[0,0.5],[1,0.5]];portConstraint=eastwest;whiteSpace=wrap;html=1;" vertex="1" parent="bMqEkU54IpqbucLzSi6T-100">
          <mxGeometry y="143" width="314.5" height="26" as="geometry" />
        </mxCell>
        <mxCell id="bMqEkU54IpqbucLzSi6T-106" value="" style="line;strokeWidth=1;fillColor=none;align=left;verticalAlign=middle;spacingTop=-1;spacingLeft=3;spacingRight=3;rotatable=0;labelPosition=right;points=[];portConstraint=eastwest;strokeColor=inherit;" vertex="1" parent="bMqEkU54IpqbucLzSi6T-100">
          <mxGeometry y="169" width="314.5" height="8" as="geometry" />
        </mxCell>
        <mxCell id="bMqEkU54IpqbucLzSi6T-107" value="+Riddle(): void" style="text;strokeColor=none;fillColor=none;align=left;verticalAlign=top;spacingLeft=4;spacingRight=4;overflow=hidden;rotatable=0;points=[[0,0.5],[1,0.5]];portConstraint=eastwest;whiteSpace=wrap;html=1;" vertex="1" parent="bMqEkU54IpqbucLzSi6T-100">
          <mxGeometry y="177" width="314.5" height="26" as="geometry" />
        </mxCell>
        <mxCell id="bMqEkU54IpqbucLzSi6T-108" value="+getCorrectAnswer(): String" style="text;strokeColor=none;fillColor=none;align=left;verticalAlign=top;spacingLeft=4;spacingRight=4;overflow=hidden;rotatable=0;points=[[0,0.5],[1,0.5]];portConstraint=eastwest;whiteSpace=wrap;html=1;" vertex="1" parent="bMqEkU54IpqbucLzSi6T-100">
          <mxGeometry y="203" width="314.5" height="26" as="geometry" />
        </mxCell>
        <mxCell id="bMqEkU54IpqbucLzSi6T-109" value="+setCorrectAnswer(correctAnswer: String): void" style="text;strokeColor=none;fillColor=none;align=left;verticalAlign=top;spacingLeft=4;spacingRight=4;overflow=hidden;rotatable=0;points=[[0,0.5],[1,0.5]];portConstraint=eastwest;whiteSpace=wrap;html=1;" vertex="1" parent="bMqEkU54IpqbucLzSi6T-100">
          <mxGeometry y="229" width="314.5" height="26" as="geometry" />
        </mxCell>
        <mxCell id="bMqEkU54IpqbucLzSi6T-110" value="+getRiddleType(): RiddleType&amp;nbsp;&lt;div&gt;&lt;br&gt;&lt;/div&gt;&lt;div&gt;&lt;br&gt;&lt;/div&gt;)" style="text;strokeColor=none;fillColor=none;align=left;verticalAlign=top;spacingLeft=4;spacingRight=4;overflow=hidden;rotatable=0;points=[[0,0.5],[1,0.5]];portConstraint=eastwest;whiteSpace=wrap;html=1;" vertex="1" parent="bMqEkU54IpqbucLzSi6T-100">
          <mxGeometry y="255" width="314.5" height="26" as="geometry" />
        </mxCell>
        <mxCell id="bMqEkU54IpqbucLzSi6T-111" value="+setRiddleType(riddleType: RiddleType): void&amp;nbsp;&lt;div&gt;&lt;br&gt;&lt;/div&gt;&lt;div&gt;&lt;br&gt;&lt;/div&gt;)" style="text;strokeColor=none;fillColor=none;align=left;verticalAlign=top;spacingLeft=4;spacingRight=4;overflow=hidden;rotatable=0;points=[[0,0.5],[1,0.5]];portConstraint=eastwest;whiteSpace=wrap;html=1;" vertex="1" parent="bMqEkU54IpqbucLzSi6T-100">
          <mxGeometry y="281" width="314.5" height="26" as="geometry" />
        </mxCell>
        <mxCell id="bMqEkU54IpqbucLzSi6T-112" value="+getAnswered(): Boolean" style="text;strokeColor=none;fillColor=none;align=left;verticalAlign=top;spacingLeft=4;spacingRight=4;overflow=hidden;rotatable=0;points=[[0,0.5],[1,0.5]];portConstraint=eastwest;whiteSpace=wrap;html=1;" vertex="1" parent="bMqEkU54IpqbucLzSi6T-100">
          <mxGeometry y="307" width="314.5" height="26" as="geometry" />
        </mxCell>
        <mxCell id="bMqEkU54IpqbucLzSi6T-113" value="+setAnswered(answered: Boolean): void" style="text;strokeColor=none;fillColor=none;align=left;verticalAlign=top;spacingLeft=4;spacingRight=4;overflow=hidden;rotatable=0;points=[[0,0.5],[1,0.5]];portConstraint=eastwest;whiteSpace=wrap;html=1;" vertex="1" parent="bMqEkU54IpqbucLzSi6T-100">
          <mxGeometry y="333" width="314.5" height="26" as="geometry" />
        </mxCell>
        <mxCell id="bMqEkU54IpqbucLzSi6T-114" value="+getRiddleContent(): String" style="text;strokeColor=none;fillColor=none;align=left;verticalAlign=top;spacingLeft=4;spacingRight=4;overflow=hidden;rotatable=0;points=[[0,0.5],[1,0.5]];portConstraint=eastwest;whiteSpace=wrap;html=1;" vertex="1" parent="bMqEkU54IpqbucLzSi6T-100">
          <mxGeometry y="359" width="314.5" height="26" as="geometry" />
        </mxCell>
        <mxCell id="bMqEkU54IpqbucLzSi6T-115" value="+setRiddleContent(riddleContent: String): void" style="text;strokeColor=none;fillColor=none;align=left;verticalAlign=top;spacingLeft=4;spacingRight=4;overflow=hidden;rotatable=0;points=[[0,0.5],[1,0.5]];portConstraint=eastwest;whiteSpace=wrap;html=1;" vertex="1" parent="bMqEkU54IpqbucLzSi6T-100">
          <mxGeometry y="385" width="314.5" height="26" as="geometry" />
        </mxCell>
        <mxCell id="bMqEkU54IpqbucLzSi6T-116" value="+getId(): Integer" style="text;strokeColor=none;fillColor=none;align=left;verticalAlign=top;spacingLeft=4;spacingRight=4;overflow=hidden;rotatable=0;points=[[0,0.5],[1,0.5]];portConstraint=eastwest;whiteSpace=wrap;html=1;" vertex="1" parent="bMqEkU54IpqbucLzSi6T-100">
          <mxGeometry y="411" width="314.5" height="26" as="geometry" />
        </mxCell>
        <mxCell id="bMqEkU54IpqbucLzSi6T-117" value="+setId(id: Integer): void" style="text;strokeColor=none;fillColor=none;align=left;verticalAlign=top;spacingLeft=4;spacingRight=4;overflow=hidden;rotatable=0;points=[[0,0.5],[1,0.5]];portConstraint=eastwest;whiteSpace=wrap;html=1;" vertex="1" parent="bMqEkU54IpqbucLzSi6T-100">
          <mxGeometry y="437" width="314.5" height="26" as="geometry" />
        </mxCell>
        <mxCell id="bMqEkU54IpqbucLzSi6T-118" value="&amp;lt;&amp;lt;enumeration&amp;gt;&amp;gt;&lt;div&gt;RiddleType&lt;/div&gt;" style="swimlane;fontStyle=1;align=center;verticalAlign=top;childLayout=stackLayout;horizontal=1;startSize=42;horizontalStack=0;resizeParent=1;resizeParentMax=0;resizeLast=0;collapsible=1;marginBottom=0;whiteSpace=wrap;html=1;fillColor=#A9C4EB;" vertex="1" collapsed="1" parent="1">
          <mxGeometry x="-6310" y="-1788" width="100" height="42" as="geometry">
            <mxRectangle x="-6279" y="-1010" width="129" height="136" as="alternateBounds" />
          </mxGeometry>
        </mxCell>
        <mxCell id="bMqEkU54IpqbucLzSi6T-119" value="DEFAULT&lt;div&gt;&lt;br&gt;&lt;/div&gt;" style="text;strokeColor=none;fillColor=none;align=left;verticalAlign=top;spacingLeft=4;spacingRight=4;overflow=hidden;rotatable=0;points=[[0,0.5],[1,0.5]];portConstraint=eastwest;whiteSpace=wrap;html=1;" vertex="1" parent="bMqEkU54IpqbucLzSi6T-118">
          <mxGeometry y="42" width="129" height="31" as="geometry" />
        </mxCell>
        <mxCell id="bMqEkU54IpqbucLzSi6T-120" value="CUSTOM" style="text;strokeColor=none;fillColor=none;align=left;verticalAlign=top;spacingLeft=4;spacingRight=4;overflow=hidden;rotatable=0;points=[[0,0.5],[1,0.5]];portConstraint=eastwest;whiteSpace=wrap;html=1;" vertex="1" parent="bMqEkU54IpqbucLzSi6T-118">
          <mxGeometry y="73" width="129" height="28" as="geometry" />
        </mxCell>
        <mxCell id="bMqEkU54IpqbucLzSi6T-121" value="&lt;div&gt;DATABASE&lt;/div&gt;" style="text;strokeColor=none;fillColor=none;align=left;verticalAlign=top;spacingLeft=4;spacingRight=4;overflow=hidden;rotatable=0;points=[[0,0.5],[1,0.5]];portConstraint=eastwest;whiteSpace=wrap;html=1;" vertex="1" parent="bMqEkU54IpqbucLzSi6T-118">
          <mxGeometry y="101" width="129" height="27" as="geometry" />
        </mxCell>
        <mxCell id="bMqEkU54IpqbucLzSi6T-122" value="" style="line;strokeWidth=1;fillColor=none;align=left;verticalAlign=middle;spacingTop=-1;spacingLeft=3;spacingRight=3;rotatable=0;labelPosition=right;points=[];portConstraint=eastwest;strokeColor=inherit;" vertex="1" parent="bMqEkU54IpqbucLzSi6T-118">
          <mxGeometry y="128" width="129" height="8" as="geometry" />
        </mxCell>
        <mxCell id="bMqEkU54IpqbucLzSi6T-123" value="" style="endArrow=open;endFill=1;endSize=12;html=1;rounded=0;entryX=0.5;entryY=0;entryDx=0;entryDy=0;exitX=0.5;exitY=1;exitDx=0;exitDy=0;" edge="1" parent="1" source="bMqEkU54IpqbucLzSi6T-5" target="bMqEkU54IpqbucLzSi6T-130">
          <mxGeometry width="160" relative="1" as="geometry">
            <mxPoint x="-6057" y="-1540" as="sourcePoint" />
            <mxPoint x="-5820" y="-1222" as="targetPoint" />
            <Array as="points" />
          </mxGeometry>
        </mxCell>
        <mxCell id="bMqEkU54IpqbucLzSi6T-124" value="" style="endArrow=open;endFill=1;endSize=12;html=1;rounded=0;entryX=0.5;entryY=0;entryDx=0;entryDy=0;exitX=0.5;exitY=1;exitDx=0;exitDy=0;" edge="1" parent="1" source="bMqEkU54IpqbucLzSi6T-130" target="bMqEkU54IpqbucLzSi6T-133">
          <mxGeometry width="160" relative="1" as="geometry">
            <mxPoint x="-5740" y="-1636" as="sourcePoint" />
            <mxPoint x="-5740" y="-1568" as="targetPoint" />
            <Array as="points" />
          </mxGeometry>
        </mxCell>
        <mxCell id="bMqEkU54IpqbucLzSi6T-125" value="" style="endArrow=open;endFill=1;endSize=12;html=1;rounded=0;entryX=0.5;entryY=0;entryDx=0;entryDy=0;exitX=0.5;exitY=1;exitDx=0;exitDy=0;" edge="1" parent="1" source="bMqEkU54IpqbucLzSi6T-158" target="bMqEkU54IpqbucLzSi6T-5">
          <mxGeometry width="160" relative="1" as="geometry">
            <mxPoint x="-5730" y="-1626" as="sourcePoint" />
            <mxPoint x="-5730" y="-1558" as="targetPoint" />
            <Array as="points" />
          </mxGeometry>
        </mxCell>
        <mxCell id="bMqEkU54IpqbucLzSi6T-126" value="" style="endArrow=open;endFill=1;endSize=12;html=1;rounded=0;entryX=0.5;entryY=0;entryDx=0;entryDy=0;exitX=0.5;exitY=1;exitDx=0;exitDy=0;" edge="1" parent="1" source="bMqEkU54IpqbucLzSi6T-148" target="bMqEkU54IpqbucLzSi6T-5">
          <mxGeometry width="160" relative="1" as="geometry">
            <mxPoint x="-5720" y="-1616" as="sourcePoint" />
            <mxPoint x="-5720" y="-1548" as="targetPoint" />
            <Array as="points" />
          </mxGeometry>
        </mxCell>
        <mxCell id="bMqEkU54IpqbucLzSi6T-127" value="" style="endArrow=open;endFill=1;endSize=12;html=1;rounded=0;entryX=1;entryY=0.5;entryDx=0;entryDy=0;exitX=0;exitY=0.5;exitDx=0;exitDy=0;" edge="1" parent="1" source="bMqEkU54IpqbucLzSi6T-5" target="bMqEkU54IpqbucLzSi6T-166">
          <mxGeometry width="160" relative="1" as="geometry">
            <mxPoint x="-5710" y="-1606" as="sourcePoint" />
            <mxPoint x="-5710" y="-1538" as="targetPoint" />
            <Array as="points" />
          </mxGeometry>
        </mxCell>
        <mxCell id="bMqEkU54IpqbucLzSi6T-128" value="" style="endArrow=open;endFill=1;endSize=12;html=1;rounded=0;entryX=0.5;entryY=0;entryDx=0;entryDy=0;exitX=0.5;exitY=1;exitDx=0;exitDy=0;" edge="1" parent="1" source="bMqEkU54IpqbucLzSi6T-5" target="bMqEkU54IpqbucLzSi6T-100">
          <mxGeometry width="160" relative="1" as="geometry">
            <mxPoint x="-6155" y="-1910" as="sourcePoint" />
            <mxPoint x="-5770" y="-1172" as="targetPoint" />
            <Array as="points" />
          </mxGeometry>
        </mxCell>
        <mxCell id="bMqEkU54IpqbucLzSi6T-129" value="" style="endArrow=none;html=1;rounded=0;entryX=0;entryY=0.5;entryDx=0;entryDy=0;exitX=0.5;exitY=0;exitDx=0;exitDy=0;" edge="1" parent="1" source="bMqEkU54IpqbucLzSi6T-118" target="bMqEkU54IpqbucLzSi6T-100">
          <mxGeometry relative="1" as="geometry">
            <mxPoint x="-6940" y="-883" as="sourcePoint" />
            <mxPoint x="-6838" y="-972" as="targetPoint" />
            <Array as="points" />
          </mxGeometry>
        </mxCell>
        <mxCell id="bMqEkU54IpqbucLzSi6T-130" value="&amp;lt;&amp;lt;Controller&amp;gt;&amp;gt;&lt;div&gt;AnswerController&lt;/div&gt;" style="swimlane;fontStyle=1;align=center;verticalAlign=top;childLayout=stackLayout;horizontal=1;startSize=39;horizontalStack=0;resizeParent=1;resizeParentMax=0;resizeLast=0;collapsible=1;marginBottom=0;whiteSpace=wrap;html=1;fillColor=#FF6666;" vertex="1" collapsed="1" parent="1">
          <mxGeometry x="-5903.5" y="-1830" width="130" height="40" as="geometry">
            <mxRectangle x="-5777" y="-1440" width="310" height="73" as="alternateBounds" />
          </mxGeometry>
        </mxCell>
        <mxCell id="bMqEkU54IpqbucLzSi6T-131" value="" style="line;strokeWidth=1;fillColor=none;align=left;verticalAlign=middle;spacingTop=-1;spacingLeft=3;spacingRight=3;rotatable=0;labelPosition=right;points=[];portConstraint=eastwest;strokeColor=inherit;" vertex="1" parent="bMqEkU54IpqbucLzSi6T-130">
          <mxGeometry y="39" width="310" height="8" as="geometry" />
        </mxCell>
        <mxCell id="bMqEkU54IpqbucLzSi6T-132" value="+check_answer(solver: SolverAccount): boolean" style="text;strokeColor=none;fillColor=none;align=left;verticalAlign=top;spacingLeft=4;spacingRight=4;overflow=hidden;rotatable=0;points=[[0,0.5],[1,0.5]];portConstraint=eastwest;whiteSpace=wrap;html=1;" vertex="1" parent="bMqEkU54IpqbucLzSi6T-130">
          <mxGeometry y="47" width="310" height="26" as="geometry" />
        </mxCell>
        <mxCell id="bMqEkU54IpqbucLzSi6T-133" value="&amp;lt;&amp;lt;Entity&amp;gt;&amp;gt;&lt;div&gt;Answer&lt;/div&gt;" style="swimlane;fontStyle=1;align=center;verticalAlign=top;childLayout=stackLayout;horizontal=1;startSize=46;horizontalStack=0;resizeParent=1;resizeParentMax=0;resizeLast=0;collapsible=1;marginBottom=0;whiteSpace=wrap;html=1;fillColor=#9AC7BF;" vertex="1" collapsed="1" parent="1">
          <mxGeometry x="-5885" y="-1760" width="93" height="46" as="geometry">
            <mxRectangle x="-5760" y="-1320" width="250" height="392" as="alternateBounds" />
          </mxGeometry>
        </mxCell>
        <mxCell id="bMqEkU54IpqbucLzSi6T-134" value="+solver: SolverAccount" style="text;strokeColor=none;fillColor=none;align=left;verticalAlign=top;spacingLeft=4;spacingRight=4;overflow=hidden;rotatable=0;points=[[0,0.5],[1,0.5]];portConstraint=eastwest;whiteSpace=wrap;html=1;" vertex="1" parent="bMqEkU54IpqbucLzSi6T-133">
          <mxGeometry y="46" width="250" height="26" as="geometry" />
        </mxCell>
        <mxCell id="bMqEkU54IpqbucLzSi6T-135" value="+riddle: Riddle" style="text;strokeColor=none;fillColor=none;align=left;verticalAlign=top;spacingLeft=4;spacingRight=4;overflow=hidden;rotatable=0;points=[[0,0.5],[1,0.5]];portConstraint=eastwest;whiteSpace=wrap;html=1;" vertex="1" parent="bMqEkU54IpqbucLzSi6T-133">
          <mxGeometry y="72" width="250" height="26" as="geometry" />
        </mxCell>
        <mxCell id="bMqEkU54IpqbucLzSi6T-136" value="+answerText: String" style="text;strokeColor=none;fillColor=none;align=left;verticalAlign=top;spacingLeft=4;spacingRight=4;overflow=hidden;rotatable=0;points=[[0,0.5],[1,0.5]];portConstraint=eastwest;whiteSpace=wrap;html=1;" vertex="1" parent="bMqEkU54IpqbucLzSi6T-133">
          <mxGeometry y="98" width="250" height="26" as="geometry" />
        </mxCell>
        <mxCell id="bMqEkU54IpqbucLzSi6T-137" value="+isCorrect: Boolean" style="text;strokeColor=none;fillColor=none;align=left;verticalAlign=top;spacingLeft=4;spacingRight=4;overflow=hidden;rotatable=0;points=[[0,0.5],[1,0.5]];portConstraint=eastwest;whiteSpace=wrap;html=1;" vertex="1" parent="bMqEkU54IpqbucLzSi6T-133">
          <mxGeometry y="124" width="250" height="26" as="geometry" />
        </mxCell>
        <mxCell id="bMqEkU54IpqbucLzSi6T-138" value="" style="line;strokeWidth=1;fillColor=none;align=left;verticalAlign=middle;spacingTop=-1;spacingLeft=3;spacingRight=3;rotatable=0;labelPosition=right;points=[];portConstraint=eastwest;strokeColor=inherit;" vertex="1" parent="bMqEkU54IpqbucLzSi6T-133">
          <mxGeometry y="150" width="250" height="8" as="geometry" />
        </mxCell>
        <mxCell id="bMqEkU54IpqbucLzSi6T-139" value="+Answer(): void" style="text;strokeColor=none;fillColor=none;align=left;verticalAlign=top;spacingLeft=4;spacingRight=4;overflow=hidden;rotatable=0;points=[[0,0.5],[1,0.5]];portConstraint=eastwest;whiteSpace=wrap;html=1;" vertex="1" parent="bMqEkU54IpqbucLzSi6T-133">
          <mxGeometry y="158" width="250" height="26" as="geometry" />
        </mxCell>
        <mxCell id="bMqEkU54IpqbucLzSi6T-140" value="+getSolver(): SolverAccount" style="text;strokeColor=none;fillColor=none;align=left;verticalAlign=top;spacingLeft=4;spacingRight=4;overflow=hidden;rotatable=0;points=[[0,0.5],[1,0.5]];portConstraint=eastwest;whiteSpace=wrap;html=1;" vertex="1" parent="bMqEkU54IpqbucLzSi6T-133">
          <mxGeometry y="184" width="250" height="26" as="geometry" />
        </mxCell>
        <mxCell id="bMqEkU54IpqbucLzSi6T-141" value="+setSolver(solver: SolverAccount): void" style="text;strokeColor=none;fillColor=none;align=left;verticalAlign=top;spacingLeft=4;spacingRight=4;overflow=hidden;rotatable=0;points=[[0,0.5],[1,0.5]];portConstraint=eastwest;whiteSpace=wrap;html=1;" vertex="1" parent="bMqEkU54IpqbucLzSi6T-133">
          <mxGeometry y="210" width="250" height="26" as="geometry" />
        </mxCell>
        <mxCell id="bMqEkU54IpqbucLzSi6T-142" value="+getRiddle(): Riddle" style="text;strokeColor=none;fillColor=none;align=left;verticalAlign=top;spacingLeft=4;spacingRight=4;overflow=hidden;rotatable=0;points=[[0,0.5],[1,0.5]];portConstraint=eastwest;whiteSpace=wrap;html=1;" vertex="1" parent="bMqEkU54IpqbucLzSi6T-133">
          <mxGeometry y="236" width="250" height="26" as="geometry" />
        </mxCell>
        <mxCell id="bMqEkU54IpqbucLzSi6T-143" value="+setRiddle(riddle: Riddle ):void" style="text;strokeColor=none;fillColor=none;align=left;verticalAlign=top;spacingLeft=4;spacingRight=4;overflow=hidden;rotatable=0;points=[[0,0.5],[1,0.5]];portConstraint=eastwest;whiteSpace=wrap;html=1;" vertex="1" parent="bMqEkU54IpqbucLzSi6T-133">
          <mxGeometry y="262" width="250" height="26" as="geometry" />
        </mxCell>
        <mxCell id="bMqEkU54IpqbucLzSi6T-144" value="+getAnswerText(): String" style="text;strokeColor=none;fillColor=none;align=left;verticalAlign=top;spacingLeft=4;spacingRight=4;overflow=hidden;rotatable=0;points=[[0,0.5],[1,0.5]];portConstraint=eastwest;whiteSpace=wrap;html=1;" vertex="1" parent="bMqEkU54IpqbucLzSi6T-133">
          <mxGeometry y="288" width="250" height="26" as="geometry" />
        </mxCell>
        <mxCell id="bMqEkU54IpqbucLzSi6T-145" value="+setAnswerText(answerText: String): void" style="text;strokeColor=none;fillColor=none;align=left;verticalAlign=top;spacingLeft=4;spacingRight=4;overflow=hidden;rotatable=0;points=[[0,0.5],[1,0.5]];portConstraint=eastwest;whiteSpace=wrap;html=1;" vertex="1" parent="bMqEkU54IpqbucLzSi6T-133">
          <mxGeometry y="314" width="250" height="26" as="geometry" />
        </mxCell>
        <mxCell id="bMqEkU54IpqbucLzSi6T-146" value="+getIsCorrect(): Boolean" style="text;strokeColor=none;fillColor=none;align=left;verticalAlign=top;spacingLeft=4;spacingRight=4;overflow=hidden;rotatable=0;points=[[0,0.5],[1,0.5]];portConstraint=eastwest;whiteSpace=wrap;html=1;" vertex="1" parent="bMqEkU54IpqbucLzSi6T-133">
          <mxGeometry y="340" width="250" height="26" as="geometry" />
        </mxCell>
        <mxCell id="bMqEkU54IpqbucLzSi6T-147" value="+setIsCorrect(isCorrect: Boolean): void" style="text;strokeColor=none;fillColor=none;align=left;verticalAlign=top;spacingLeft=4;spacingRight=4;overflow=hidden;rotatable=0;points=[[0,0.5],[1,0.5]];portConstraint=eastwest;whiteSpace=wrap;html=1;" vertex="1" parent="bMqEkU54IpqbucLzSi6T-133">
          <mxGeometry y="366" width="250" height="26" as="geometry" />
        </mxCell>
        <mxCell id="bMqEkU54IpqbucLzSi6T-148" value="&amp;lt;&amp;lt;Boundary&amp;gt;&amp;gt;&lt;div&gt;WrongAnswerPopUp&lt;/div&gt;" style="swimlane;fontStyle=1;align=center;verticalAlign=top;childLayout=stackLayout;horizontal=1;startSize=41;horizontalStack=0;resizeParent=1;resizeParentMax=0;resizeLast=0;collapsible=1;marginBottom=0;whiteSpace=wrap;html=1;fillColor=#CCCCFF;" vertex="1" collapsed="1" parent="1">
          <mxGeometry x="-6230" y="-2070" width="150" height="41" as="geometry">
            <mxRectangle x="-6080" y="-2220" width="210" height="255" as="alternateBounds" />
          </mxGeometry>
        </mxCell>
        <mxCell id="bMqEkU54IpqbucLzSi6T-149" value="&lt;div&gt;+btnReturnHome: button&lt;/div&gt;" style="text;strokeColor=none;fillColor=none;align=left;verticalAlign=top;spacingLeft=4;spacingRight=4;overflow=hidden;rotatable=0;points=[[0,0.5],[1,0.5]];portConstraint=eastwest;whiteSpace=wrap;html=1;" vertex="1" parent="bMqEkU54IpqbucLzSi6T-148">
          <mxGeometry y="41" width="210" height="24" as="geometry" />
        </mxCell>
        <mxCell id="bMqEkU54IpqbucLzSi6T-150" value="&lt;div&gt;+lblOhNo: label&lt;/div&gt;" style="text;strokeColor=none;fillColor=none;align=left;verticalAlign=top;spacingLeft=4;spacingRight=4;overflow=hidden;rotatable=0;points=[[0,0.5],[1,0.5]];portConstraint=eastwest;whiteSpace=wrap;html=1;" vertex="1" parent="bMqEkU54IpqbucLzSi6T-148">
          <mxGeometry y="65" width="210" height="26" as="geometry" />
        </mxCell>
        <mxCell id="bMqEkU54IpqbucLzSi6T-151" value="&lt;div&gt;+lblWrongAnswer: label&lt;/div&gt;" style="text;strokeColor=none;fillColor=none;align=left;verticalAlign=top;spacingLeft=4;spacingRight=4;overflow=hidden;rotatable=0;points=[[0,0.5],[1,0.5]];portConstraint=eastwest;whiteSpace=wrap;html=1;" vertex="1" parent="bMqEkU54IpqbucLzSi6T-148">
          <mxGeometry y="91" width="210" height="26" as="geometry" />
        </mxCell>
        <mxCell id="bMqEkU54IpqbucLzSi6T-152" value="&lt;div&gt;+btnTryWithoutHint: button&lt;/div&gt;" style="text;strokeColor=none;fillColor=none;align=left;verticalAlign=top;spacingLeft=4;spacingRight=4;overflow=hidden;rotatable=0;points=[[0,0.5],[1,0.5]];portConstraint=eastwest;whiteSpace=wrap;html=1;" vertex="1" parent="bMqEkU54IpqbucLzSi6T-148">
          <mxGeometry y="117" width="210" height="26" as="geometry" />
        </mxCell>
        <mxCell id="bMqEkU54IpqbucLzSi6T-153" value="&lt;div&gt;+btnTryWithHint: button&lt;/div&gt;" style="text;strokeColor=none;fillColor=none;align=left;verticalAlign=top;spacingLeft=4;spacingRight=4;overflow=hidden;rotatable=0;points=[[0,0.5],[1,0.5]];portConstraint=eastwest;whiteSpace=wrap;html=1;" vertex="1" parent="bMqEkU54IpqbucLzSi6T-148">
          <mxGeometry y="143" width="210" height="26" as="geometry" />
        </mxCell>
        <mxCell id="bMqEkU54IpqbucLzSi6T-154" value="" style="line;strokeWidth=1;fillColor=none;align=left;verticalAlign=middle;spacingTop=-1;spacingLeft=3;spacingRight=3;rotatable=0;labelPosition=right;points=[];portConstraint=eastwest;strokeColor=inherit;" vertex="1" parent="bMqEkU54IpqbucLzSi6T-148">
          <mxGeometry y="169" width="210" height="8" as="geometry" />
        </mxCell>
        <mxCell id="bMqEkU54IpqbucLzSi6T-155" value="+btnReturnHomePress(): void" style="text;strokeColor=none;fillColor=none;align=left;verticalAlign=top;spacingLeft=4;spacingRight=4;overflow=hidden;rotatable=0;points=[[0,0.5],[1,0.5]];portConstraint=eastwest;whiteSpace=wrap;html=1;" vertex="1" parent="bMqEkU54IpqbucLzSi6T-148">
          <mxGeometry y="177" width="210" height="26" as="geometry" />
        </mxCell>
        <mxCell id="bMqEkU54IpqbucLzSi6T-156" value="+btnTryWithoutHintPress(): void" style="text;strokeColor=none;fillColor=none;align=left;verticalAlign=top;spacingLeft=4;spacingRight=4;overflow=hidden;rotatable=0;points=[[0,0.5],[1,0.5]];portConstraint=eastwest;whiteSpace=wrap;html=1;" vertex="1" parent="bMqEkU54IpqbucLzSi6T-148">
          <mxGeometry y="203" width="210" height="26" as="geometry" />
        </mxCell>
        <mxCell id="bMqEkU54IpqbucLzSi6T-157" value="+btnTryWithHintPress(): void" style="text;strokeColor=none;fillColor=none;align=left;verticalAlign=top;spacingLeft=4;spacingRight=4;overflow=hidden;rotatable=0;points=[[0,0.5],[1,0.5]];portConstraint=eastwest;whiteSpace=wrap;html=1;" vertex="1" parent="bMqEkU54IpqbucLzSi6T-148">
          <mxGeometry y="229" width="210" height="26" as="geometry" />
        </mxCell>
        <mxCell id="bMqEkU54IpqbucLzSi6T-158" value="&amp;lt;&amp;lt;Boundary&amp;gt;&amp;gt;&lt;div&gt;CorrectAnswerPopUp&lt;/div&gt;" style="swimlane;fontStyle=1;align=center;verticalAlign=top;childLayout=stackLayout;horizontal=1;startSize=41;horizontalStack=0;resizeParent=1;resizeParentMax=0;resizeLast=0;collapsible=1;marginBottom=0;whiteSpace=wrap;html=1;fillColor=#CCCCFF;" vertex="1" collapsed="1" parent="1">
          <mxGeometry x="-6069" y="-2071" width="160" height="41" as="geometry">
            <mxRectangle x="-5847" y="-2330" width="210" height="203" as="alternateBounds" />
          </mxGeometry>
        </mxCell>
        <mxCell id="bMqEkU54IpqbucLzSi6T-159" value="&lt;div&gt;+btnReturnHome: button&lt;/div&gt;" style="text;strokeColor=none;fillColor=none;align=left;verticalAlign=top;spacingLeft=4;spacingRight=4;overflow=hidden;rotatable=0;points=[[0,0.5],[1,0.5]];portConstraint=eastwest;whiteSpace=wrap;html=1;" vertex="1" parent="bMqEkU54IpqbucLzSi6T-158">
          <mxGeometry y="41" width="210" height="24" as="geometry" />
        </mxCell>
        <mxCell id="bMqEkU54IpqbucLzSi6T-160" value="&lt;div&gt;+lblCongratulations: label&lt;/div&gt;" style="text;strokeColor=none;fillColor=none;align=left;verticalAlign=top;spacingLeft=4;spacingRight=4;overflow=hidden;rotatable=0;points=[[0,0.5],[1,0.5]];portConstraint=eastwest;whiteSpace=wrap;html=1;" vertex="1" parent="bMqEkU54IpqbucLzSi6T-158">
          <mxGeometry y="65" width="210" height="26" as="geometry" />
        </mxCell>
        <mxCell id="bMqEkU54IpqbucLzSi6T-161" value="&lt;div&gt;+lblYouSolvedRiddle: label&lt;/div&gt;" style="text;strokeColor=none;fillColor=none;align=left;verticalAlign=top;spacingLeft=4;spacingRight=4;overflow=hidden;rotatable=0;points=[[0,0.5],[1,0.5]];portConstraint=eastwest;whiteSpace=wrap;html=1;" vertex="1" parent="bMqEkU54IpqbucLzSi6T-158">
          <mxGeometry y="91" width="210" height="26" as="geometry" />
        </mxCell>
        <mxCell id="bMqEkU54IpqbucLzSi6T-162" value="&lt;div&gt;+btnContinueStory: button&lt;/div&gt;" style="text;strokeColor=none;fillColor=none;align=left;verticalAlign=top;spacingLeft=4;spacingRight=4;overflow=hidden;rotatable=0;points=[[0,0.5],[1,0.5]];portConstraint=eastwest;whiteSpace=wrap;html=1;" vertex="1" parent="bMqEkU54IpqbucLzSi6T-158">
          <mxGeometry y="117" width="210" height="26" as="geometry" />
        </mxCell>
        <mxCell id="bMqEkU54IpqbucLzSi6T-163" value="" style="line;strokeWidth=1;fillColor=none;align=left;verticalAlign=middle;spacingTop=-1;spacingLeft=3;spacingRight=3;rotatable=0;labelPosition=right;points=[];portConstraint=eastwest;strokeColor=inherit;" vertex="1" parent="bMqEkU54IpqbucLzSi6T-158">
          <mxGeometry y="143" width="210" height="8" as="geometry" />
        </mxCell>
        <mxCell id="bMqEkU54IpqbucLzSi6T-164" value="+btnReturnHomePress(): void" style="text;strokeColor=none;fillColor=none;align=left;verticalAlign=top;spacingLeft=4;spacingRight=4;overflow=hidden;rotatable=0;points=[[0,0.5],[1,0.5]];portConstraint=eastwest;whiteSpace=wrap;html=1;" vertex="1" parent="bMqEkU54IpqbucLzSi6T-158">
          <mxGeometry y="151" width="210" height="26" as="geometry" />
        </mxCell>
        <mxCell id="bMqEkU54IpqbucLzSi6T-165" value="+btnContinueStoryPress(): void" style="text;strokeColor=none;fillColor=none;align=left;verticalAlign=top;spacingLeft=4;spacingRight=4;overflow=hidden;rotatable=0;points=[[0,0.5],[1,0.5]];portConstraint=eastwest;whiteSpace=wrap;html=1;" vertex="1" parent="bMqEkU54IpqbucLzSi6T-158">
          <mxGeometry y="177" width="210" height="26" as="geometry" />
        </mxCell>
        <mxCell id="bMqEkU54IpqbucLzSi6T-166" value="RiddleDBProxy" style="swimlane;fontStyle=1;align=center;verticalAlign=top;childLayout=stackLayout;horizontal=1;startSize=26;horizontalStack=0;resizeParent=1;resizeParentMax=0;resizeLast=0;collapsible=1;marginBottom=0;whiteSpace=wrap;html=1;fillColor=#FFCE9F;" vertex="1" collapsed="1" parent="1">
          <mxGeometry x="-6460" y="-1799" width="120" height="30" as="geometry">
            <mxRectangle x="-6120" y="-1390" width="160" height="34" as="alternateBounds" />
          </mxGeometry>
        </mxCell>
        <mxCell id="bMqEkU54IpqbucLzSi6T-167" value="" style="line;strokeWidth=1;fillColor=none;align=left;verticalAlign=middle;spacingTop=-1;spacingLeft=3;spacingRight=3;rotatable=0;labelPosition=right;points=[];portConstraint=eastwest;strokeColor=inherit;" vertex="1" parent="bMqEkU54IpqbucLzSi6T-166">
          <mxGeometry y="26" width="160" height="8" as="geometry" />
        </mxCell>
        <mxCell id="bMqEkU54IpqbucLzSi6T-168" value="&amp;lt;&amp;lt;Controller&amp;gt;&amp;gt;&lt;div&gt;SolverAccountController&lt;/div&gt;" style="swimlane;fontStyle=1;align=center;verticalAlign=top;childLayout=stackLayout;horizontal=1;startSize=42;horizontalStack=0;resizeParent=1;resizeParentMax=0;resizeLast=0;collapsible=1;marginBottom=0;whiteSpace=wrap;html=1;fillColor=#FF6666;" vertex="1" collapsed="1" parent="1">
          <mxGeometry x="-5660" y="-1830" width="170" height="42" as="geometry">
            <mxRectangle x="-4962" y="-1764" width="232" height="102" as="alternateBounds" />
          </mxGeometry>
        </mxCell>
        <mxCell id="bMqEkU54IpqbucLzSi6T-169" value="" style="line;strokeWidth=1;fillColor=none;align=left;verticalAlign=middle;spacingTop=-1;spacingLeft=3;spacingRight=3;rotatable=0;labelPosition=right;points=[];portConstraint=eastwest;strokeColor=inherit;" vertex="1" parent="bMqEkU54IpqbucLzSi6T-168">
          <mxGeometry y="42" width="232" height="8" as="geometry" />
        </mxCell>
        <mxCell id="bMqEkU54IpqbucLzSi6T-170" value="+invite_solver(solver_id:int): Invitation" style="text;strokeColor=none;fillColor=none;align=left;verticalAlign=top;spacingLeft=4;spacingRight=4;overflow=hidden;rotatable=0;points=[[0,0.5],[1,0.5]];portConstraint=eastwest;whiteSpace=wrap;html=1;" vertex="1" parent="bMqEkU54IpqbucLzSi6T-168">
          <mxGeometry y="50" width="232" height="26" as="geometry" />
        </mxCell>
        <mxCell id="bMqEkU54IpqbucLzSi6T-171" value="+view_solver_answer(riddle:Riddle):void&lt;div&gt;&lt;br&gt;&lt;/div&gt;" style="text;strokeColor=none;fillColor=none;align=left;verticalAlign=top;spacingLeft=4;spacingRight=4;overflow=hidden;rotatable=0;points=[[0,0.5],[1,0.5]];portConstraint=eastwest;whiteSpace=wrap;html=1;" vertex="1" parent="bMqEkU54IpqbucLzSi6T-168">
          <mxGeometry y="76" width="232" height="26" as="geometry" />
        </mxCell>
        <mxCell id="bMqEkU54IpqbucLzSi6T-172" value="" style="endArrow=none;html=1;rounded=0;align=center;verticalAlign=top;endFill=0;labelBackgroundColor=none;entryX=0;entryY=0.5;entryDx=0;entryDy=0;exitX=1;exitY=0.5;exitDx=0;exitDy=0;" edge="1" parent="1" source="bMqEkU54IpqbucLzSi6T-10" target="bMqEkU54IpqbucLzSi6T-170">
          <mxGeometry relative="1" as="geometry">
            <mxPoint x="-5640" y="-1860" as="sourcePoint" />
            <mxPoint x="-5078" y="-1902" as="targetPoint" />
          </mxGeometry>
        </mxCell>
        <mxCell id="bMqEkU54IpqbucLzSi6T-173" value="" style="html=1;verticalAlign=bottom;labelBackgroundColor=none;endArrow=none;endFill=0;endSize=6;align=left;rounded=0;entryX=0;entryY=0.5;entryDx=0;entryDy=0;exitX=1;exitY=0.5;exitDx=0;exitDy=0;" edge="1" parent="1" source="bMqEkU54IpqbucLzSi6T-130" target="bMqEkU54IpqbucLzSi6T-170">
          <mxGeometry x="-1" relative="1" as="geometry">
            <mxPoint x="-5700" y="-1510" as="sourcePoint" />
            <mxPoint x="-5078" y="-1902" as="targetPoint" />
          </mxGeometry>
        </mxCell>
        <mxCell id="bMqEkU54IpqbucLzSi6T-174" value="&amp;lt;&amp;lt;Controller&amp;gt;&amp;gt;&lt;div&gt;HintController&lt;/div&gt;" style="swimlane;fontStyle=1;align=center;verticalAlign=top;childLayout=stackLayout;horizontal=1;startSize=42;horizontalStack=0;resizeParent=1;resizeParentMax=0;resizeLast=0;collapsible=1;marginBottom=0;whiteSpace=wrap;html=1;fillColor=#FF6666;" vertex="1" collapsed="1" parent="1">
          <mxGeometry x="-5912" y="-1950" width="120" height="42" as="geometry">
            <mxRectangle x="-5560" y="-1879" width="215" height="76" as="alternateBounds" />
          </mxGeometry>
        </mxCell>
        <mxCell id="bMqEkU54IpqbucLzSi6T-175" value="" style="line;strokeWidth=1;fillColor=none;align=left;verticalAlign=middle;spacingTop=-1;spacingLeft=3;spacingRight=3;rotatable=0;labelPosition=right;points=[];portConstraint=eastwest;strokeColor=inherit;" vertex="1" parent="bMqEkU54IpqbucLzSi6T-174">
          <mxGeometry y="42" width="215" height="8" as="geometry" />
        </mxCell>
        <mxCell id="bMqEkU54IpqbucLzSi6T-176" value="+ show_hint_message(): void" style="text;strokeColor=none;fillColor=none;align=left;verticalAlign=top;spacingLeft=4;spacingRight=4;overflow=hidden;rotatable=0;points=[[0,0.5],[1,0.5]];portConstraint=eastwest;whiteSpace=wrap;html=1;" vertex="1" parent="bMqEkU54IpqbucLzSi6T-174">
          <mxGeometry y="50" width="215" height="26" as="geometry" />
        </mxCell>
        <mxCell id="bMqEkU54IpqbucLzSi6T-177" value="" style="endArrow=open;endFill=1;endSize=12;html=1;rounded=0;exitX=0;exitY=0.5;exitDx=0;exitDy=0;entryX=1;entryY=0.5;entryDx=0;entryDy=0;" edge="1" parent="1" source="bMqEkU54IpqbucLzSi6T-170" target="bMqEkU54IpqbucLzSi6T-174">
          <mxGeometry width="160" relative="1" as="geometry">
            <mxPoint x="-4968" y="-1865" as="sourcePoint" />
            <mxPoint x="-4962" y="-1692" as="targetPoint" />
            <Array as="points" />
          </mxGeometry>
        </mxCell>
        <mxCell id="bMqEkU54IpqbucLzSi6T-178" value="" style="endArrow=open;endFill=1;endSize=12;html=1;rounded=0;entryX=0;entryY=0.5;entryDx=0;entryDy=0;exitX=1;exitY=0.5;exitDx=0;exitDy=0;" edge="1" parent="1" source="bMqEkU54IpqbucLzSi6T-5" target="bMqEkU54IpqbucLzSi6T-174">
          <mxGeometry width="160" relative="1" as="geometry">
            <mxPoint x="-5917" y="-1733" as="sourcePoint" />
            <mxPoint x="-6058" y="-1861" as="targetPoint" />
            <Array as="points" />
          </mxGeometry>
        </mxCell>
        <mxCell id="bMqEkU54IpqbucLzSi6T-179" value="&amp;lt;&amp;lt;Entity&amp;gt;&amp;gt;&lt;div&gt;Hint&lt;/div&gt;" style="swimlane;fontStyle=1;align=center;verticalAlign=top;childLayout=stackLayout;horizontal=1;startSize=41;horizontalStack=0;resizeParent=1;resizeParentMax=0;resizeLast=0;collapsible=1;marginBottom=0;whiteSpace=wrap;html=1;fillColor=#9AC7BF;" vertex="1" collapsed="1" parent="1">
          <mxGeometry x="-5792" y="-2070" width="100" height="41" as="geometry">
            <mxRectangle x="-5430" y="-2343" width="240" height="386" as="alternateBounds" />
          </mxGeometry>
        </mxCell>
        <mxCell id="bMqEkU54IpqbucLzSi6T-180" value="+riddle: Riddle" style="text;strokeColor=none;fillColor=none;align=left;verticalAlign=top;spacingLeft=4;spacingRight=4;overflow=hidden;rotatable=0;points=[[0,0.5],[1,0.5]];portConstraint=eastwest;whiteSpace=wrap;html=1;" vertex="1" parent="bMqEkU54IpqbucLzSi6T-179">
          <mxGeometry y="41" width="240" height="25" as="geometry" />
        </mxCell>
        <mxCell id="bMqEkU54IpqbucLzSi6T-181" value="+accepted: Boolean&lt;div&gt;&lt;br&gt;&lt;/div&gt;" style="text;strokeColor=none;fillColor=none;align=left;verticalAlign=top;spacingLeft=4;spacingRight=4;overflow=hidden;rotatable=0;points=[[0,0.5],[1,0.5]];portConstraint=eastwest;whiteSpace=wrap;html=1;" vertex="1" parent="bMqEkU54IpqbucLzSi6T-179">
          <mxGeometry y="66" width="240" height="26" as="geometry" />
        </mxCell>
        <mxCell id="bMqEkU54IpqbucLzSi6T-182" value="+hint_content: String&lt;div&gt;&lt;br&gt;&lt;/div&gt;" style="text;strokeColor=none;fillColor=none;align=left;verticalAlign=top;spacingLeft=4;spacingRight=4;overflow=hidden;rotatable=0;points=[[0,0.5],[1,0.5]];portConstraint=eastwest;whiteSpace=wrap;html=1;" vertex="1" parent="bMqEkU54IpqbucLzSi6T-179">
          <mxGeometry y="92" width="240" height="26" as="geometry" />
        </mxCell>
        <mxCell id="bMqEkU54IpqbucLzSi6T-183" value="+id: Integer" style="text;strokeColor=none;fillColor=none;align=left;verticalAlign=top;spacingLeft=4;spacingRight=4;overflow=hidden;rotatable=0;points=[[0,0.5],[1,0.5]];portConstraint=eastwest;whiteSpace=wrap;html=1;" vertex="1" parent="bMqEkU54IpqbucLzSi6T-179">
          <mxGeometry y="118" width="240" height="26" as="geometry" />
        </mxCell>
        <mxCell id="bMqEkU54IpqbucLzSi6T-184" value="" style="line;strokeWidth=1;fillColor=none;align=left;verticalAlign=middle;spacingTop=-1;spacingLeft=3;spacingRight=3;rotatable=0;labelPosition=right;points=[];portConstraint=eastwest;strokeColor=inherit;" vertex="1" parent="bMqEkU54IpqbucLzSi6T-179">
          <mxGeometry y="144" width="240" height="8" as="geometry" />
        </mxCell>
        <mxCell id="bMqEkU54IpqbucLzSi6T-185" value="+Hint(): void" style="text;strokeColor=none;fillColor=none;align=left;verticalAlign=top;spacingLeft=4;spacingRight=4;overflow=hidden;rotatable=0;points=[[0,0.5],[1,0.5]];portConstraint=eastwest;whiteSpace=wrap;html=1;" vertex="1" parent="bMqEkU54IpqbucLzSi6T-179">
          <mxGeometry y="152" width="240" height="26" as="geometry" />
        </mxCell>
        <mxCell id="bMqEkU54IpqbucLzSi6T-186" value="+getRiddle(): Riddle" style="text;strokeColor=none;fillColor=none;align=left;verticalAlign=top;spacingLeft=4;spacingRight=4;overflow=hidden;rotatable=0;points=[[0,0.5],[1,0.5]];portConstraint=eastwest;whiteSpace=wrap;html=1;" vertex="1" parent="bMqEkU54IpqbucLzSi6T-179">
          <mxGeometry y="178" width="240" height="26" as="geometry" />
        </mxCell>
        <mxCell id="bMqEkU54IpqbucLzSi6T-187" value="+setRiddle(riddle: Riddle): void" style="text;strokeColor=none;fillColor=none;align=left;verticalAlign=top;spacingLeft=4;spacingRight=4;overflow=hidden;rotatable=0;points=[[0,0.5],[1,0.5]];portConstraint=eastwest;whiteSpace=wrap;html=1;" vertex="1" parent="bMqEkU54IpqbucLzSi6T-179">
          <mxGeometry y="204" width="240" height="26" as="geometry" />
        </mxCell>
        <mxCell id="bMqEkU54IpqbucLzSi6T-188" value="+getAccepted(): Boolean" style="text;strokeColor=none;fillColor=none;align=left;verticalAlign=top;spacingLeft=4;spacingRight=4;overflow=hidden;rotatable=0;points=[[0,0.5],[1,0.5]];portConstraint=eastwest;whiteSpace=wrap;html=1;" vertex="1" parent="bMqEkU54IpqbucLzSi6T-179">
          <mxGeometry y="230" width="240" height="26" as="geometry" />
        </mxCell>
        <mxCell id="bMqEkU54IpqbucLzSi6T-189" value="+setAccepted(accepted:&amp;nbsp; Boolean): void" style="text;strokeColor=none;fillColor=none;align=left;verticalAlign=top;spacingLeft=4;spacingRight=4;overflow=hidden;rotatable=0;points=[[0,0.5],[1,0.5]];portConstraint=eastwest;whiteSpace=wrap;html=1;" vertex="1" parent="bMqEkU54IpqbucLzSi6T-179">
          <mxGeometry y="256" width="240" height="26" as="geometry" />
        </mxCell>
        <mxCell id="bMqEkU54IpqbucLzSi6T-190" value="+getHintContent(): String" style="text;strokeColor=none;fillColor=none;align=left;verticalAlign=top;spacingLeft=4;spacingRight=4;overflow=hidden;rotatable=0;points=[[0,0.5],[1,0.5]];portConstraint=eastwest;whiteSpace=wrap;html=1;" vertex="1" parent="bMqEkU54IpqbucLzSi6T-179">
          <mxGeometry y="282" width="240" height="26" as="geometry" />
        </mxCell>
        <mxCell id="bMqEkU54IpqbucLzSi6T-191" value="+setHintContent(hintContent: String): void" style="text;strokeColor=none;fillColor=none;align=left;verticalAlign=top;spacingLeft=4;spacingRight=4;overflow=hidden;rotatable=0;points=[[0,0.5],[1,0.5]];portConstraint=eastwest;whiteSpace=wrap;html=1;" vertex="1" parent="bMqEkU54IpqbucLzSi6T-179">
          <mxGeometry y="308" width="240" height="26" as="geometry" />
        </mxCell>
        <mxCell id="bMqEkU54IpqbucLzSi6T-192" value="+getId(): Integer" style="text;strokeColor=none;fillColor=none;align=left;verticalAlign=top;spacingLeft=4;spacingRight=4;overflow=hidden;rotatable=0;points=[[0,0.5],[1,0.5]];portConstraint=eastwest;whiteSpace=wrap;html=1;" vertex="1" parent="bMqEkU54IpqbucLzSi6T-179">
          <mxGeometry y="334" width="240" height="26" as="geometry" />
        </mxCell>
        <mxCell id="bMqEkU54IpqbucLzSi6T-193" value="+setId(id: Integer): void" style="text;strokeColor=none;fillColor=none;align=left;verticalAlign=top;spacingLeft=4;spacingRight=4;overflow=hidden;rotatable=0;points=[[0,0.5],[1,0.5]];portConstraint=eastwest;whiteSpace=wrap;html=1;" vertex="1" parent="bMqEkU54IpqbucLzSi6T-179">
          <mxGeometry y="360" width="240" height="26" as="geometry" />
        </mxCell>
        <mxCell id="bMqEkU54IpqbucLzSi6T-194" value="&amp;lt;&amp;lt;Boundary&amp;gt;&amp;gt;&lt;div&gt;HintPopUp&lt;/div&gt;" style="swimlane;fontStyle=1;align=center;verticalAlign=top;childLayout=stackLayout;horizontal=1;startSize=40;horizontalStack=0;resizeParent=1;resizeParentMax=0;resizeLast=0;collapsible=1;marginBottom=0;whiteSpace=wrap;html=1;fillColor=#CCCCFF;" vertex="1" collapsed="1" parent="1">
          <mxGeometry x="-5903.5" y="-2070" width="100" height="41" as="geometry">
            <mxRectangle x="-5620" y="-2155" width="170" height="190" as="alternateBounds" />
          </mxGeometry>
        </mxCell>
        <mxCell id="bMqEkU54IpqbucLzSi6T-195" value="+lblHint: label" style="text;strokeColor=none;fillColor=none;align=left;verticalAlign=top;spacingLeft=4;spacingRight=4;overflow=hidden;rotatable=0;points=[[0,0.5],[1,0.5]];portConstraint=eastwest;whiteSpace=wrap;html=1;" vertex="1" parent="bMqEkU54IpqbucLzSi6T-194">
          <mxGeometry y="26" width="170" height="26" as="geometry" />
        </mxCell>
        <mxCell id="bMqEkU54IpqbucLzSi6T-196" value="+btnSrinkArrows: button" style="text;strokeColor=none;fillColor=none;align=left;verticalAlign=top;spacingLeft=4;spacingRight=4;overflow=hidden;rotatable=0;points=[[0,0.5],[1,0.5]];portConstraint=eastwest;whiteSpace=wrap;html=1;" vertex="1" parent="bMqEkU54IpqbucLzSi6T-194">
          <mxGeometry y="52" width="170" height="26" as="geometry" />
        </mxCell>
        <mxCell id="bMqEkU54IpqbucLzSi6T-197" value="+btnCancel: button" style="text;strokeColor=none;fillColor=none;align=left;verticalAlign=top;spacingLeft=4;spacingRight=4;overflow=hidden;rotatable=0;points=[[0,0.5],[1,0.5]];portConstraint=eastwest;whiteSpace=wrap;html=1;" vertex="1" parent="bMqEkU54IpqbucLzSi6T-194">
          <mxGeometry y="78" width="170" height="26" as="geometry" />
        </mxCell>
        <mxCell id="bMqEkU54IpqbucLzSi6T-198" value="+txtHintContent: text" style="text;strokeColor=none;fillColor=none;align=left;verticalAlign=top;spacingLeft=4;spacingRight=4;overflow=hidden;rotatable=0;points=[[0,0.5],[1,0.5]];portConstraint=eastwest;whiteSpace=wrap;html=1;" vertex="1" parent="bMqEkU54IpqbucLzSi6T-194">
          <mxGeometry y="104" width="170" height="26" as="geometry" />
        </mxCell>
        <mxCell id="bMqEkU54IpqbucLzSi6T-199" value="" style="line;strokeWidth=1;fillColor=none;align=left;verticalAlign=middle;spacingTop=-1;spacingLeft=3;spacingRight=3;rotatable=0;labelPosition=right;points=[];portConstraint=eastwest;strokeColor=inherit;" vertex="1" parent="bMqEkU54IpqbucLzSi6T-194">
          <mxGeometry y="130" width="170" height="8" as="geometry" />
        </mxCell>
        <mxCell id="bMqEkU54IpqbucLzSi6T-200" value="+btnCancelPress(): void" style="text;strokeColor=none;fillColor=none;align=left;verticalAlign=top;spacingLeft=4;spacingRight=4;overflow=hidden;rotatable=0;points=[[0,0.5],[1,0.5]];portConstraint=eastwest;whiteSpace=wrap;html=1;" vertex="1" parent="bMqEkU54IpqbucLzSi6T-194">
          <mxGeometry y="138" width="170" height="26" as="geometry" />
        </mxCell>
        <mxCell id="bMqEkU54IpqbucLzSi6T-201" value="+btnSrinkArrowsPress(): void" style="text;strokeColor=none;fillColor=none;align=left;verticalAlign=top;spacingLeft=4;spacingRight=4;overflow=hidden;rotatable=0;points=[[0,0.5],[1,0.5]];portConstraint=eastwest;whiteSpace=wrap;html=1;" vertex="1" parent="bMqEkU54IpqbucLzSi6T-194">
          <mxGeometry y="164" width="170" height="26" as="geometry" />
        </mxCell>
        <mxCell id="bMqEkU54IpqbucLzSi6T-202" value="" style="endArrow=open;endFill=1;endSize=12;html=1;rounded=0;exitX=0.5;exitY=1;exitDx=0;exitDy=0;entryX=0.5;entryY=0;entryDx=0;entryDy=0;" edge="1" parent="1" source="bMqEkU54IpqbucLzSi6T-194" target="bMqEkU54IpqbucLzSi6T-174">
          <mxGeometry width="160" relative="1" as="geometry">
            <mxPoint x="-5920" y="-1980" as="sourcePoint" />
            <mxPoint x="-5850" y="-1950" as="targetPoint" />
          </mxGeometry>
        </mxCell>
        <mxCell id="bMqEkU54IpqbucLzSi6T-203" value="" style="endArrow=open;endFill=1;endSize=12;html=1;rounded=0;entryX=0.5;entryY=1;entryDx=0;entryDy=0;exitX=0.5;exitY=0;exitDx=0;exitDy=0;" edge="1" parent="1" source="bMqEkU54IpqbucLzSi6T-174" target="bMqEkU54IpqbucLzSi6T-179">
          <mxGeometry width="160" relative="1" as="geometry">
            <mxPoint x="-5850" y="-1940" as="sourcePoint" />
            <mxPoint x="-5710" y="-1950" as="targetPoint" />
          </mxGeometry>
        </mxCell>
        <mxCell id="bMqEkU54IpqbucLzSi6T-204" value="&amp;lt;&amp;lt;Controller&amp;gt;&amp;gt;&lt;div&gt;InvitationController&lt;/div&gt;" style="swimlane;fontStyle=1;align=center;verticalAlign=top;childLayout=stackLayout;horizontal=1;startSize=39;horizontalStack=0;resizeParent=1;resizeParentMax=0;resizeLast=0;collapsible=1;marginBottom=0;whiteSpace=wrap;html=1;fillColor=#FF6666;" vertex="1" collapsed="1" parent="1">
          <mxGeometry x="-5370" y="-1830" width="140" height="40" as="geometry">
            <mxRectangle x="-4493" y="-1822" width="200" height="112" as="alternateBounds" />
          </mxGeometry>
        </mxCell>
        <mxCell id="bMqEkU54IpqbucLzSi6T-205" value="" style="line;strokeWidth=1;fillColor=none;align=left;verticalAlign=middle;spacingTop=-1;spacingLeft=3;spacingRight=3;rotatable=0;labelPosition=right;points=[];portConstraint=eastwest;strokeColor=inherit;" vertex="1" parent="bMqEkU54IpqbucLzSi6T-204">
          <mxGeometry y="39" width="200" height="8" as="geometry" />
        </mxCell>
        <mxCell id="bMqEkU54IpqbucLzSi6T-206" value="+ manage_invitation() :&amp;nbsp; boolean&lt;div&gt;&lt;br&gt;&lt;/div&gt;&lt;div&gt;+ show_invitation() : void&lt;div&gt;&lt;br&gt;&lt;/div&gt;&lt;div&gt;&lt;br&gt;&lt;/div&gt;&lt;/div&gt;" style="text;strokeColor=none;fillColor=none;align=left;verticalAlign=top;spacingLeft=4;spacingRight=4;overflow=hidden;rotatable=0;points=[[0,0.5],[1,0.5]];portConstraint=eastwest;whiteSpace=wrap;html=1;" vertex="1" parent="bMqEkU54IpqbucLzSi6T-204">
          <mxGeometry y="47" width="200" height="65" as="geometry" />
        </mxCell>
        <mxCell id="bMqEkU54IpqbucLzSi6T-207" value="&lt;div&gt;&amp;lt;&amp;lt;Entity&amp;gt;&amp;gt;&lt;/div&gt;SolverAccount" style="swimlane;fontStyle=1;align=center;verticalAlign=top;childLayout=stackLayout;horizontal=1;startSize=36;horizontalStack=0;resizeParent=1;resizeParentMax=0;resizeLast=0;collapsible=1;marginBottom=0;whiteSpace=wrap;html=1;fillColor=#9AC7BF;" vertex="1" collapsed="1" parent="1">
          <mxGeometry x="-5635" y="-1757" width="120" height="40" as="geometry">
            <mxRectangle x="-4962" y="-1573" width="308" height="201" as="alternateBounds" />
          </mxGeometry>
        </mxCell>
        <mxCell id="bMqEkU54IpqbucLzSi6T-208" value="+invited: Boolean" style="text;strokeColor=none;fillColor=none;align=left;verticalAlign=top;spacingLeft=4;spacingRight=4;overflow=hidden;rotatable=0;points=[[0,0.5],[1,0.5]];portConstraint=eastwest;whiteSpace=wrap;html=1;" vertex="1" parent="bMqEkU54IpqbucLzSi6T-207">
          <mxGeometry y="36" width="308" height="26" as="geometry" />
        </mxCell>
        <mxCell id="bMqEkU54IpqbucLzSi6T-209" value="+used_hints: Integer&lt;div&gt;&lt;br&gt;&lt;/div&gt;" style="text;strokeColor=none;fillColor=none;align=left;verticalAlign=top;spacingLeft=4;spacingRight=4;overflow=hidden;rotatable=0;points=[[0,0.5],[1,0.5]];portConstraint=eastwest;whiteSpace=wrap;html=1;" vertex="1" parent="bMqEkU54IpqbucLzSi6T-207">
          <mxGeometry y="62" width="308" height="27" as="geometry" />
        </mxCell>
        <mxCell id="bMqEkU54IpqbucLzSi6T-210" value="" style="line;strokeWidth=1;fillColor=none;align=left;verticalAlign=middle;spacingTop=-1;spacingLeft=3;spacingRight=3;rotatable=0;labelPosition=right;points=[];portConstraint=eastwest;strokeColor=inherit;" vertex="1" parent="bMqEkU54IpqbucLzSi6T-207">
          <mxGeometry y="89" width="308" height="8" as="geometry" />
        </mxCell>
        <mxCell id="bMqEkU54IpqbucLzSi6T-211" value="+ getInvited(): boolean" style="text;strokeColor=none;fillColor=none;align=left;verticalAlign=top;spacingLeft=4;spacingRight=4;overflow=hidden;rotatable=0;points=[[0,0.5],[1,0.5]];portConstraint=eastwest;whiteSpace=wrap;html=1;" vertex="1" parent="bMqEkU54IpqbucLzSi6T-207">
          <mxGeometry y="97" width="308" height="26" as="geometry" />
        </mxCell>
        <mxCell id="bMqEkU54IpqbucLzSi6T-212" value="+ setInvited(invited: Boolean): void" style="text;strokeColor=none;fillColor=none;align=left;verticalAlign=top;spacingLeft=4;spacingRight=4;overflow=hidden;rotatable=0;points=[[0,0.5],[1,0.5]];portConstraint=eastwest;whiteSpace=wrap;html=1;" vertex="1" parent="bMqEkU54IpqbucLzSi6T-207">
          <mxGeometry y="123" width="308" height="26" as="geometry" />
        </mxCell>
        <mxCell id="bMqEkU54IpqbucLzSi6T-213" value="+ getUsedHints(): Integer" style="text;strokeColor=none;fillColor=none;align=left;verticalAlign=top;spacingLeft=4;spacingRight=4;overflow=hidden;rotatable=0;points=[[0,0.5],[1,0.5]];portConstraint=eastwest;whiteSpace=wrap;html=1;" vertex="1" parent="bMqEkU54IpqbucLzSi6T-207">
          <mxGeometry y="149" width="308" height="26" as="geometry" />
        </mxCell>
        <mxCell id="bMqEkU54IpqbucLzSi6T-214" value="+ setUsedHints(usedHints: Integer): void" style="text;strokeColor=none;fillColor=none;align=left;verticalAlign=top;spacingLeft=4;spacingRight=4;overflow=hidden;rotatable=0;points=[[0,0.5],[1,0.5]];portConstraint=eastwest;whiteSpace=wrap;html=1;" vertex="1" parent="bMqEkU54IpqbucLzSi6T-207">
          <mxGeometry y="175" width="308" height="26" as="geometry" />
        </mxCell>
        <mxCell id="bMqEkU54IpqbucLzSi6T-215" value="" style="endArrow=open;endFill=1;endSize=12;html=1;rounded=0;entryX=0.5;entryY=0;entryDx=0;entryDy=0;exitX=0.5;exitY=1;exitDx=0;exitDy=0;" edge="1" parent="1" source="bMqEkU54IpqbucLzSi6T-168" target="bMqEkU54IpqbucLzSi6T-207">
          <mxGeometry width="160" relative="1" as="geometry">
            <mxPoint x="-5620" y="-1760" as="sourcePoint" />
            <mxPoint x="-4959" y="-2046" as="targetPoint" />
            <Array as="points" />
          </mxGeometry>
        </mxCell>
        <mxCell id="bMqEkU54IpqbucLzSi6T-216" value="" style="endArrow=open;endFill=1;endSize=12;html=1;rounded=0;exitX=1;exitY=0.5;exitDx=0;exitDy=0;entryX=0;entryY=0.5;entryDx=0;entryDy=0;" edge="1" parent="1" source="bMqEkU54IpqbucLzSi6T-168" target="bMqEkU54IpqbucLzSi6T-206">
          <mxGeometry width="160" relative="1" as="geometry">
            <mxPoint x="-4820" y="-1830" as="sourcePoint" />
            <mxPoint x="-5030" y="-1850" as="targetPoint" />
            <Array as="points" />
          </mxGeometry>
        </mxCell>
        <mxCell id="bMqEkU54IpqbucLzSi6T-217" value="&amp;lt;&amp;lt;Boundary&amp;gt;&amp;gt;&lt;div&gt;HomepageUI&lt;/div&gt;" style="swimlane;fontStyle=1;align=center;verticalAlign=top;childLayout=stackLayout;horizontal=1;startSize=38;horizontalStack=0;resizeParent=1;resizeParentMax=0;resizeLast=0;collapsible=1;marginBottom=0;whiteSpace=wrap;html=1;fillColor=#CCCCFF;" vertex="1" collapsed="1" parent="1">
          <mxGeometry x="-5460" y="-1586.25" width="110" height="37.5" as="geometry">
            <mxRectangle x="-4050" y="-1200" width="179" height="288" as="alternateBounds" />
          </mxGeometry>
        </mxCell>
        <mxCell id="bMqEkU54IpqbucLzSi6T-218" value="+btnChooseStory: button" style="text;strokeColor=none;fillColor=none;align=left;verticalAlign=top;spacingLeft=4;spacingRight=4;overflow=hidden;rotatable=0;points=[[0,0.5],[1,0.5]];portConstraint=eastwest;whiteSpace=wrap;html=1;" vertex="1" parent="bMqEkU54IpqbucLzSi6T-217">
          <mxGeometry y="26" width="179" height="26" as="geometry" />
        </mxCell>
        <mxCell id="bMqEkU54IpqbucLzSi6T-219" value="+lblWelcomeBack: label" style="text;strokeColor=none;fillColor=none;align=left;verticalAlign=top;spacingLeft=4;spacingRight=4;overflow=hidden;rotatable=0;points=[[0,0.5],[1,0.5]];portConstraint=eastwest;whiteSpace=wrap;html=1;" vertex="1" parent="bMqEkU54IpqbucLzSi6T-217">
          <mxGeometry y="52" width="179" height="26" as="geometry" />
        </mxCell>
        <mxCell id="bMqEkU54IpqbucLzSi6T-220" value="+lblUsername: label&lt;span style=&quot;color: rgba(0, 0, 0, 0); font-family: monospace; font-size: 0px; text-wrap-mode: nowrap;&quot;&gt;%3CmxGraphModel%3E%3Croot%3E%3CmxCell%20id%3D%220%22%2F%3E%3CmxCell%20id%3D%221%22%20parent%3D%220%22%2F%3E%3CmxCell%20id%3D%222%22%20value%3D%22%2BbtnChooseStory%3A%20button%22%20style%3D%22text%3BstrokeColor%3Dnone%3BfillColor%3Dnone%3Balign%3Dleft%3BverticalAlign%3Dtop%3BspacingLeft%3D4%3BspacingRight%3D4%3Boverflow%3Dhidden%3Brotatable%3D0%3Bpoints%3D%5B%5B0%2C0.5%5D%2C%5B1%2C0.5%5D%5D%3BportConstraint%3Deastwest%3BwhiteSpace%3Dwrap%3Bhtml%3D1%3B%22%20vertex%3D%221%22%20parent%3D%221%22%3E%3CmxGeometry%20x%3D%22-3540%22%20y%3D%22-1824%22%20width%3D%22179%22%20height%3D%2226%22%20as%3D%22geometry%22%2F%3E%3C%2FmxCell%3E%3C%2Froot%3E%3C%2FmxGraphModel%3E&lt;/span&gt;" style="text;strokeColor=none;fillColor=none;align=left;verticalAlign=top;spacingLeft=4;spacingRight=4;overflow=hidden;rotatable=0;points=[[0,0.5],[1,0.5]];portConstraint=eastwest;whiteSpace=wrap;html=1;" vertex="1" parent="bMqEkU54IpqbucLzSi6T-217">
          <mxGeometry y="78" width="179" height="26" as="geometry" />
        </mxCell>
        <mxCell id="bMqEkU54IpqbucLzSi6T-221" value="+btnReturnHome: button" style="text;strokeColor=none;fillColor=none;align=left;verticalAlign=top;spacingLeft=4;spacingRight=4;overflow=hidden;rotatable=0;points=[[0,0.5],[1,0.5]];portConstraint=eastwest;whiteSpace=wrap;html=1;" vertex="1" parent="bMqEkU54IpqbucLzSi6T-217">
          <mxGeometry y="104" width="179" height="26" as="geometry" />
        </mxCell>
        <mxCell id="bMqEkU54IpqbucLzSi6T-222" value="+btnSettings: button" style="text;strokeColor=none;fillColor=none;align=left;verticalAlign=top;spacingLeft=4;spacingRight=4;overflow=hidden;rotatable=0;points=[[0,0.5],[1,0.5]];portConstraint=eastwest;whiteSpace=wrap;html=1;" vertex="1" parent="bMqEkU54IpqbucLzSi6T-217">
          <mxGeometry y="130" width="179" height="26" as="geometry" />
        </mxCell>
        <mxCell id="bMqEkU54IpqbucLzSi6T-223" value="+btnLogout: button" style="text;strokeColor=none;fillColor=none;align=left;verticalAlign=top;spacingLeft=4;spacingRight=4;overflow=hidden;rotatable=0;points=[[0,0.5],[1,0.5]];portConstraint=eastwest;whiteSpace=wrap;html=1;" vertex="1" parent="bMqEkU54IpqbucLzSi6T-217">
          <mxGeometry y="156" width="179" height="26" as="geometry" />
        </mxCell>
        <mxCell id="bMqEkU54IpqbucLzSi6T-224" value="" style="line;strokeWidth=1;fillColor=none;align=left;verticalAlign=middle;spacingTop=-1;spacingLeft=3;spacingRight=3;rotatable=0;labelPosition=right;points=[];portConstraint=eastwest;strokeColor=inherit;" vertex="1" parent="bMqEkU54IpqbucLzSi6T-217">
          <mxGeometry y="182" width="179" height="8" as="geometry" />
        </mxCell>
        <mxCell id="bMqEkU54IpqbucLzSi6T-225" value="+btnChooseStoryPress(): void" style="text;strokeColor=none;fillColor=none;align=left;verticalAlign=top;spacingLeft=4;spacingRight=4;overflow=hidden;rotatable=0;points=[[0,0.5],[1,0.5]];portConstraint=eastwest;whiteSpace=wrap;html=1;" vertex="1" parent="bMqEkU54IpqbucLzSi6T-217">
          <mxGeometry y="190" width="179" height="20" as="geometry" />
        </mxCell>
        <mxCell id="bMqEkU54IpqbucLzSi6T-226" value="+btnReturnHomePress(): void" style="text;strokeColor=none;fillColor=none;align=left;verticalAlign=top;spacingLeft=4;spacingRight=4;overflow=hidden;rotatable=0;points=[[0,0.5],[1,0.5]];portConstraint=eastwest;whiteSpace=wrap;html=1;" vertex="1" parent="bMqEkU54IpqbucLzSi6T-217">
          <mxGeometry y="210" width="179" height="26" as="geometry" />
        </mxCell>
        <mxCell id="bMqEkU54IpqbucLzSi6T-227" value="+btnSettingsPress(): void" style="text;strokeColor=none;fillColor=none;align=left;verticalAlign=top;spacingLeft=4;spacingRight=4;overflow=hidden;rotatable=0;points=[[0,0.5],[1,0.5]];portConstraint=eastwest;whiteSpace=wrap;html=1;" vertex="1" parent="bMqEkU54IpqbucLzSi6T-217">
          <mxGeometry y="236" width="179" height="26" as="geometry" />
        </mxCell>
        <mxCell id="bMqEkU54IpqbucLzSi6T-228" value="+btnLogoutPress(): void" style="text;strokeColor=none;fillColor=none;align=left;verticalAlign=top;spacingLeft=4;spacingRight=4;overflow=hidden;rotatable=0;points=[[0,0.5],[1,0.5]];portConstraint=eastwest;whiteSpace=wrap;html=1;" vertex="1" parent="bMqEkU54IpqbucLzSi6T-217">
          <mxGeometry y="262" width="179" height="26" as="geometry" />
        </mxCell>
        <mxCell id="bMqEkU54IpqbucLzSi6T-229" value="&lt;p style=&quot;font-weight: 400; margin: 4px 0px 0px;&quot;&gt;&lt;b&gt;&amp;lt;&amp;lt;Entity&amp;gt;&amp;gt;&lt;/b&gt;&lt;/p&gt;&lt;p style=&quot;font-weight: 400; margin: 4px 0px 0px;&quot;&gt;&lt;b&gt;GameMasterAccount&lt;/b&gt;&lt;/p&gt;&lt;div&gt;&lt;b&gt;&lt;br&gt;&lt;/b&gt;&lt;/div&gt;" style="swimlane;fontStyle=1;align=center;verticalAlign=top;childLayout=stackLayout;horizontal=1;startSize=47;horizontalStack=0;resizeParent=1;resizeParentMax=0;resizeLast=0;collapsible=1;marginBottom=0;whiteSpace=wrap;html=1;fillColor=#9AC7BF;" vertex="1" collapsed="1" parent="1">
          <mxGeometry x="-5380" y="-1672" width="160" height="60" as="geometry">
            <mxRectangle x="-4555" y="-1573" width="324" height="133" as="alternateBounds" />
          </mxGeometry>
        </mxCell>
        <mxCell id="bMqEkU54IpqbucLzSi6T-230" value="+ invited_Solvers: List &amp;lt;Solvers&amp;gt;" style="text;strokeColor=none;fillColor=none;align=left;verticalAlign=top;spacingLeft=4;spacingRight=4;overflow=hidden;rotatable=0;points=[[0,0.5],[1,0.5]];portConstraint=eastwest;whiteSpace=wrap;html=1;" vertex="1" parent="bMqEkU54IpqbucLzSi6T-229">
          <mxGeometry y="47" width="324" height="26" as="geometry" />
        </mxCell>
        <mxCell id="bMqEkU54IpqbucLzSi6T-231" value="" style="line;strokeWidth=1;fillColor=none;align=left;verticalAlign=middle;spacingTop=-1;spacingLeft=3;spacingRight=3;rotatable=0;labelPosition=right;points=[];portConstraint=eastwest;strokeColor=inherit;" vertex="1" parent="bMqEkU54IpqbucLzSi6T-229">
          <mxGeometry y="73" width="324" height="8" as="geometry" />
        </mxCell>
        <mxCell id="bMqEkU54IpqbucLzSi6T-232" value="+ getInvitedSolvers(): List &amp;lt;Solver&amp;gt;" style="text;strokeColor=none;fillColor=none;align=left;verticalAlign=top;spacingLeft=4;spacingRight=4;overflow=hidden;rotatable=0;points=[[0,0.5],[1,0.5]];portConstraint=eastwest;whiteSpace=wrap;html=1;" vertex="1" parent="bMqEkU54IpqbucLzSi6T-229">
          <mxGeometry y="81" width="324" height="26" as="geometry" />
        </mxCell>
        <mxCell id="bMqEkU54IpqbucLzSi6T-233" value="+ setInvitedSolvers(invitedSolvers: List &amp;lt;Solvers&amp;gt;): void" style="text;strokeColor=none;fillColor=none;align=left;verticalAlign=top;spacingLeft=4;spacingRight=4;overflow=hidden;rotatable=0;points=[[0,0.5],[1,0.5]];portConstraint=eastwest;whiteSpace=wrap;html=1;" vertex="1" parent="bMqEkU54IpqbucLzSi6T-229">
          <mxGeometry y="107" width="324" height="26" as="geometry" />
        </mxCell>
        <mxCell id="bMqEkU54IpqbucLzSi6T-234" value="" style="endArrow=open;endFill=1;endSize=12;html=1;rounded=0;entryX=0.5;entryY=0;entryDx=0;entryDy=0;exitX=0.495;exitY=1.027;exitDx=0;exitDy=0;exitPerimeter=0;" edge="1" parent="1" source="bMqEkU54IpqbucLzSi6T-206" target="bMqEkU54IpqbucLzSi6T-229">
          <mxGeometry width="160" relative="1" as="geometry">
            <mxPoint x="-4430" y="-1690" as="sourcePoint" />
            <mxPoint x="-4532" y="-1786" as="targetPoint" />
          </mxGeometry>
        </mxCell>
        <mxCell id="bMqEkU54IpqbucLzSi6T-235" value="&amp;lt;&amp;lt;Entity&amp;gt;&amp;gt;&lt;div&gt;Invitation&lt;/div&gt;" style="swimlane;fontStyle=1;align=center;verticalAlign=top;childLayout=stackLayout;horizontal=1;startSize=36;horizontalStack=0;resizeParent=1;resizeParentMax=0;resizeLast=0;collapsible=1;marginBottom=0;whiteSpace=wrap;html=1;fillColor=#9AC7BF;" vertex="1" collapsed="1" parent="1">
          <mxGeometry x="-5350" y="-1920" width="100" height="40" as="geometry">
            <mxRectangle x="-4532.5" y="-2354" width="265" height="304" as="alternateBounds" />
          </mxGeometry>
        </mxCell>
        <mxCell id="bMqEkU54IpqbucLzSi6T-236" value="+from: GameMasterAccount" style="text;whiteSpace=wrap;html=1;" vertex="1" parent="bMqEkU54IpqbucLzSi6T-235">
          <mxGeometry y="36" width="265" height="26" as="geometry" />
        </mxCell>
        <mxCell id="bMqEkU54IpqbucLzSi6T-237" value="+to: SolverAccount" style="text;whiteSpace=wrap;html=1;" vertex="1" parent="bMqEkU54IpqbucLzSi6T-235">
          <mxGeometry y="62" width="265" height="26" as="geometry" />
        </mxCell>
        <mxCell id="bMqEkU54IpqbucLzSi6T-238" value="+status: InvitationStatus" style="text;whiteSpace=wrap;html=1;" vertex="1" parent="bMqEkU54IpqbucLzSi6T-235">
          <mxGeometry y="88" width="265" height="26" as="geometry" />
        </mxCell>
        <mxCell id="bMqEkU54IpqbucLzSi6T-239" value="" style="line;strokeWidth=1;fillColor=none;align=left;verticalAlign=middle;spacingTop=-1;spacingLeft=3;spacingRight=3;rotatable=0;labelPosition=right;points=[];portConstraint=eastwest;strokeColor=inherit;" vertex="1" parent="bMqEkU54IpqbucLzSi6T-235">
          <mxGeometry y="114" width="265" height="8" as="geometry" />
        </mxCell>
        <mxCell id="bMqEkU54IpqbucLzSi6T-240" value="+Invitation(): void" style="text;whiteSpace=wrap;html=1;" vertex="1" parent="bMqEkU54IpqbucLzSi6T-235">
          <mxGeometry y="122" width="265" height="26" as="geometry" />
        </mxCell>
        <mxCell id="bMqEkU54IpqbucLzSi6T-241" value="+getFrom(): GameMasterAccount" style="text;whiteSpace=wrap;html=1;" vertex="1" parent="bMqEkU54IpqbucLzSi6T-235">
          <mxGeometry y="148" width="265" height="26" as="geometry" />
        </mxCell>
        <mxCell id="bMqEkU54IpqbucLzSi6T-242" value="+setFrom(from: GameMasterAccount): void" style="text;whiteSpace=wrap;html=1;" vertex="1" parent="bMqEkU54IpqbucLzSi6T-235">
          <mxGeometry y="174" width="265" height="26" as="geometry" />
        </mxCell>
        <mxCell id="bMqEkU54IpqbucLzSi6T-243" value="+getTo(): SolverAccount" style="text;whiteSpace=wrap;html=1;" vertex="1" parent="bMqEkU54IpqbucLzSi6T-235">
          <mxGeometry y="200" width="265" height="26" as="geometry" />
        </mxCell>
        <mxCell id="bMqEkU54IpqbucLzSi6T-244" value="+setTo(to: SolverAccount): void" style="text;whiteSpace=wrap;html=1;" vertex="1" parent="bMqEkU54IpqbucLzSi6T-235">
          <mxGeometry y="226" width="265" height="26" as="geometry" />
        </mxCell>
        <mxCell id="bMqEkU54IpqbucLzSi6T-245" value="+getInvitationStatus(): InvitationStatus" style="text;whiteSpace=wrap;html=1;" vertex="1" parent="bMqEkU54IpqbucLzSi6T-235">
          <mxGeometry y="252" width="265" height="26" as="geometry" />
        </mxCell>
        <mxCell id="bMqEkU54IpqbucLzSi6T-246" value="+setInvitationStatus(status: InvitationStatus): void" style="text;whiteSpace=wrap;html=1;" vertex="1" parent="bMqEkU54IpqbucLzSi6T-235">
          <mxGeometry y="278" width="265" height="26" as="geometry" />
        </mxCell>
        <mxCell id="bMqEkU54IpqbucLzSi6T-247" value="" style="endArrow=open;endFill=1;endSize=12;html=1;rounded=0;fontSize=12;curved=1;exitX=0.5;exitY=0;exitDx=0;exitDy=0;entryX=0.5;entryY=1;entryDx=0;entryDy=0;" edge="1" parent="1" source="bMqEkU54IpqbucLzSi6T-204" target="bMqEkU54IpqbucLzSi6T-246">
          <mxGeometry width="160" relative="1" as="geometry">
            <mxPoint x="-4592" y="-1598" as="sourcePoint" />
            <mxPoint x="-4740" y="-1920" as="targetPoint" />
          </mxGeometry>
        </mxCell>
        <mxCell id="bMqEkU54IpqbucLzSi6T-248" value="&amp;lt;&amp;lt;Boundary&amp;gt;&amp;gt;&lt;div&gt;InvitationPopUp&lt;/div&gt;" style="swimlane;fontStyle=1;align=center;verticalAlign=top;childLayout=stackLayout;horizontal=1;startSize=35;horizontalStack=0;resizeParent=1;resizeParentMax=0;resizeLast=0;collapsible=1;marginBottom=0;whiteSpace=wrap;html=1;fillColor=#CCCCFF;" vertex="1" collapsed="1" parent="1">
          <mxGeometry x="-5180" y="-1827.5" width="130" height="35" as="geometry">
            <mxRectangle x="-4380" y="-2030" width="179" height="164" as="alternateBounds" />
          </mxGeometry>
        </mxCell>
        <mxCell id="bMqEkU54IpqbucLzSi6T-249" value="+btnAccept: button" style="text;strokeColor=none;fillColor=#FFFFFF;align=left;verticalAlign=top;spacingLeft=4;spacingRight=4;overflow=hidden;rotatable=0;points=[[0,0.5],[1,0.5]];portConstraint=eastwest;whiteSpace=wrap;html=1;" vertex="1" parent="bMqEkU54IpqbucLzSi6T-248">
          <mxGeometry y="26" width="179" height="26" as="geometry" />
        </mxCell>
        <mxCell id="bMqEkU54IpqbucLzSi6T-250" value="+btnDecline: button" style="text;strokeColor=none;fillColor=#FFFFFF;align=left;verticalAlign=top;spacingLeft=4;spacingRight=4;overflow=hidden;rotatable=0;points=[[0,0.5],[1,0.5]];portConstraint=eastwest;whiteSpace=wrap;html=1;" vertex="1" parent="bMqEkU54IpqbucLzSi6T-248">
          <mxGeometry y="52" width="179" height="26" as="geometry" />
        </mxCell>
        <mxCell id="bMqEkU54IpqbucLzSi6T-251" value="+lblYouHaveInvitation: label" style="text;strokeColor=none;fillColor=#FFFFFF;align=left;verticalAlign=top;spacingLeft=4;spacingRight=4;overflow=hidden;rotatable=0;points=[[0,0.5],[1,0.5]];portConstraint=eastwest;whiteSpace=wrap;html=1;" vertex="1" parent="bMqEkU54IpqbucLzSi6T-248">
          <mxGeometry y="78" width="179" height="26" as="geometry" />
        </mxCell>
        <mxCell id="bMqEkU54IpqbucLzSi6T-252" value="" style="line;strokeWidth=1;fillColor=none;align=left;verticalAlign=middle;spacingTop=-1;spacingLeft=3;spacingRight=3;rotatable=0;labelPosition=right;points=[];portConstraint=eastwest;strokeColor=inherit;" vertex="1" parent="bMqEkU54IpqbucLzSi6T-248">
          <mxGeometry y="104" width="179" height="8" as="geometry" />
        </mxCell>
        <mxCell id="bMqEkU54IpqbucLzSi6T-253" value="+btnAcceptPress(): void" style="text;strokeColor=none;fillColor=#FFFFFF;align=left;verticalAlign=top;spacingLeft=4;spacingRight=4;overflow=hidden;rotatable=0;points=[[0,0.5],[1,0.5]];portConstraint=eastwest;whiteSpace=wrap;html=1;" vertex="1" parent="bMqEkU54IpqbucLzSi6T-248">
          <mxGeometry y="112" width="179" height="26" as="geometry" />
        </mxCell>
        <mxCell id="bMqEkU54IpqbucLzSi6T-254" value="+btnDeclinePress(): void" style="text;strokeColor=none;fillColor=#FFFFFF;align=left;verticalAlign=top;spacingLeft=4;spacingRight=4;overflow=hidden;rotatable=0;points=[[0,0.5],[1,0.5]];portConstraint=eastwest;whiteSpace=wrap;html=1;" vertex="1" parent="bMqEkU54IpqbucLzSi6T-248">
          <mxGeometry y="138" width="179" height="26" as="geometry" />
        </mxCell>
        <mxCell id="bMqEkU54IpqbucLzSi6T-255" value="" style="endArrow=open;endFill=1;endSize=12;html=1;rounded=0;fontSize=12;curved=1;exitX=0;exitY=0.5;exitDx=0;exitDy=0;entryX=1;entryY=0.5;entryDx=0;entryDy=0;" edge="1" parent="1" source="bMqEkU54IpqbucLzSi6T-248" target="bMqEkU54IpqbucLzSi6T-204">
          <mxGeometry width="160" relative="1" as="geometry">
            <mxPoint x="-4578" y="-2018" as="sourcePoint" />
            <mxPoint x="-4578" y="-1812" as="targetPoint" />
          </mxGeometry>
        </mxCell>
        <mxCell id="bMqEkU54IpqbucLzSi6T-256" value="&lt;div&gt;&amp;lt;&amp;lt;Entity&amp;gt;&amp;gt;&lt;/div&gt;Account" style="swimlane;fontStyle=1;align=center;verticalAlign=top;childLayout=stackLayout;horizontal=1;startSize=37;horizontalStack=0;resizeParent=1;resizeParentMax=0;resizeLast=0;collapsible=1;marginBottom=0;whiteSpace=wrap;html=1;fillColor=#9AC7BF;" vertex="1" collapsed="1" parent="1">
          <mxGeometry x="-5625" y="-1662" width="100" height="40" as="geometry">
            <mxRectangle x="-4520" y="-1312" width="230" height="615" as="alternateBounds" />
          </mxGeometry>
        </mxCell>
        <mxCell id="bMqEkU54IpqbucLzSi6T-257" value="+name: String&lt;div&gt;&lt;br&gt;&lt;/div&gt;" style="text;strokeColor=none;fillColor=none;align=left;verticalAlign=top;spacingLeft=4;spacingRight=4;overflow=hidden;rotatable=0;points=[[0,0.5],[1,0.5]];portConstraint=eastwest;whiteSpace=wrap;html=1;" vertex="1" parent="bMqEkU54IpqbucLzSi6T-256">
          <mxGeometry y="37" width="230" height="24" as="geometry" />
        </mxCell>
        <mxCell id="bMqEkU54IpqbucLzSi6T-258" value="+password: String&lt;div&gt;&lt;br&gt;&lt;/div&gt;&lt;div&gt;&lt;br&gt;&lt;/div&gt;" style="text;strokeColor=none;fillColor=none;align=left;verticalAlign=top;spacingLeft=4;spacingRight=4;overflow=hidden;rotatable=0;points=[[0,0.5],[1,0.5]];portConstraint=eastwest;whiteSpace=wrap;html=1;" vertex="1" parent="bMqEkU54IpqbucLzSi6T-256">
          <mxGeometry y="61" width="230" height="26" as="geometry" />
        </mxCell>
        <mxCell id="bMqEkU54IpqbucLzSi6T-259" value="+email: String&lt;div&gt;&lt;br&gt;&lt;/div&gt;&lt;div&gt;&lt;br&gt;&lt;/div&gt;" style="text;strokeColor=none;fillColor=none;align=left;verticalAlign=top;spacingLeft=4;spacingRight=4;overflow=hidden;rotatable=0;points=[[0,0.5],[1,0.5]];portConstraint=eastwest;whiteSpace=wrap;html=1;" vertex="1" parent="bMqEkU54IpqbucLzSi6T-256">
          <mxGeometry y="87" width="230" height="26" as="geometry" />
        </mxCell>
        <mxCell id="bMqEkU54IpqbucLzSi6T-260" value="+id: Integer&lt;div&gt;&lt;br&gt;&lt;/div&gt;" style="text;strokeColor=none;fillColor=none;align=left;verticalAlign=top;spacingLeft=4;spacingRight=4;overflow=hidden;rotatable=0;points=[[0,0.5],[1,0.5]];portConstraint=eastwest;whiteSpace=wrap;html=1;" vertex="1" parent="bMqEkU54IpqbucLzSi6T-256">
          <mxGeometry y="113" width="230" height="26" as="geometry" />
        </mxCell>
        <mxCell id="bMqEkU54IpqbucLzSi6T-261" value="+exists: boolean&lt;div&gt;&lt;br&gt;&lt;/div&gt;" style="text;strokeColor=none;fillColor=none;align=left;verticalAlign=top;spacingLeft=4;spacingRight=4;overflow=hidden;rotatable=0;points=[[0,0.5],[1,0.5]];portConstraint=eastwest;whiteSpace=wrap;html=1;" vertex="1" parent="bMqEkU54IpqbucLzSi6T-256">
          <mxGeometry y="139" width="230" height="26" as="geometry" />
        </mxCell>
        <mxCell id="bMqEkU54IpqbucLzSi6T-262" value="+role: String&lt;div&gt;&lt;br&gt;&lt;/div&gt;&lt;div&gt;&lt;br&gt;&lt;/div&gt;" style="text;strokeColor=none;fillColor=none;align=left;verticalAlign=top;spacingLeft=4;spacingRight=4;overflow=hidden;rotatable=0;points=[[0,0.5],[1,0.5]];portConstraint=eastwest;whiteSpace=wrap;html=1;" vertex="1" parent="bMqEkU54IpqbucLzSi6T-256">
          <mxGeometry y="165" width="230" height="26" as="geometry" />
        </mxCell>
        <mxCell id="bMqEkU54IpqbucLzSi6T-263" value="&lt;div&gt;+chosen_story: Story&lt;/div&gt;" style="text;strokeColor=none;fillColor=none;align=left;verticalAlign=top;spacingLeft=4;spacingRight=4;overflow=hidden;rotatable=0;points=[[0,0.5],[1,0.5]];portConstraint=eastwest;whiteSpace=wrap;html=1;" vertex="1" parent="bMqEkU54IpqbucLzSi6T-256">
          <mxGeometry y="191" width="230" height="26" as="geometry" />
        </mxCell>
        <mxCell id="bMqEkU54IpqbucLzSi6T-264" value="" style="line;strokeWidth=1;fillColor=none;align=left;verticalAlign=middle;spacingTop=-1;spacingLeft=3;spacingRight=3;rotatable=0;labelPosition=right;points=[];portConstraint=eastwest;strokeColor=inherit;" vertex="1" parent="bMqEkU54IpqbucLzSi6T-256">
          <mxGeometry y="217" width="230" height="8" as="geometry" />
        </mxCell>
        <mxCell id="bMqEkU54IpqbucLzSi6T-265" value="+Account(): void" style="text;strokeColor=none;fillColor=none;align=left;verticalAlign=top;spacingLeft=4;spacingRight=4;overflow=hidden;rotatable=0;points=[[0,0.5],[1,0.5]];portConstraint=eastwest;whiteSpace=wrap;html=1;" vertex="1" parent="bMqEkU54IpqbucLzSi6T-256">
          <mxGeometry y="225" width="230" height="26" as="geometry" />
        </mxCell>
        <mxCell id="bMqEkU54IpqbucLzSi6T-266" value="+getName(): String&lt;div&gt;&lt;br&gt;&lt;/div&gt;&lt;div&gt;&lt;br&gt;&lt;/div&gt;" style="text;strokeColor=none;fillColor=none;align=left;verticalAlign=top;spacingLeft=4;spacingRight=4;overflow=hidden;rotatable=0;points=[[0,0.5],[1,0.5]];portConstraint=eastwest;whiteSpace=wrap;html=1;" vertex="1" parent="bMqEkU54IpqbucLzSi6T-256">
          <mxGeometry y="251" width="230" height="26" as="geometry" />
        </mxCell>
        <mxCell id="bMqEkU54IpqbucLzSi6T-267" value="+setName(name : String): void" style="text;strokeColor=none;fillColor=none;align=left;verticalAlign=top;spacingLeft=4;spacingRight=4;overflow=hidden;rotatable=0;points=[[0,0.5],[1,0.5]];portConstraint=eastwest;whiteSpace=wrap;html=1;" vertex="1" parent="bMqEkU54IpqbucLzSi6T-256">
          <mxGeometry y="277" width="230" height="26" as="geometry" />
        </mxCell>
        <mxCell id="bMqEkU54IpqbucLzSi6T-268" value="+getPassword(): String" style="text;strokeColor=none;fillColor=none;align=left;verticalAlign=top;spacingLeft=4;spacingRight=4;overflow=hidden;rotatable=0;points=[[0,0.5],[1,0.5]];portConstraint=eastwest;whiteSpace=wrap;html=1;" vertex="1" parent="bMqEkU54IpqbucLzSi6T-256">
          <mxGeometry y="303" width="230" height="26" as="geometry" />
        </mxCell>
        <mxCell id="bMqEkU54IpqbucLzSi6T-269" value="+setPassword(password: String): void" style="text;strokeColor=none;fillColor=none;align=left;verticalAlign=top;spacingLeft=4;spacingRight=4;overflow=hidden;rotatable=0;points=[[0,0.5],[1,0.5]];portConstraint=eastwest;whiteSpace=wrap;html=1;" vertex="1" parent="bMqEkU54IpqbucLzSi6T-256">
          <mxGeometry y="329" width="230" height="26" as="geometry" />
        </mxCell>
        <mxCell id="bMqEkU54IpqbucLzSi6T-270" value="+getEmail(): String" style="text;strokeColor=none;fillColor=none;align=left;verticalAlign=top;spacingLeft=4;spacingRight=4;overflow=hidden;rotatable=0;points=[[0,0.5],[1,0.5]];portConstraint=eastwest;whiteSpace=wrap;html=1;" vertex="1" parent="bMqEkU54IpqbucLzSi6T-256">
          <mxGeometry y="355" width="230" height="26" as="geometry" />
        </mxCell>
        <mxCell id="bMqEkU54IpqbucLzSi6T-271" value="+setEmail(email: String): void" style="text;strokeColor=none;fillColor=none;align=left;verticalAlign=top;spacingLeft=4;spacingRight=4;overflow=hidden;rotatable=0;points=[[0,0.5],[1,0.5]];portConstraint=eastwest;whiteSpace=wrap;html=1;" vertex="1" parent="bMqEkU54IpqbucLzSi6T-256">
          <mxGeometry y="381" width="230" height="26" as="geometry" />
        </mxCell>
        <mxCell id="bMqEkU54IpqbucLzSi6T-272" value="+getId(): Integer" style="text;strokeColor=none;fillColor=none;align=left;verticalAlign=top;spacingLeft=4;spacingRight=4;overflow=hidden;rotatable=0;points=[[0,0.5],[1,0.5]];portConstraint=eastwest;whiteSpace=wrap;html=1;" vertex="1" parent="bMqEkU54IpqbucLzSi6T-256">
          <mxGeometry y="407" width="230" height="26" as="geometry" />
        </mxCell>
        <mxCell id="bMqEkU54IpqbucLzSi6T-273" value="+setId(id: Integer): void&lt;div&gt;&lt;br&gt;&lt;/div&gt;" style="text;strokeColor=none;fillColor=none;align=left;verticalAlign=top;spacingLeft=4;spacingRight=4;overflow=hidden;rotatable=0;points=[[0,0.5],[1,0.5]];portConstraint=eastwest;whiteSpace=wrap;html=1;" vertex="1" parent="bMqEkU54IpqbucLzSi6T-256">
          <mxGeometry y="433" width="230" height="26" as="geometry" />
        </mxCell>
        <mxCell id="bMqEkU54IpqbucLzSi6T-274" value="+getExists(): Boolean" style="text;strokeColor=none;fillColor=none;align=left;verticalAlign=top;spacingLeft=4;spacingRight=4;overflow=hidden;rotatable=0;points=[[0,0.5],[1,0.5]];portConstraint=eastwest;whiteSpace=wrap;html=1;" vertex="1" parent="bMqEkU54IpqbucLzSi6T-256">
          <mxGeometry y="459" width="230" height="26" as="geometry" />
        </mxCell>
        <mxCell id="bMqEkU54IpqbucLzSi6T-275" value="+setExists(exists: Boolean): void" style="text;strokeColor=none;fillColor=none;align=left;verticalAlign=top;spacingLeft=4;spacingRight=4;overflow=hidden;rotatable=0;points=[[0,0.5],[1,0.5]];portConstraint=eastwest;whiteSpace=wrap;html=1;" vertex="1" parent="bMqEkU54IpqbucLzSi6T-256">
          <mxGeometry y="485" width="230" height="26" as="geometry" />
        </mxCell>
        <mxCell id="bMqEkU54IpqbucLzSi6T-276" value="+getRole() : String" style="text;strokeColor=none;fillColor=none;align=left;verticalAlign=top;spacingLeft=4;spacingRight=4;overflow=hidden;rotatable=0;points=[[0,0.5],[1,0.5]];portConstraint=eastwest;whiteSpace=wrap;html=1;" vertex="1" parent="bMqEkU54IpqbucLzSi6T-256">
          <mxGeometry y="511" width="230" height="26" as="geometry" />
        </mxCell>
        <mxCell id="bMqEkU54IpqbucLzSi6T-277" value="+setRole(role String): void" style="text;strokeColor=none;fillColor=none;align=left;verticalAlign=top;spacingLeft=4;spacingRight=4;overflow=hidden;rotatable=0;points=[[0,0.5],[1,0.5]];portConstraint=eastwest;whiteSpace=wrap;html=1;" vertex="1" parent="bMqEkU54IpqbucLzSi6T-256">
          <mxGeometry y="537" width="230" height="26" as="geometry" />
        </mxCell>
        <mxCell id="bMqEkU54IpqbucLzSi6T-278" value="+getChosenStory(): Story:&amp;nbsp;" style="text;strokeColor=none;fillColor=none;align=left;verticalAlign=top;spacingLeft=4;spacingRight=4;overflow=hidden;rotatable=0;points=[[0,0.5],[1,0.5]];portConstraint=eastwest;whiteSpace=wrap;html=1;" vertex="1" parent="bMqEkU54IpqbucLzSi6T-256">
          <mxGeometry y="563" width="230" height="26" as="geometry" />
        </mxCell>
        <mxCell id="bMqEkU54IpqbucLzSi6T-279" value="+ method(type): type" style="text;strokeColor=none;fillColor=none;align=left;verticalAlign=top;spacingLeft=4;spacingRight=4;overflow=hidden;rotatable=0;points=[[0,0.5],[1,0.5]];portConstraint=eastwest;whiteSpace=wrap;html=1;" vertex="1" parent="bMqEkU54IpqbucLzSi6T-256">
          <mxGeometry y="589" width="230" height="26" as="geometry" />
        </mxCell>
        <mxCell id="bMqEkU54IpqbucLzSi6T-280" value="" style="endArrow=block;endSize=16;endFill=0;html=1;rounded=0;exitX=0.5;exitY=1;exitDx=0;exitDy=0;entryX=0.5;entryY=0;entryDx=0;entryDy=0;" edge="1" parent="1" source="bMqEkU54IpqbucLzSi6T-207" target="bMqEkU54IpqbucLzSi6T-256">
          <mxGeometry x="-0.4625" y="136" width="160" relative="1" as="geometry">
            <mxPoint x="-4790" y="-1100" as="sourcePoint" />
            <mxPoint x="-4697" y="-1199" as="targetPoint" />
            <mxPoint as="offset" />
            <Array as="points" />
          </mxGeometry>
        </mxCell>
        <mxCell id="bMqEkU54IpqbucLzSi6T-281" value="" style="endArrow=block;endSize=16;endFill=0;html=1;rounded=0;entryX=1;entryY=0.5;entryDx=0;entryDy=0;exitX=0;exitY=0.5;exitDx=0;exitDy=0;" edge="1" parent="1" source="bMqEkU54IpqbucLzSi6T-229" target="bMqEkU54IpqbucLzSi6T-256">
          <mxGeometry x="-0.4625" y="136" width="160" relative="1" as="geometry">
            <mxPoint x="-4623" y="-1537" as="sourcePoint" />
            <mxPoint x="-4395" y="-1776.5" as="targetPoint" />
            <mxPoint as="offset" />
            <Array as="points" />
          </mxGeometry>
        </mxCell>
        <mxCell id="bMqEkU54IpqbucLzSi6T-282" value="&amp;lt;&amp;lt;enumeration&amp;gt;&amp;gt;&lt;div&gt;InvitationStatus&lt;/div&gt;" style="swimlane;fontStyle=1;align=center;verticalAlign=top;childLayout=stackLayout;horizontal=1;startSize=42;horizontalStack=0;resizeParent=1;resizeParentMax=0;resizeLast=0;collapsible=1;marginBottom=0;whiteSpace=wrap;html=1;fillColor=#A9C4EB;" vertex="1" collapsed="1" parent="1">
          <mxGeometry x="-5370" y="-1981" width="140" height="42" as="geometry">
            <mxRectangle x="-4458.5" y="-2510" width="117" height="138" as="alternateBounds" />
          </mxGeometry>
        </mxCell>
        <mxCell id="bMqEkU54IpqbucLzSi6T-283" value="PENDING&lt;div&gt;&lt;br&gt;&lt;/div&gt;&lt;div&gt;ACCEPTED&lt;/div&gt;&lt;div&gt;&lt;br&gt;&lt;/div&gt;&lt;div&gt;REJECTED&lt;/div&gt;" style="text;strokeColor=none;fillColor=none;align=left;verticalAlign=top;spacingLeft=4;spacingRight=4;overflow=hidden;rotatable=0;points=[[0,0.5],[1,0.5]];portConstraint=eastwest;whiteSpace=wrap;html=1;" vertex="1" parent="bMqEkU54IpqbucLzSi6T-282">
          <mxGeometry y="42" width="117" height="88" as="geometry" />
        </mxCell>
        <mxCell id="bMqEkU54IpqbucLzSi6T-284" value="" style="line;strokeWidth=1;fillColor=none;align=left;verticalAlign=middle;spacingTop=-1;spacingLeft=3;spacingRight=3;rotatable=0;labelPosition=right;points=[];portConstraint=eastwest;strokeColor=inherit;" vertex="1" parent="bMqEkU54IpqbucLzSi6T-282">
          <mxGeometry y="130" width="117" height="8" as="geometry" />
        </mxCell>
        <mxCell id="bMqEkU54IpqbucLzSi6T-285" value="" style="endArrow=none;html=1;rounded=0;entryX=0.5;entryY=0;entryDx=0;entryDy=0;exitX=0.5;exitY=1;exitDx=0;exitDy=0;" edge="1" parent="1" source="bMqEkU54IpqbucLzSi6T-282" target="bMqEkU54IpqbucLzSi6T-235">
          <mxGeometry relative="1" as="geometry">
            <mxPoint x="-4360" y="-2414" as="sourcePoint" />
            <mxPoint x="-4400" y="-2070" as="targetPoint" />
          </mxGeometry>
        </mxCell>
        <mxCell id="bMqEkU54IpqbucLzSi6T-286" value="&amp;lt;&amp;lt;Controller&amp;gt;&amp;gt;&lt;div&gt;AccountController&lt;/div&gt;" style="swimlane;fontStyle=1;align=center;verticalAlign=top;childLayout=stackLayout;horizontal=1;startSize=45;horizontalStack=0;resizeParent=1;resizeParentMax=0;resizeLast=0;collapsible=1;marginBottom=0;whiteSpace=wrap;html=1;fillColor=#FF6666;" vertex="1" collapsed="1" parent="1">
          <mxGeometry x="-5645" y="-1590" width="140" height="45" as="geometry">
            <mxRectangle x="-3970" y="-1562.5" width="170" height="131" as="alternateBounds" />
          </mxGeometry>
        </mxCell>
        <mxCell id="bMqEkU54IpqbucLzSi6T-287" value="" style="line;strokeWidth=1;fillColor=none;align=left;verticalAlign=middle;spacingTop=-1;spacingLeft=3;spacingRight=3;rotatable=0;labelPosition=right;points=[];portConstraint=eastwest;strokeColor=inherit;" vertex="1" parent="bMqEkU54IpqbucLzSi6T-286">
          <mxGeometry y="45" width="170" height="8" as="geometry" />
        </mxCell>
        <mxCell id="bMqEkU54IpqbucLzSi6T-288" value="+create_account():void&amp;nbsp;" style="text;strokeColor=none;fillColor=none;align=left;verticalAlign=top;spacingLeft=4;spacingRight=4;overflow=hidden;rotatable=0;points=[[0,0.5],[1,0.5]];portConstraint=eastwest;whiteSpace=wrap;html=1;" vertex="1" parent="bMqEkU54IpqbucLzSi6T-286">
          <mxGeometry y="53" width="170" height="26" as="geometry" />
        </mxCell>
        <mxCell id="bMqEkU54IpqbucLzSi6T-289" value="+choose_role(): str" style="text;strokeColor=none;fillColor=none;align=left;verticalAlign=top;spacingLeft=4;spacingRight=4;overflow=hidden;rotatable=0;points=[[0,0.5],[1,0.5]];portConstraint=eastwest;whiteSpace=wrap;html=1;" vertex="1" parent="bMqEkU54IpqbucLzSi6T-286">
          <mxGeometry y="79" width="170" height="26" as="geometry" />
        </mxCell>
        <mxCell id="bMqEkU54IpqbucLzSi6T-290" value="+return_to_homepage(): void" style="text;strokeColor=none;fillColor=none;align=left;verticalAlign=top;spacingLeft=4;spacingRight=4;overflow=hidden;rotatable=0;points=[[0,0.5],[1,0.5]];portConstraint=eastwest;whiteSpace=wrap;html=1;" vertex="1" parent="bMqEkU54IpqbucLzSi6T-286">
          <mxGeometry y="105" width="170" height="26" as="geometry" />
        </mxCell>
        <mxCell id="bMqEkU54IpqbucLzSi6T-291" value="&amp;lt;&amp;lt;Controller&amp;gt;&amp;gt;&lt;div&gt;StoryController&lt;/div&gt;" style="swimlane;fontStyle=1;align=center;verticalAlign=top;childLayout=stackLayout;horizontal=1;startSize=38;horizontalStack=0;resizeParent=1;resizeParentMax=0;resizeLast=0;collapsible=1;marginBottom=0;whiteSpace=wrap;html=1;fillColor=#FF6666;" vertex="1" collapsed="1" parent="1">
          <mxGeometry x="-6049" y="-1740" width="120" height="40" as="geometry">
            <mxRectangle x="-5195" y="-1040" width="160" height="98" as="alternateBounds" />
          </mxGeometry>
        </mxCell>
        <mxCell id="bMqEkU54IpqbucLzSi6T-292" value="" style="line;strokeWidth=1;fillColor=none;align=left;verticalAlign=middle;spacingTop=-1;spacingLeft=3;spacingRight=3;rotatable=0;labelPosition=right;points=[];portConstraint=eastwest;strokeColor=inherit;" vertex="1" parent="bMqEkU54IpqbucLzSi6T-291">
          <mxGeometry y="38" width="160" height="8" as="geometry" />
        </mxCell>
        <mxCell id="bMqEkU54IpqbucLzSi6T-293" value="+ choose_story(): Story" style="text;strokeColor=none;fillColor=none;align=left;verticalAlign=top;spacingLeft=4;spacingRight=4;overflow=hidden;rotatable=0;points=[[0,0.5],[1,0.5]];portConstraint=eastwest;whiteSpace=wrap;html=1;" vertex="1" parent="bMqEkU54IpqbucLzSi6T-291">
          <mxGeometry y="46" width="160" height="26" as="geometry" />
        </mxCell>
        <mxCell id="bMqEkU54IpqbucLzSi6T-294" value="+browse_panels(): Panel" style="text;strokeColor=none;fillColor=none;align=left;verticalAlign=top;spacingLeft=4;spacingRight=4;overflow=hidden;rotatable=0;points=[[0,0.5],[1,0.5]];portConstraint=eastwest;whiteSpace=wrap;html=1;" vertex="1" parent="bMqEkU54IpqbucLzSi6T-291">
          <mxGeometry y="72" width="160" height="26" as="geometry" />
        </mxCell>
        <mxCell id="bMqEkU54IpqbucLzSi6T-295" value="" style="endArrow=open;endFill=1;endSize=12;html=1;rounded=0;entryX=0.5;entryY=1;entryDx=0;entryDy=0;exitX=0.5;exitY=0;exitDx=0;exitDy=0;" edge="1" parent="1" source="bMqEkU54IpqbucLzSi6T-286" target="bMqEkU54IpqbucLzSi6T-256">
          <mxGeometry width="160" relative="1" as="geometry">
            <mxPoint x="-4200" y="-1460" as="sourcePoint" />
            <mxPoint x="-4574" y="-1696" as="targetPoint" />
          </mxGeometry>
        </mxCell>
        <mxCell id="bMqEkU54IpqbucLzSi6T-296" value="&amp;lt;&amp;lt; Boundary&amp;gt;&amp;gt;&lt;div&gt;ChooseRoleDialog&lt;/div&gt;" style="swimlane;fontStyle=1;align=center;verticalAlign=top;childLayout=stackLayout;horizontal=1;startSize=45;horizontalStack=0;resizeParent=1;resizeParentMax=0;resizeLast=0;collapsible=1;marginBottom=0;whiteSpace=wrap;html=1;fillColor=#CCCCFF;" vertex="1" collapsed="1" parent="1">
          <mxGeometry x="-5645" y="-1500" width="140" height="45" as="geometry">
            <mxRectangle x="-4270" y="-1312" width="210" height="183" as="alternateBounds" />
          </mxGeometry>
        </mxCell>
        <mxCell id="bMqEkU54IpqbucLzSi6T-297" value="+btnSolver: button" style="text;strokeColor=none;fillColor=none;align=left;verticalAlign=top;spacingLeft=4;spacingRight=4;overflow=hidden;rotatable=0;points=[[0,0.5],[1,0.5]];portConstraint=eastwest;whiteSpace=wrap;html=1;" vertex="1" parent="bMqEkU54IpqbucLzSi6T-296">
          <mxGeometry y="45" width="210" height="26" as="geometry" />
        </mxCell>
        <mxCell id="bMqEkU54IpqbucLzSi6T-298" value="+btnGamemaster: button" style="text;strokeColor=none;fillColor=none;align=left;verticalAlign=top;spacingLeft=4;spacingRight=4;overflow=hidden;rotatable=0;points=[[0,0.5],[1,0.5]];portConstraint=eastwest;whiteSpace=wrap;html=1;" vertex="1" parent="bMqEkU54IpqbucLzSi6T-296">
          <mxGeometry y="71" width="210" height="26" as="geometry" />
        </mxCell>
        <mxCell id="bMqEkU54IpqbucLzSi6T-299" value="+lblChooseRole: label" style="text;strokeColor=none;fillColor=none;align=left;verticalAlign=top;spacingLeft=4;spacingRight=4;overflow=hidden;rotatable=0;points=[[0,0.5],[1,0.5]];portConstraint=eastwest;whiteSpace=wrap;html=1;" vertex="1" parent="bMqEkU54IpqbucLzSi6T-296">
          <mxGeometry y="97" width="210" height="26" as="geometry" />
        </mxCell>
        <mxCell id="bMqEkU54IpqbucLzSi6T-300" value="" style="line;strokeWidth=1;fillColor=none;align=left;verticalAlign=middle;spacingTop=-1;spacingLeft=3;spacingRight=3;rotatable=0;labelPosition=right;points=[];portConstraint=eastwest;strokeColor=inherit;" vertex="1" parent="bMqEkU54IpqbucLzSi6T-296">
          <mxGeometry y="123" width="210" height="8" as="geometry" />
        </mxCell>
        <mxCell id="bMqEkU54IpqbucLzSi6T-301" value="+btnSolverPress(): void" style="text;strokeColor=none;fillColor=none;align=left;verticalAlign=top;spacingLeft=4;spacingRight=4;overflow=hidden;rotatable=0;points=[[0,0.5],[1,0.5]];portConstraint=eastwest;whiteSpace=wrap;html=1;" vertex="1" parent="bMqEkU54IpqbucLzSi6T-296">
          <mxGeometry y="131" width="210" height="26" as="geometry" />
        </mxCell>
        <mxCell id="bMqEkU54IpqbucLzSi6T-302" value="+btnGamemasterPress(): void" style="text;strokeColor=none;fillColor=none;align=left;verticalAlign=top;spacingLeft=4;spacingRight=4;overflow=hidden;rotatable=0;points=[[0,0.5],[1,0.5]];portConstraint=eastwest;whiteSpace=wrap;html=1;" vertex="1" parent="bMqEkU54IpqbucLzSi6T-296">
          <mxGeometry y="157" width="210" height="26" as="geometry" />
        </mxCell>
        <mxCell id="bMqEkU54IpqbucLzSi6T-303" value="" style="endArrow=open;endFill=1;endSize=12;html=1;rounded=0;entryX=0.5;entryY=1;entryDx=0;entryDy=0;exitX=0.5;exitY=0;exitDx=0;exitDy=0;" edge="1" parent="1" source="bMqEkU54IpqbucLzSi6T-296" target="bMqEkU54IpqbucLzSi6T-286">
          <mxGeometry width="160" relative="1" as="geometry">
            <mxPoint x="-4535" y="-1332" as="sourcePoint" />
            <mxPoint x="-4240" y="-1478" as="targetPoint" />
          </mxGeometry>
        </mxCell>
        <mxCell id="bMqEkU54IpqbucLzSi6T-304" value="&amp;lt;&amp;lt; Boundary&amp;gt;&amp;gt;&lt;div&gt;HomepageGamemasterUI&lt;/div&gt;" style="swimlane;fontStyle=1;align=center;verticalAlign=top;childLayout=stackLayout;horizontal=1;startSize=45;horizontalStack=0;resizeParent=1;resizeParentMax=0;resizeLast=0;collapsible=1;marginBottom=0;whiteSpace=wrap;html=1;fillColor=#CCCCFF;" vertex="1" collapsed="1" parent="1">
          <mxGeometry x="-5495" y="-1500" width="180" height="45" as="geometry">
            <mxRectangle x="-3826" y="-1218" width="210" height="105" as="alternateBounds" />
          </mxGeometry>
        </mxCell>
        <mxCell id="bMqEkU54IpqbucLzSi6T-305" value="+btnManageInvitations: button" style="text;strokeColor=none;fillColor=none;align=left;verticalAlign=top;spacingLeft=4;spacingRight=4;overflow=hidden;rotatable=0;points=[[0,0.5],[1,0.5]];portConstraint=eastwest;whiteSpace=wrap;html=1;" vertex="1" parent="bMqEkU54IpqbucLzSi6T-304">
          <mxGeometry y="45" width="210" height="26" as="geometry" />
        </mxCell>
        <mxCell id="bMqEkU54IpqbucLzSi6T-306" value="" style="line;strokeWidth=1;fillColor=none;align=left;verticalAlign=middle;spacingTop=-1;spacingLeft=3;spacingRight=3;rotatable=0;labelPosition=right;points=[];portConstraint=eastwest;strokeColor=inherit;" vertex="1" parent="bMqEkU54IpqbucLzSi6T-304">
          <mxGeometry y="71" width="210" height="8" as="geometry" />
        </mxCell>
        <mxCell id="bMqEkU54IpqbucLzSi6T-307" value="+btnManageInvitationsPress(): void" style="text;strokeColor=none;fillColor=none;align=left;verticalAlign=top;spacingLeft=4;spacingRight=4;overflow=hidden;rotatable=0;points=[[0,0.5],[1,0.5]];portConstraint=eastwest;whiteSpace=wrap;html=1;" vertex="1" parent="bMqEkU54IpqbucLzSi6T-304">
          <mxGeometry y="79" width="210" height="26" as="geometry" />
        </mxCell>
        <mxCell id="bMqEkU54IpqbucLzSi6T-308" value="" style="endArrow=open;endFill=1;endSize=12;html=1;rounded=0;exitX=0.5;exitY=0;exitDx=0;exitDy=0;entryX=1;entryY=0.5;entryDx=0;entryDy=0;" edge="1" parent="1" source="bMqEkU54IpqbucLzSi6T-304" target="bMqEkU54IpqbucLzSi6T-286">
          <mxGeometry width="160" relative="1" as="geometry">
            <mxPoint x="-3800" y="-2161" as="sourcePoint" />
            <mxPoint x="-3990" y="-1440" as="targetPoint" />
          </mxGeometry>
        </mxCell>
        <mxCell id="bMqEkU54IpqbucLzSi6T-309" value="" style="endArrow=block;endSize=16;endFill=0;html=1;rounded=0;entryX=0.5;entryY=1;entryDx=0;entryDy=0;exitX=0.5;exitY=0;exitDx=0;exitDy=0;" edge="1" parent="1" source="bMqEkU54IpqbucLzSi6T-304" target="bMqEkU54IpqbucLzSi6T-217">
          <mxGeometry width="160" relative="1" as="geometry">
            <mxPoint x="-3870" y="-1247" as="sourcePoint" />
            <mxPoint x="-3815" y="-1143" as="targetPoint" />
          </mxGeometry>
        </mxCell>
        <mxCell id="bMqEkU54IpqbucLzSi6T-310" value="" style="endArrow=open;endFill=1;endSize=12;html=1;rounded=0;exitX=0;exitY=0.5;exitDx=0;exitDy=0;entryX=1;entryY=0.5;entryDx=0;entryDy=0;" edge="1" parent="1" source="bMqEkU54IpqbucLzSi6T-217" target="bMqEkU54IpqbucLzSi6T-286">
          <mxGeometry width="160" relative="1" as="geometry">
            <mxPoint x="-3985" y="-1340" as="sourcePoint" />
            <mxPoint x="-5575" y="-1520" as="targetPoint" />
          </mxGeometry>
        </mxCell>
        <mxCell id="bMqEkU54IpqbucLzSi6T-311" value="" style="endArrow=open;endFill=1;endSize=12;html=1;rounded=0;exitX=1;exitY=0.5;exitDx=0;exitDy=0;entryX=0;entryY=0.5;entryDx=0;entryDy=0;" edge="1" parent="1" source="bMqEkU54IpqbucLzSi6T-293" target="bMqEkU54IpqbucLzSi6T-268">
          <mxGeometry width="160" relative="1" as="geometry">
            <mxPoint x="-4740" y="-1856" as="sourcePoint" />
            <mxPoint x="-3678" y="-1296" as="targetPoint" />
          </mxGeometry>
        </mxCell>
        <mxCell id="bMqEkU54IpqbucLzSi6T-312" style="edgeStyle=orthogonalEdgeStyle;rounded=0;orthogonalLoop=1;jettySize=auto;html=1;exitX=0.5;exitY=0;exitDx=0;exitDy=0;entryX=0;entryY=0.75;entryDx=0;entryDy=0;" edge="1" parent="1" source="bMqEkU54IpqbucLzSi6T-291" target="bMqEkU54IpqbucLzSi6T-235">
          <mxGeometry relative="1" as="geometry">
            <Array as="points">
              <mxPoint x="-5989" y="-1890" />
            </Array>
            <mxPoint x="-5960" y="-1790" as="targetPoint" />
          </mxGeometry>
        </mxCell>
        <mxCell id="bMqEkU54IpqbucLzSi6T-313" value="&amp;lt;&amp;lt;Boundary&amp;gt;&amp;gt;&lt;div&gt;StoryOptionsUI&lt;/div&gt;" style="swimlane;fontStyle=1;align=center;verticalAlign=top;childLayout=stackLayout;horizontal=1;startSize=43;horizontalStack=0;resizeParent=1;resizeParentMax=0;resizeLast=0;collapsible=1;marginBottom=0;whiteSpace=wrap;html=1;fillColor=#CCCCFF;" vertex="1" collapsed="1" parent="1">
          <mxGeometry x="-6049" y="-1663" width="120" height="43" as="geometry">
            <mxRectangle x="-5190" y="-800" width="174" height="558" as="alternateBounds" />
          </mxGeometry>
        </mxCell>
        <mxCell id="bMqEkU54IpqbucLzSi6T-314" value="+lblStories: label" style="text;strokeColor=none;fillColor=none;align=left;verticalAlign=top;spacingLeft=4;spacingRight=4;overflow=hidden;rotatable=0;points=[[0,0.5],[1,0.5]];portConstraint=eastwest;whiteSpace=wrap;html=1;" vertex="1" parent="bMqEkU54IpqbucLzSi6T-313">
          <mxGeometry y="26" width="174" height="26" as="geometry" />
        </mxCell>
        <mxCell id="bMqEkU54IpqbucLzSi6T-315" value="+btnSettings: button" style="text;strokeColor=none;fillColor=none;align=left;verticalAlign=top;spacingLeft=4;spacingRight=4;overflow=hidden;rotatable=0;points=[[0,0.5],[1,0.5]];portConstraint=eastwest;whiteSpace=wrap;html=1;" vertex="1" parent="bMqEkU54IpqbucLzSi6T-313">
          <mxGeometry y="52" width="174" height="26" as="geometry" />
        </mxCell>
        <mxCell id="bMqEkU54IpqbucLzSi6T-316" value="+btnLogout: button" style="text;strokeColor=none;fillColor=none;align=left;verticalAlign=top;spacingLeft=4;spacingRight=4;overflow=hidden;rotatable=0;points=[[0,0.5],[1,0.5]];portConstraint=eastwest;whiteSpace=wrap;html=1;" vertex="1" parent="bMqEkU54IpqbucLzSi6T-313">
          <mxGeometry y="78" width="174" height="26" as="geometry" />
        </mxCell>
        <mxCell id="bMqEkU54IpqbucLzSi6T-317" value="+lblStoryName1: label" style="text;strokeColor=none;fillColor=none;align=left;verticalAlign=top;spacingLeft=4;spacingRight=4;overflow=hidden;rotatable=0;points=[[0,0.5],[1,0.5]];portConstraint=eastwest;whiteSpace=wrap;html=1;" vertex="1" parent="bMqEkU54IpqbucLzSi6T-313">
          <mxGeometry y="104" width="174" height="26" as="geometry" />
        </mxCell>
        <mxCell id="bMqEkU54IpqbucLzSi6T-318" value="+lblStoryName2: label" style="text;strokeColor=none;fillColor=none;align=left;verticalAlign=top;spacingLeft=4;spacingRight=4;overflow=hidden;rotatable=0;points=[[0,0.5],[1,0.5]];portConstraint=eastwest;whiteSpace=wrap;html=1;" vertex="1" parent="bMqEkU54IpqbucLzSi6T-313">
          <mxGeometry y="130" width="174" height="26" as="geometry" />
        </mxCell>
        <mxCell id="bMqEkU54IpqbucLzSi6T-319" value="+lblStoryName3: label" style="text;strokeColor=none;fillColor=none;align=left;verticalAlign=top;spacingLeft=4;spacingRight=4;overflow=hidden;rotatable=0;points=[[0,0.5],[1,0.5]];portConstraint=eastwest;whiteSpace=wrap;html=1;" vertex="1" parent="bMqEkU54IpqbucLzSi6T-313">
          <mxGeometry y="156" width="174" height="26" as="geometry" />
        </mxCell>
        <mxCell id="bMqEkU54IpqbucLzSi6T-320" value="+imgStoryCover1: image" style="text;strokeColor=none;fillColor=none;align=left;verticalAlign=top;spacingLeft=4;spacingRight=4;overflow=hidden;rotatable=0;points=[[0,0.5],[1,0.5]];portConstraint=eastwest;whiteSpace=wrap;html=1;" vertex="1" parent="bMqEkU54IpqbucLzSi6T-313">
          <mxGeometry y="182" width="174" height="26" as="geometry" />
        </mxCell>
        <mxCell id="bMqEkU54IpqbucLzSi6T-321" value="+imgStoryCover2: image" style="text;strokeColor=none;fillColor=none;align=left;verticalAlign=top;spacingLeft=4;spacingRight=4;overflow=hidden;rotatable=0;points=[[0,0.5],[1,0.5]];portConstraint=eastwest;whiteSpace=wrap;html=1;" vertex="1" parent="bMqEkU54IpqbucLzSi6T-313">
          <mxGeometry y="208" width="174" height="26" as="geometry" />
        </mxCell>
        <mxCell id="bMqEkU54IpqbucLzSi6T-322" value="+imgStoryCover3: image" style="text;strokeColor=none;fillColor=none;align=left;verticalAlign=top;spacingLeft=4;spacingRight=4;overflow=hidden;rotatable=0;points=[[0,0.5],[1,0.5]];portConstraint=eastwest;whiteSpace=wrap;html=1;" vertex="1" parent="bMqEkU54IpqbucLzSi6T-313">
          <mxGeometry y="234" width="174" height="26" as="geometry" />
        </mxCell>
        <mxCell id="bMqEkU54IpqbucLzSi6T-323" value="+txtStoryContent1: text" style="text;strokeColor=none;fillColor=none;align=left;verticalAlign=top;spacingLeft=4;spacingRight=4;overflow=hidden;rotatable=0;points=[[0,0.5],[1,0.5]];portConstraint=eastwest;whiteSpace=wrap;html=1;" vertex="1" parent="bMqEkU54IpqbucLzSi6T-313">
          <mxGeometry y="260" width="174" height="26" as="geometry" />
        </mxCell>
        <mxCell id="bMqEkU54IpqbucLzSi6T-324" value="+txtStoryContent2: text" style="text;strokeColor=none;fillColor=none;align=left;verticalAlign=top;spacingLeft=4;spacingRight=4;overflow=hidden;rotatable=0;points=[[0,0.5],[1,0.5]];portConstraint=eastwest;whiteSpace=wrap;html=1;" vertex="1" parent="bMqEkU54IpqbucLzSi6T-313">
          <mxGeometry y="286" width="174" height="26" as="geometry" />
        </mxCell>
        <mxCell id="bMqEkU54IpqbucLzSi6T-325" value="+txtStoryContent1: text" style="text;strokeColor=none;fillColor=none;align=left;verticalAlign=top;spacingLeft=4;spacingRight=4;overflow=hidden;rotatable=0;points=[[0,0.5],[1,0.5]];portConstraint=eastwest;whiteSpace=wrap;html=1;" vertex="1" parent="bMqEkU54IpqbucLzSi6T-313">
          <mxGeometry y="312" width="174" height="26" as="geometry" />
        </mxCell>
        <mxCell id="bMqEkU54IpqbucLzSi6T-326" value="+btnDownArrow: button" style="text;strokeColor=none;fillColor=none;align=left;verticalAlign=top;spacingLeft=4;spacingRight=4;overflow=hidden;rotatable=0;points=[[0,0.5],[1,0.5]];portConstraint=eastwest;whiteSpace=wrap;html=1;" vertex="1" parent="bMqEkU54IpqbucLzSi6T-313">
          <mxGeometry y="338" width="174" height="26" as="geometry" />
        </mxCell>
        <mxCell id="bMqEkU54IpqbucLzSi6T-327" value="+btnRightArrow1: button" style="text;strokeColor=none;fillColor=none;align=left;verticalAlign=top;spacingLeft=4;spacingRight=4;overflow=hidden;rotatable=0;points=[[0,0.5],[1,0.5]];portConstraint=eastwest;whiteSpace=wrap;html=1;" vertex="1" parent="bMqEkU54IpqbucLzSi6T-313">
          <mxGeometry y="364" width="174" height="26" as="geometry" />
        </mxCell>
        <mxCell id="bMqEkU54IpqbucLzSi6T-328" value="+btnRightArrow2: button" style="text;strokeColor=none;fillColor=none;align=left;verticalAlign=top;spacingLeft=4;spacingRight=4;overflow=hidden;rotatable=0;points=[[0,0.5],[1,0.5]];portConstraint=eastwest;whiteSpace=wrap;html=1;" vertex="1" parent="bMqEkU54IpqbucLzSi6T-313">
          <mxGeometry y="390" width="174" height="26" as="geometry" />
        </mxCell>
        <mxCell id="bMqEkU54IpqbucLzSi6T-329" value="+btnRightArrow3: button" style="text;strokeColor=none;fillColor=none;align=left;verticalAlign=top;spacingLeft=4;spacingRight=4;overflow=hidden;rotatable=0;points=[[0,0.5],[1,0.5]];portConstraint=eastwest;whiteSpace=wrap;html=1;" vertex="1" parent="bMqEkU54IpqbucLzSi6T-313">
          <mxGeometry y="416" width="174" height="26" as="geometry" />
        </mxCell>
        <mxCell id="bMqEkU54IpqbucLzSi6T-330" value="" style="line;strokeWidth=1;fillColor=none;align=left;verticalAlign=middle;spacingTop=-1;spacingLeft=3;spacingRight=3;rotatable=0;labelPosition=right;points=[];portConstraint=eastwest;strokeColor=inherit;" vertex="1" parent="bMqEkU54IpqbucLzSi6T-313">
          <mxGeometry y="442" width="174" height="8" as="geometry" />
        </mxCell>
        <mxCell id="bMqEkU54IpqbucLzSi6T-331" value="+btnRightArrow1Press(): void" style="text;strokeColor=none;fillColor=none;align=left;verticalAlign=top;spacingLeft=4;spacingRight=4;overflow=hidden;rotatable=0;points=[[0,0.5],[1,0.5]];portConstraint=eastwest;whiteSpace=wrap;html=1;" vertex="1" parent="bMqEkU54IpqbucLzSi6T-313">
          <mxGeometry y="450" width="174" height="30" as="geometry" />
        </mxCell>
        <mxCell id="bMqEkU54IpqbucLzSi6T-332" value="+btnRightArrow2Press(): void" style="text;strokeColor=none;fillColor=none;align=left;verticalAlign=top;spacingLeft=4;spacingRight=4;overflow=hidden;rotatable=0;points=[[0,0.5],[1,0.5]];portConstraint=eastwest;whiteSpace=wrap;html=1;" vertex="1" parent="bMqEkU54IpqbucLzSi6T-313">
          <mxGeometry y="480" width="174" height="26" as="geometry" />
        </mxCell>
        <mxCell id="bMqEkU54IpqbucLzSi6T-333" value="+btnRightArr&lt;span style=&quot;color: rgba(0, 0, 0, 0); font-family: monospace; font-size: 0px; text-wrap-mode: nowrap;&quot;&gt;%3CmxGraphModel%3E%3Croot%3E%3CmxCell%20id%3D%220%22%2F%3E%3CmxCell%20id%3D%221%22%20parent%3D%220%22%2F%3E%3CmxCell%20id%3D%222%22%20value%3D%22%2BbtnRightArrow1Press()%3A%20void%22%20style%3D%22text%3BstrokeColor%3Dnone%3BfillColor%3Dnone%3Balign%3Dleft%3BverticalAlign%3Dtop%3BspacingLeft%3D4%3BspacingRight%3D4%3Boverflow%3Dhidden%3Brotatable%3D0%3Bpoints%3D%5B%5B0%2C0.5%5D%2C%5B1%2C0.5%5D%5D%3BportConstraint%3Deastwest%3BwhiteSpace%3Dwrap%3Bhtml%3D1%3B%22%20vertex%3D%221%22%20parent%3D%221%22%3E%3CmxGeometry%20x%3D%22-3084%22%20y%3D%22-1960%22%20width%3D%22174%22%20height%3D%2226%22%20as%3D%22geometry%22%2F%3E%3C%2FmxCell%3E%3C%2Froot%3E%3C%2FmxGraphModel%3E&lt;/span&gt;ow3Press(): void" style="text;strokeColor=none;fillColor=none;align=left;verticalAlign=top;spacingLeft=4;spacingRight=4;overflow=hidden;rotatable=0;points=[[0,0.5],[1,0.5]];portConstraint=eastwest;whiteSpace=wrap;html=1;" vertex="1" parent="bMqEkU54IpqbucLzSi6T-313">
          <mxGeometry y="506" width="174" height="26" as="geometry" />
        </mxCell>
        <mxCell id="bMqEkU54IpqbucLzSi6T-334" value="+btnDownArrowPress(): void" style="text;strokeColor=none;fillColor=none;align=left;verticalAlign=top;spacingLeft=4;spacingRight=4;overflow=hidden;rotatable=0;points=[[0,0.5],[1,0.5]];portConstraint=eastwest;whiteSpace=wrap;html=1;" vertex="1" parent="bMqEkU54IpqbucLzSi6T-313">
          <mxGeometry y="532" width="174" height="26" as="geometry" />
        </mxCell>
        <mxCell id="bMqEkU54IpqbucLzSi6T-335" value="" style="endArrow=open;endFill=1;endSize=12;html=1;rounded=0;entryX=0.5;entryY=1;entryDx=0;entryDy=0;exitX=0.5;exitY=0;exitDx=0;exitDy=0;" edge="1" parent="1" source="bMqEkU54IpqbucLzSi6T-313" target="bMqEkU54IpqbucLzSi6T-291">
          <mxGeometry width="160" relative="1" as="geometry">
            <mxPoint x="-4973" y="-1591" as="sourcePoint" />
            <mxPoint x="-4973" y="-1677" as="targetPoint" />
            <Array as="points" />
          </mxGeometry>
        </mxCell>
        <mxCell id="bMqEkU54IpqbucLzSi6T-336" value="&amp;lt;&amp;lt;Entity&amp;gt;&amp;gt;&lt;div&gt;Story&lt;/div&gt;" style="swimlane;fontStyle=1;align=center;verticalAlign=top;childLayout=stackLayout;horizontal=1;startSize=39;horizontalStack=0;resizeParent=1;resizeParentMax=0;resizeLast=0;collapsible=1;marginBottom=0;whiteSpace=wrap;html=1;fillColor=#9AC7BF;" vertex="1" collapsed="1" parent="1">
          <mxGeometry x="-6205" y="-1740" width="100" height="40" as="geometry">
            <mxRectangle x="-5465" y="-1047.5" width="220" height="463" as="alternateBounds" />
          </mxGeometry>
        </mxCell>
        <mxCell id="bMqEkU54IpqbucLzSi6T-337" value="+chosen: Boolean" style="text;strokeColor=none;fillColor=none;align=left;verticalAlign=top;spacingLeft=4;spacingRight=4;overflow=hidden;rotatable=0;points=[[0,0.5],[1,0.5]];portConstraint=eastwest;whiteSpace=wrap;html=1;" vertex="1" parent="bMqEkU54IpqbucLzSi6T-336">
          <mxGeometry y="39" width="220" height="26" as="geometry" />
        </mxCell>
        <mxCell id="bMqEkU54IpqbucLzSi6T-338" value="+id: Integer" style="text;strokeColor=none;fillColor=none;align=left;verticalAlign=top;spacingLeft=4;spacingRight=4;overflow=hidden;rotatable=0;points=[[0,0.5],[1,0.5]];portConstraint=eastwest;whiteSpace=wrap;html=1;" vertex="1" parent="bMqEkU54IpqbucLzSi6T-336">
          <mxGeometry y="65" width="220" height="26" as="geometry" />
        </mxCell>
        <mxCell id="bMqEkU54IpqbucLzSi6T-339" value="&lt;div&gt;+title: String&lt;/div&gt;" style="text;strokeColor=none;fillColor=none;align=left;verticalAlign=top;spacingLeft=4;spacingRight=4;overflow=hidden;rotatable=0;points=[[0,0.5],[1,0.5]];portConstraint=eastwest;whiteSpace=wrap;html=1;" vertex="1" parent="bMqEkU54IpqbucLzSi6T-336">
          <mxGeometry y="91" width="220" height="26" as="geometry" />
        </mxCell>
        <mxCell id="bMqEkU54IpqbucLzSi6T-340" value="&lt;div&gt;+panels: List&amp;lt;Panel&amp;gt;&lt;/div&gt;" style="text;strokeColor=none;fillColor=none;align=left;verticalAlign=top;spacingLeft=4;spacingRight=4;overflow=hidden;rotatable=0;points=[[0,0.5],[1,0.5]];portConstraint=eastwest;whiteSpace=wrap;html=1;" vertex="1" parent="bMqEkU54IpqbucLzSi6T-336">
          <mxGeometry y="117" width="220" height="26" as="geometry" />
        </mxCell>
        <mxCell id="bMqEkU54IpqbucLzSi6T-341" value="&lt;div&gt;+riddles: List&amp;lt;Riddle&amp;gt;&lt;/div&gt;" style="text;strokeColor=none;fillColor=none;align=left;verticalAlign=top;spacingLeft=4;spacingRight=4;overflow=hidden;rotatable=0;points=[[0,0.5],[1,0.5]];portConstraint=eastwest;whiteSpace=wrap;html=1;" vertex="1" parent="bMqEkU54IpqbucLzSi6T-336">
          <mxGeometry y="143" width="220" height="26" as="geometry" />
        </mxCell>
        <mxCell id="bMqEkU54IpqbucLzSi6T-342" value="" style="line;strokeWidth=1;fillColor=none;align=left;verticalAlign=middle;spacingTop=-1;spacingLeft=3;spacingRight=3;rotatable=0;labelPosition=right;points=[];portConstraint=eastwest;strokeColor=inherit;" vertex="1" parent="bMqEkU54IpqbucLzSi6T-336">
          <mxGeometry y="169" width="220" height="8" as="geometry" />
        </mxCell>
        <mxCell id="bMqEkU54IpqbucLzSi6T-343" value="+Story(): void" style="text;strokeColor=none;fillColor=none;align=left;verticalAlign=top;spacingLeft=4;spacingRight=4;overflow=hidden;rotatable=0;points=[[0,0.5],[1,0.5]];portConstraint=eastwest;whiteSpace=wrap;html=1;" vertex="1" parent="bMqEkU54IpqbucLzSi6T-336">
          <mxGeometry y="177" width="220" height="26" as="geometry" />
        </mxCell>
        <mxCell id="bMqEkU54IpqbucLzSi6T-344" value="+getChosen(): Boolean" style="text;strokeColor=none;fillColor=none;align=left;verticalAlign=top;spacingLeft=4;spacingRight=4;overflow=hidden;rotatable=0;points=[[0,0.5],[1,0.5]];portConstraint=eastwest;whiteSpace=wrap;html=1;" vertex="1" parent="bMqEkU54IpqbucLzSi6T-336">
          <mxGeometry y="203" width="220" height="26" as="geometry" />
        </mxCell>
        <mxCell id="bMqEkU54IpqbucLzSi6T-345" value="+setChosen(chosen: Boolean): void" style="text;strokeColor=none;fillColor=none;align=left;verticalAlign=top;spacingLeft=4;spacingRight=4;overflow=hidden;rotatable=0;points=[[0,0.5],[1,0.5]];portConstraint=eastwest;whiteSpace=wrap;html=1;" vertex="1" parent="bMqEkU54IpqbucLzSi6T-336">
          <mxGeometry y="229" width="220" height="26" as="geometry" />
        </mxCell>
        <mxCell id="bMqEkU54IpqbucLzSi6T-346" value="+getId(): Integer" style="text;strokeColor=none;fillColor=none;align=left;verticalAlign=top;spacingLeft=4;spacingRight=4;overflow=hidden;rotatable=0;points=[[0,0.5],[1,0.5]];portConstraint=eastwest;whiteSpace=wrap;html=1;" vertex="1" parent="bMqEkU54IpqbucLzSi6T-336">
          <mxGeometry y="255" width="220" height="26" as="geometry" />
        </mxCell>
        <mxCell id="bMqEkU54IpqbucLzSi6T-347" value="+setId(id: Integer): void" style="text;strokeColor=none;fillColor=none;align=left;verticalAlign=top;spacingLeft=4;spacingRight=4;overflow=hidden;rotatable=0;points=[[0,0.5],[1,0.5]];portConstraint=eastwest;whiteSpace=wrap;html=1;" vertex="1" parent="bMqEkU54IpqbucLzSi6T-336">
          <mxGeometry y="281" width="220" height="26" as="geometry" />
        </mxCell>
        <mxCell id="bMqEkU54IpqbucLzSi6T-348" value="+getTitle(): String" style="text;strokeColor=none;fillColor=none;align=left;verticalAlign=top;spacingLeft=4;spacingRight=4;overflow=hidden;rotatable=0;points=[[0,0.5],[1,0.5]];portConstraint=eastwest;whiteSpace=wrap;html=1;" vertex="1" parent="bMqEkU54IpqbucLzSi6T-336">
          <mxGeometry y="307" width="220" height="26" as="geometry" />
        </mxCell>
        <mxCell id="bMqEkU54IpqbucLzSi6T-349" value="+setTitle(title: String): void" style="text;strokeColor=none;fillColor=none;align=left;verticalAlign=top;spacingLeft=4;spacingRight=4;overflow=hidden;rotatable=0;points=[[0,0.5],[1,0.5]];portConstraint=eastwest;whiteSpace=wrap;html=1;" vertex="1" parent="bMqEkU54IpqbucLzSi6T-336">
          <mxGeometry y="333" width="220" height="26" as="geometry" />
        </mxCell>
        <mxCell id="bMqEkU54IpqbucLzSi6T-350" value="+getPanels(): List&amp;lt;Panel&amp;gt;" style="text;strokeColor=none;fillColor=none;align=left;verticalAlign=top;spacingLeft=4;spacingRight=4;overflow=hidden;rotatable=0;points=[[0,0.5],[1,0.5]];portConstraint=eastwest;whiteSpace=wrap;html=1;" vertex="1" parent="bMqEkU54IpqbucLzSi6T-336">
          <mxGeometry y="359" width="220" height="26" as="geometry" />
        </mxCell>
        <mxCell id="bMqEkU54IpqbucLzSi6T-351" value="+setPanels(panels: List&amp;lt;Panel&amp;gt;): void" style="text;strokeColor=none;fillColor=none;align=left;verticalAlign=top;spacingLeft=4;spacingRight=4;overflow=hidden;rotatable=0;points=[[0,0.5],[1,0.5]];portConstraint=eastwest;whiteSpace=wrap;html=1;" vertex="1" parent="bMqEkU54IpqbucLzSi6T-336">
          <mxGeometry y="385" width="220" height="26" as="geometry" />
        </mxCell>
        <mxCell id="bMqEkU54IpqbucLzSi6T-352" value="+getRiddles(): List&amp;lt;Riddle&amp;gt;" style="text;strokeColor=none;fillColor=none;align=left;verticalAlign=top;spacingLeft=4;spacingRight=4;overflow=hidden;rotatable=0;points=[[0,0.5],[1,0.5]];portConstraint=eastwest;whiteSpace=wrap;html=1;" vertex="1" parent="bMqEkU54IpqbucLzSi6T-336">
          <mxGeometry y="411" width="220" height="26" as="geometry" />
        </mxCell>
        <mxCell id="bMqEkU54IpqbucLzSi6T-353" value="+setRiddles(riddle: List&amp;lt;Riddle&amp;gt;): void" style="text;strokeColor=none;fillColor=none;align=left;verticalAlign=top;spacingLeft=4;spacingRight=4;overflow=hidden;rotatable=0;points=[[0,0.5],[1,0.5]];portConstraint=eastwest;whiteSpace=wrap;html=1;" vertex="1" parent="bMqEkU54IpqbucLzSi6T-336">
          <mxGeometry y="437" width="220" height="26" as="geometry" />
        </mxCell>
        <mxCell id="bMqEkU54IpqbucLzSi6T-354" value="" style="endArrow=open;endFill=1;endSize=12;html=1;rounded=0;entryX=1;entryY=0.5;entryDx=0;entryDy=0;exitX=0;exitY=0.5;exitDx=0;exitDy=0;" edge="1" parent="1" source="bMqEkU54IpqbucLzSi6T-291" target="bMqEkU54IpqbucLzSi6T-340">
          <mxGeometry width="160" relative="1" as="geometry">
            <mxPoint x="-5233" y="-1100" as="sourcePoint" />
            <mxPoint x="-5233" y="-1196" as="targetPoint" />
            <Array as="points" />
          </mxGeometry>
        </mxCell>
        <mxCell id="bMqEkU54IpqbucLzSi6T-355" value="&lt;div&gt;&amp;lt;&amp;lt;Boundary&amp;gt;&amp;gt;&lt;/div&gt;StoryPanelUI" style="swimlane;fontStyle=1;align=center;verticalAlign=top;childLayout=stackLayout;horizontal=1;startSize=39;horizontalStack=0;resizeParent=1;resizeParentMax=0;resizeLast=0;collapsible=1;marginBottom=0;whiteSpace=wrap;html=1;fillColor=#CCCCFF;" vertex="1" collapsed="1" parent="1">
          <mxGeometry x="-6049" y="-1600" width="120" height="40" as="geometry">
            <mxRectangle x="-4990" y="-800" width="204" height="255" as="alternateBounds" />
          </mxGeometry>
        </mxCell>
        <mxCell id="bMqEkU54IpqbucLzSi6T-356" value="+btnLeftArrow: button" style="text;strokeColor=none;fillColor=none;align=left;verticalAlign=top;spacingLeft=4;spacingRight=4;overflow=hidden;rotatable=0;points=[[0,0.5],[1,0.5]];portConstraint=eastwest;whiteSpace=wrap;html=1;" vertex="1" parent="bMqEkU54IpqbucLzSi6T-355">
          <mxGeometry y="39" width="204" height="26" as="geometry" />
        </mxCell>
        <mxCell id="bMqEkU54IpqbucLzSi6T-357" value="+btnRightArrow: button" style="text;strokeColor=none;fillColor=none;align=left;verticalAlign=top;spacingLeft=4;spacingRight=4;overflow=hidden;rotatable=0;points=[[0,0.5],[1,0.5]];portConstraint=eastwest;whiteSpace=wrap;html=1;" vertex="1" parent="bMqEkU54IpqbucLzSi6T-355">
          <mxGeometry y="65" width="204" height="26" as="geometry" />
        </mxCell>
        <mxCell id="bMqEkU54IpqbucLzSi6T-358" value="+btnReturnHome: button" style="text;strokeColor=none;fillColor=none;align=left;verticalAlign=top;spacingLeft=4;spacingRight=4;overflow=hidden;rotatable=0;points=[[0,0.5],[1,0.5]];portConstraint=eastwest;whiteSpace=wrap;html=1;" vertex="1" parent="bMqEkU54IpqbucLzSi6T-355">
          <mxGeometry y="91" width="204" height="26" as="geometry" />
        </mxCell>
        <mxCell id="bMqEkU54IpqbucLzSi6T-359" value="+imgRightPanel: image" style="text;strokeColor=none;fillColor=none;align=left;verticalAlign=top;spacingLeft=4;spacingRight=4;overflow=hidden;rotatable=0;points=[[0,0.5],[1,0.5]];portConstraint=eastwest;whiteSpace=wrap;html=1;" vertex="1" parent="bMqEkU54IpqbucLzSi6T-355">
          <mxGeometry y="117" width="204" height="26" as="geometry" />
        </mxCell>
        <mxCell id="bMqEkU54IpqbucLzSi6T-360" value="+imgLeftPanel: image" style="text;strokeColor=none;fillColor=none;align=left;verticalAlign=top;spacingLeft=4;spacingRight=4;overflow=hidden;rotatable=0;points=[[0,0.5],[1,0.5]];portConstraint=eastwest;whiteSpace=wrap;html=1;" vertex="1" parent="bMqEkU54IpqbucLzSi6T-355">
          <mxGeometry y="143" width="204" height="26" as="geometry" />
        </mxCell>
        <mxCell id="bMqEkU54IpqbucLzSi6T-361" value="" style="line;strokeWidth=1;fillColor=none;align=left;verticalAlign=middle;spacingTop=-1;spacingLeft=3;spacingRight=3;rotatable=0;labelPosition=right;points=[];portConstraint=eastwest;strokeColor=inherit;" vertex="1" parent="bMqEkU54IpqbucLzSi6T-355">
          <mxGeometry y="169" width="204" height="8" as="geometry" />
        </mxCell>
        <mxCell id="bMqEkU54IpqbucLzSi6T-362" value="+btnLeftArrowPress(): void" style="text;strokeColor=none;fillColor=none;align=left;verticalAlign=top;spacingLeft=4;spacingRight=4;overflow=hidden;rotatable=0;points=[[0,0.5],[1,0.5]];portConstraint=eastwest;whiteSpace=wrap;html=1;" vertex="1" parent="bMqEkU54IpqbucLzSi6T-355">
          <mxGeometry y="177" width="204" height="26" as="geometry" />
        </mxCell>
        <mxCell id="bMqEkU54IpqbucLzSi6T-363" value="+btnRightArrowPress(): void" style="text;strokeColor=none;fillColor=none;align=left;verticalAlign=top;spacingLeft=4;spacingRight=4;overflow=hidden;rotatable=0;points=[[0,0.5],[1,0.5]];portConstraint=eastwest;whiteSpace=wrap;html=1;" vertex="1" parent="bMqEkU54IpqbucLzSi6T-355">
          <mxGeometry y="203" width="204" height="26" as="geometry" />
        </mxCell>
        <mxCell id="bMqEkU54IpqbucLzSi6T-364" value="+btnReturnHomePress(): void" style="text;strokeColor=none;fillColor=none;align=left;verticalAlign=top;spacingLeft=4;spacingRight=4;overflow=hidden;rotatable=0;points=[[0,0.5],[1,0.5]];portConstraint=eastwest;whiteSpace=wrap;html=1;" vertex="1" parent="bMqEkU54IpqbucLzSi6T-355">
          <mxGeometry y="229" width="204" height="26" as="geometry" />
        </mxCell>
        <mxCell id="bMqEkU54IpqbucLzSi6T-365" value="&lt;div&gt;&amp;lt;&amp;lt;Entity&amp;gt;&amp;gt;&lt;/div&gt;Panel" style="swimlane;fontStyle=1;align=center;verticalAlign=top;childLayout=stackLayout;horizontal=1;startSize=39;horizontalStack=0;resizeParent=1;resizeParentMax=0;resizeLast=0;collapsible=1;marginBottom=0;whiteSpace=wrap;html=1;fillColor=#9AC7BF;" vertex="1" collapsed="1" parent="1">
          <mxGeometry x="-6205" y="-1620" width="100" height="40" as="geometry">
            <mxRectangle x="-5445" y="-450" width="204" height="229" as="alternateBounds" />
          </mxGeometry>
        </mxCell>
        <mxCell id="bMqEkU54IpqbucLzSi6T-366" value="+id: Integer" style="text;strokeColor=none;fillColor=none;align=left;verticalAlign=top;spacingLeft=4;spacingRight=4;overflow=hidden;rotatable=0;points=[[0,0.5],[1,0.5]];portConstraint=eastwest;whiteSpace=wrap;html=1;" vertex="1" parent="bMqEkU54IpqbucLzSi6T-365">
          <mxGeometry y="39" width="204" height="26" as="geometry" />
        </mxCell>
        <mxCell id="bMqEkU54IpqbucLzSi6T-367" value="+content: Image" style="text;strokeColor=none;fillColor=none;align=left;verticalAlign=top;spacingLeft=4;spacingRight=4;overflow=hidden;rotatable=0;points=[[0,0.5],[1,0.5]];portConstraint=eastwest;whiteSpace=wrap;html=1;" vertex="1" parent="bMqEkU54IpqbucLzSi6T-365">
          <mxGeometry y="65" width="204" height="26" as="geometry" />
        </mxCell>
        <mxCell id="bMqEkU54IpqbucLzSi6T-368" value="" style="line;strokeWidth=1;fillColor=none;align=left;verticalAlign=middle;spacingTop=-1;spacingLeft=3;spacingRight=3;rotatable=0;labelPosition=right;points=[];portConstraint=eastwest;strokeColor=inherit;" vertex="1" parent="bMqEkU54IpqbucLzSi6T-365">
          <mxGeometry y="91" width="204" height="8" as="geometry" />
        </mxCell>
        <mxCell id="bMqEkU54IpqbucLzSi6T-369" value="+Panel(): void" style="text;strokeColor=none;fillColor=none;align=left;verticalAlign=top;spacingLeft=4;spacingRight=4;overflow=hidden;rotatable=0;points=[[0,0.5],[1,0.5]];portConstraint=eastwest;whiteSpace=wrap;html=1;" vertex="1" parent="bMqEkU54IpqbucLzSi6T-365">
          <mxGeometry y="99" width="204" height="26" as="geometry" />
        </mxCell>
        <mxCell id="bMqEkU54IpqbucLzSi6T-370" value="+getId(): Integer" style="text;strokeColor=none;fillColor=none;align=left;verticalAlign=top;spacingLeft=4;spacingRight=4;overflow=hidden;rotatable=0;points=[[0,0.5],[1,0.5]];portConstraint=eastwest;whiteSpace=wrap;html=1;" vertex="1" parent="bMqEkU54IpqbucLzSi6T-365">
          <mxGeometry y="125" width="204" height="26" as="geometry" />
        </mxCell>
        <mxCell id="bMqEkU54IpqbucLzSi6T-371" value="+setId(id: Integer): void" style="text;strokeColor=none;fillColor=none;align=left;verticalAlign=top;spacingLeft=4;spacingRight=4;overflow=hidden;rotatable=0;points=[[0,0.5],[1,0.5]];portConstraint=eastwest;whiteSpace=wrap;html=1;" vertex="1" parent="bMqEkU54IpqbucLzSi6T-365">
          <mxGeometry y="151" width="204" height="26" as="geometry" />
        </mxCell>
        <mxCell id="bMqEkU54IpqbucLzSi6T-372" value="+setContent(content: Image): void" style="text;strokeColor=none;fillColor=none;align=left;verticalAlign=top;spacingLeft=4;spacingRight=4;overflow=hidden;rotatable=0;points=[[0,0.5],[1,0.5]];portConstraint=eastwest;whiteSpace=wrap;html=1;" vertex="1" parent="bMqEkU54IpqbucLzSi6T-365">
          <mxGeometry y="177" width="204" height="26" as="geometry" />
        </mxCell>
        <mxCell id="bMqEkU54IpqbucLzSi6T-373" value="+getContent(): Image" style="text;strokeColor=none;fillColor=none;align=left;verticalAlign=top;spacingLeft=4;spacingRight=4;overflow=hidden;rotatable=0;points=[[0,0.5],[1,0.5]];portConstraint=eastwest;whiteSpace=wrap;html=1;" vertex="1" parent="bMqEkU54IpqbucLzSi6T-365">
          <mxGeometry y="203" width="204" height="26" as="geometry" />
        </mxCell>
        <mxCell id="bMqEkU54IpqbucLzSi6T-374" value="" style="endArrow=diamondThin;endFill=1;endSize=24;html=1;rounded=0;entryX=0.5;entryY=1;entryDx=0;entryDy=0;exitX=0.5;exitY=0;exitDx=0;exitDy=0;" edge="1" parent="1" source="bMqEkU54IpqbucLzSi6T-365" target="bMqEkU54IpqbucLzSi6T-336">
          <mxGeometry width="160" relative="1" as="geometry">
            <mxPoint x="-4890" y="-660" as="sourcePoint" />
            <mxPoint x="-4768" y="-760" as="targetPoint" />
          </mxGeometry>
        </mxCell>
        <mxCell id="bMqEkU54IpqbucLzSi6T-375" value="" style="endArrow=diamondThin;endFill=0;endSize=24;html=1;rounded=0;entryX=0.5;entryY=0;entryDx=0;entryDy=0;exitX=0.5;exitY=1;exitDx=0;exitDy=0;" edge="1" parent="1" source="bMqEkU54IpqbucLzSi6T-100" target="bMqEkU54IpqbucLzSi6T-336">
          <mxGeometry width="160" relative="1" as="geometry">
            <mxPoint x="-5440" y="-1040" as="sourcePoint" />
            <mxPoint x="-5280" y="-1040" as="targetPoint" />
          </mxGeometry>
        </mxCell>
        <mxCell id="bMqEkU54IpqbucLzSi6T-376" value="" style="endArrow=open;endFill=1;endSize=12;html=1;rounded=0;exitX=0.5;exitY=1;exitDx=0;exitDy=0;entryX=0.5;entryY=0;entryDx=0;entryDy=0;" edge="1" parent="1" source="bMqEkU54IpqbucLzSi6T-158" target="bMqEkU54IpqbucLzSi6T-291">
          <mxGeometry width="160" relative="1" as="geometry">
            <mxPoint x="-6145" y="-2009" as="sourcePoint" />
            <mxPoint x="-5812" y="-1949" as="targetPoint" />
            <Array as="points" />
          </mxGeometry>
        </mxCell>
        <mxCell id="bMqEkU54IpqbucLzSi6T-377" value="" style="endArrow=open;endFill=1;endSize=12;html=1;rounded=0;entryX=0.5;entryY=0;entryDx=0;entryDy=0;exitX=0.5;exitY=1;exitDx=0;exitDy=0;" edge="1" parent="1" source="bMqEkU54IpqbucLzSi6T-5" target="bMqEkU54IpqbucLzSi6T-336">
          <mxGeometry width="160" relative="1" as="geometry">
            <mxPoint x="-6145" y="-1900" as="sourcePoint" />
            <mxPoint x="-6145" y="-1830" as="targetPoint" />
            <Array as="points" />
          </mxGeometry>
        </mxCell>
        <mxCell id="bMqEkU54IpqbucLzSi6T-378" value="" style="endArrow=open;endFill=1;endSize=12;html=1;rounded=0;entryX=0.5;entryY=0;entryDx=0;entryDy=0;exitX=0;exitY=0.5;exitDx=0;exitDy=0;" edge="1" parent="1" source="bMqEkU54IpqbucLzSi6T-291" target="bMqEkU54IpqbucLzSi6T-365">
          <mxGeometry width="160" relative="1" as="geometry">
            <mxPoint x="-6039" y="-1710" as="sourcePoint" />
            <mxPoint x="-6095" y="-1710" as="targetPoint" />
            <Array as="points" />
          </mxGeometry>
        </mxCell>
      </root>
    </mxGraphModel>
  </diagram>
</mxfile>
